<ttFont>
          <CharString index="0" raw="1">
            f77d450a fb164335 fb51fb51 d235f71b
            f6dacaf7 1b1ffb0b 064c7166 625076c0
            e98a1ef7 9fa90644 1d29042c 1d0b
          </CharString>
          <CharString index="1" raw="1">
            f78f450a fb204535 fb51fb51 d135f720
            561df751 45e1fb20 1f2604c9 a255261f
            65072674 554d4d74 c1f01eb1 07f0a2c1
            c91e0b   
          </CharString>
          <CharString index="2" raw="1">
            15fb29e3 3df727f7 27e4d9f7 291ef86b
            fb14fc67 073c6361 474764b5 da1ef867
            fb14070e   
          </CharString>
          <CharString index="3" raw="1">
            3b1db30a ee360a0b  
          </CharString>
          <CharString index="4" raw="1">
            fb06fc12 07808c5d 8b1e8888 058b77ba
            809c1efb 68f80e05 fb05fd42 f705f812
            069d89b2 8b1e8f8e 058ba259 937d1e0b
          </CharString>
          <CharString index="5" raw="1">
            50685f5c 5e73a4cf 1ef7e4fb 0cfc0507
            fb10c65e dccab6af b4a61e91 060b
          </CharString>
          <CharString index="6" raw="1">
            37fc3a05 8469854d 8b1a8706 8b83d086
            a61e39f8 3a05fb25 0638fc3a 05856e84
            488b1a87 068b84cd 85a91e39 f83a05fb
            1306f729 fd4205f7 15060b 
          </CharString>
          <CharString index="7" raw="1">
            f780450a fb164a35 fb51fb51 c935f71d
            f702d1ca f7271ffb 0b064379 66605577
            c1f01eb1 07f09ec1 beb49f68 411ef70f
            06f72743 cafb041e 0b 
          </CharString>
          <CharString index="8" raw="1">
            ae1d13f9 10391d13 fa405c1d 13fc2037
            0a13fa40 310a13f9 10950a13 fc20321d
            13f9403b 0a0b  
          </CharString>
          <CharString index="9" raw="1">
            1531065f 465ed005 3106e1fb 1b05ed06
            0b   
          </CharString>
          <CharString index="10" raw="1">
            c6aeb9ba b6a57247 1efbe4f7 0cf80507
            f71050b8 3a0b  
          </CharString>
          <CharString index="11" raw="1">
            fbcff748 f79df706 fb9df738 f7c9f706
            fc49fd42 0b  
          </CharString>
          <CharString index="12" raw="1">
            15566060 5655b761 bfc0b6b6 c0bf61b7
            551f5904 a4a07771 71767772 71779fa5
            a59f9fa5 1f0b  
          </CharString>
          <CharString index="13" raw="1">
            401df743 f701401d 0b 
          </CharString>
          <CharString index="14" raw="1">
            01530a03 f854f8c2 15400675 6205996f
            6a92641b fb204535 fb51299e 45b05e1f
            5e3905d6 06a1b405 7da8ac84 b31b561d
            ed78d265 b81f43fb 18158d78 8d76741a
            65072674 554d777b 91967e1e bcf7df15
            9e9b8581 971ffb15 fb820589 9d8a9fa2
            1ab107f0 a2c1c91e 0b 
          </CharString>
          <CharString index="15" raw="1">
            340ae506 0b  
          </CharString>
          <CharString index="16" raw="1">
            1527064d 580ada06 dff71505 0b
          </CharString>
          <CharString index="17" raw="1">
            fb4a0679 7e989d9d 9a99a01f bd06f713
            cfd2f700 bc7cb570 a91f0b 
          </CharString>
          <CharString index="18" raw="1">
            651df87e f7020b  
          </CharString>
          <CharString index="19" raw="1">
            f7d9440a fb4d21fb 05fb86fb 88ecfb03
            f73cd3ce a9c5b71f 0b 
          </CharString>
          <CharString index="20" raw="1">
            15290635 fb1b050b  
          </CharString>
          <CharString index="21" raw="1">
            12c23e1d 0b  
          </CharString>
          <CharString index="22" raw="1">
            761df715 050b  
          </CharString>
          <CharString index="23" raw="1">
            65766e69 571a43bf 5acb1ef7 5506e9d7
            cbeddf55 c0491f0b  
          </CharString>
          <CharString index="24" raw="1">
            03f815f8 a215fbf7 26f75406 fb60fc0a
            0558f80a f0fb6807 f761f80b 050b
          </CharString>
          <CharString index="25" raw="1">
            f7423e0a 6f0a060b  
          </CharString>
          <CharString index="26" raw="1">
            658bf706 f748f706 f738f706 0b
          </CharString>
          <CharString index="27" raw="1">
            caf84f15 bda46953 53726959 5a72adc3
            c3a4adbc 1f0b  
          </CharString>
          <CharString index="28" raw="1">
            69669dc3 8a1f92fb 0e078b8a 84861a27
            d148f70d f704dfb5 f7141e0b 
          </CharString>
          <CharString index="29" raw="1">
            92a076f7 1bf706f7 d6f7070b 
          </CharString>
          <CharString index="30" raw="1">
            f8a23b1d 0b  
          </CharString>
          <CharString index="31" raw="1">
            15fb1efb 1d0b  
          </CharString>
          <CharString index="32" raw="1">
            7fcc0527 6f0af7d8 060b 
          </CharString>
          <CharString index="33" raw="1">
            350a13dc 470a13bc 400a13dc 2a0a1e13
            bc0b   
          </CharString>
          <CharString index="34" raw="1">
            3f1d0e   
          </CharString>
          <CharString index="35" raw="1">
            7fedf727 5e0a0b  
          </CharString>
          <CharString index="36" raw="1">
            f94e150b   
          </CharString>
          <CharString index="37" raw="1">
            f8ae150b   
          </CharString>
          <CharString index="38" raw="1">
            1299f70f 29f70af7 0af70d13 000b
          </CharString>
          <CharString index="39" raw="1">
            f7c6450a 4c606762 701f8506 0b
          </CharString>
          <CharString index="40" raw="1">
            6b777c69 621a48ae 55e0e0ae c1ceb47c
            ae6b9f1e 0b  
          </CharString>
          <CharString index="41" raw="1">
            a0560a0b   
          </CharString>
          <CharString index="42" raw="1">
            15fb0f62 0ab8eb05 0b 
          </CharString>
          <CharString index="43" raw="1">
            6c7b7a6c 1e5f3206 85a0b185 a91beba5
            d2d11f0b   
          </CharString>
          <CharString index="44" raw="1">
            440a4906 fc20fd5a 05ce060b 
          </CharString>
          <CharString index="45" raw="1">
            15a49877 66657e78 72737d9e b1b0999f
            a31f0b   
          </CharString>
          <CharString index="46" raw="1">
            f74ef96f 152b6f44 451f4b56 26c0fc3d
            f70c0b   
          </CharString>
          <CharString index="47" raw="1">
            749e9988 1f410659 0b 
          </CharString>
          <CharString index="48" raw="1">
            01c7f714 0b  
          </CharString>
          <CharString index="49" raw="1">
            f73ff3f7 0af77ff7 7123f704 fb3f1ffb
            730b   
          </CharString>
          <CharString index="50" raw="1">
            831df7c6 f7180b  
          </CharString>
          <CharString index="51" raw="1">
            830af73e f7110b  
          </CharString>
          <CharString index="52" raw="1">
            b20aa79d a797991f 0b 
          </CharString>
          <CharString index="53" raw="1">
            fb5ff795 dafb031a 60657d6b 1e0b
          </CharString>
          <CharString index="54" raw="1">
            76f94277 0b  
          </CharString>
          <CharString index="55" raw="1">
            15fb0d89 1df700f7 15050e 
          </CharString>
          <CharString index="56" raw="1">
            fb18050b   
          </CharString>
          <CharString index="57" raw="1">
            86a3ab88 a71bb6cd 99ceb967 9e608e1f
            0b   
          </CharString>
          <CharString index="58" raw="1">
            f836f70c fbb6f8ca fb14060e 
          </CharString>
          <CharString index="59" raw="1">
            f764fb95 3bf11aab a49fb01e 0b
          </CharString>
          <CharString index="60" raw="1">
            f7023e76 f79bf702 f76bf702 0b
          </CharString>
          <CharString index="61" raw="1">
            731df738 06b7c1f5 fb6e05f7 1906fb38
            f7ccf730 f76a05fb 1406fb27 fb65050b
          </CharString>
          <CharString index="62" raw="1">
            e2f70ced 0b  
          </CharString>
          <CharString index="63" raw="1">
            129bf70d 2bf70dfb 00f70c0b 
          </CharString>
          <CharString index="64" raw="1">
            611d0e   
          </CharString>
          <CharString index="65" raw="1">
            974a05ef 060b  
          </CharString>
          <CharString index="66" raw="1">
            880acc06 0b  
          </CharString>
          <CharString index="67" raw="1">
            153006fb 1cfb5cf7 1cfb5c05 e606fb00
            f75c050b   
          </CharString>
          <CharString index="68" raw="1">
            1530761d fb5cfb00 fb5c05e6 06f71cf7
            5c050b   
          </CharString>
          <CharString index="69" raw="1">
            f706fb77 075ff748 05f771f7 06fb8d06
            63f73805 f7e1f706 fc9806fb 9bfd4205
            f70b060b   
          </CharString>
          <CharString index="70" raw="1">
            f743f701 150b  
          </CharString>
          <CharString index="71" raw="1">
            c08bf725 f780f725 8b770b 
          </CharString>
          <CharString index="72" raw="1">
            f74af936 15250679 fb280556 26c0fbbc
            060b   
          </CharString>
          <CharString index="73" raw="1">
            def71d6b 0a0b  
          </CharString>
          <CharString index="74" raw="1">
            377a0a0b   
          </CharString>
          <CharString index="75" raw="1">
            1ebd07f7 1d0b  
          </CharString>
          <CharString index="76" raw="1">
            f76d450a 0b  
          </CharString>
          <CharString index="77" raw="1">
            456f4854 1fce0613 d8a68f98 95a11b13
            e86c1d13 d8d1a8ce c21f0e 
          </CharString>
          <CharString index="78" raw="1">
            f711f721 f7120b  
          </CharString>
          <CharString index="79" raw="1">
            fca2f70c 0b  
          </CharString>
          <CharString index="80" raw="1">
            f723e2fb 09fb4bfb 4b34fb09 fb23fb23
            34f709f7 4bf74be2 f709f723 1f0b
          </CharString>
          <CharString index="81" raw="1">
            fc549476 f95a7701 fb3af862 03f7bc4c
            0a0e   
          </CharString>
          <CharString index="82" raw="1">
            53d6fb7d 4146f770 d049070b 
          </CharString>
          <CharString index="83" raw="1">
            cb65bf41 1e4704a0 957a670b 
          </CharString>
          <CharString index="84" raw="1">
            770a1e0b   
          </CharString>
          <CharString index="85" raw="1">
            c7f705f7 89f7060b  
          </CharString>
          <CharString index="86" raw="1">
            15fc30fb 6305fb13 07f830fb 6205f70a
            07fbcbf7 2cf7cbf7 2c050b 
          </CharString>
          <CharString index="87" raw="1">
            780a4d75 56520b  
          </CharString>
          <CharString index="88" raw="1">
            ed52c4fb 0e1ec5fb e3150b 
          </CharString>
          <CharString index="89" raw="1">
            f71d3f0a f71e060b  
          </CharString>
          <CharString index="90" raw="1">
            a06d1d0b   
          </CharString>
          <CharString index="91" raw="1">
            fb4af0f8 f3770b  
          </CharString>
          <CharString index="92" raw="1">
            f71b49cd 120b  
          </CharString>
          <CharString index="93" raw="1">
            01c1f70c 030b  
          </CharString>
          <CharString index="94" raw="1">
            07fb16c0 055707f7 42fb5905 a006f741
            f75905bf 07fb1656 050b 
          </CharString>
          <CharString index="95" raw="1">
            f714f942 fb14fbaa fb6cf7aa fb148b1d
            f7baf76c 060e  
          </CharString>
          <CharString index="96" raw="1">
            15fb0a07 f7cbfb2c fbcbfb2c 05fb0a07
            f830f762 05f71307 0b 
          </CharString>
          <CharString index="97" raw="1">
            7148a406 a0a07f5d 657b7b75 1f0b
          </CharString>
          <CharString index="98" raw="1">
            f8a2770b   
          </CharString>
          <CharString index="99" raw="1">
            b4f7110b   
          </CharString>
          <CharString index="100" raw="1">
            2c755751 5175bfea 1e0b 
          </CharString>
          <CharString index="101" raw="1">
            d2a7cec2 1f0b  
          </CharString>
          <CharString index="102" raw="1">
            36f9abd0 018bf888 03f888f9 f015fc88
            46f88806 0e  
          </CharString>
          <CharString index="103" raw="1">
            421dfb2d 06aefc7d 05dd060b 
          </CharString>
          <CharString index="104" raw="1">
            821d6736 050b  
          </CharString>
          <CharString index="105" raw="1">
            fb52d054 c269760b  
          </CharString>
          <CharString index="106" raw="1">
            76820a0b   
          </CharString>
          <CharString index="107" raw="1">
            03f843fa 07153106 5e465ed0 053206e1
            fb1b05ed 060b  
          </CharString>
          <CharString index="108" raw="1">
            92a0a30a 0b  
          </CharString>
          <CharString index="109" raw="1">
            37fb2c76 f735f701 0b 
          </CharString>
          <CharString index="110" raw="1">
            7fedf7b2 f73a29ed 0b 
          </CharString>
          <CharString index="111" raw="1">
            12a9f719 fb0bf718 0b 
          </CharString>
          <CharString index="112" raw="1">
            531de0f7 18631d0b  
          </CharString>
          <CharString index="113" raw="1">
            850a0e   
          </CharString>
          <CharString index="114" raw="1">
            3b1d6f0a 06f96704 9e1d0b 
          </CharString>
          <CharString index="115" raw="1">
            a1580ada 06a0f718 050b 
          </CharString>
          <CharString index="116" raw="1">
            130013e8 0b  
          </CharString>
          <CharString index="117" raw="1">
            c09babb6 d61a0b  
          </CharString>
          <CharString index="118" raw="1">
            6a7fa4a5 0b  
          </CharString>
          <CharString index="119" raw="1">
            12b0f70f 29f70af7 0a6e0a13 000b
          </CharString>
          <CharString index="120" raw="1">
            f888450a 58617b69 6b1fab6d 5e9d4f1b
            0b   
          </CharString>
          <CharString index="121" raw="1">
            421d4306 49fb3c05 fb11f71e f71d5407
            0b   
          </CharString>
          <CharString index="122" raw="1">
            a4a07872 71767872 71779ea5 a49f9ea5
            1f0b   
          </CharString>
          <CharString index="123" raw="1">
            15fb9334 f793060b  
          </CharString>
          <CharString index="124" raw="1">
            07a79a9a a61ebc0b  
          </CharString>
          <CharString index="125" raw="1">
            8bf706f8 5ef7060b  
          </CharString>
          <CharString index="126" raw="1">
            15fb9434 f794060b  
          </CharString>
          <CharString index="127" raw="1">
            e53dc027 1e0b  
          </CharString>
          <CharString index="128" raw="1">
            619eb873 c01be8d1 def753f7 534ae023
            0b   
          </CharString>
          <CharString index="129" raw="1">
            2c1d0e   
          </CharString>
          <CharString index="130" raw="1">
            7fd46376 f7a8d47f d4f76bd4 7f77120b
          </CharString>
          <CharString index="131" raw="1">
            76f7b2f7 05f741f7 060b 
          </CharString>
          <CharString index="132" raw="1">
            fb9efb33 d8f7d8b4 95b4f7d8 d8120b
          </CharString>
          <CharString index="133" raw="1">
            15f715e1 e0f715f7 0b42e2fb 221f0b
          </CharString>
          <CharString index="134" raw="1">
            9b0a0e   
          </CharString>
          <CharString index="135" raw="1">
            01b5fa2a 03f98ff8 48155706 c00b
          </CharString>
          <CharString index="136" raw="1">
            f73a7905 f70507fb 3a7a050e 
          </CharString>
          <CharString index="137" raw="1">
            f301acf8 3003f851 0b 
          </CharString>
          <CharString index="138" raw="1">
            f82d15fb 0dfb17f7 0d060e 
          </CharString>
          <CharString index="139" raw="1">
            f71b500a 0b  
          </CharString>
          <CharString index="140" raw="1">
            fc3023f8 30060b  
          </CharString>
          <CharString index="141" raw="1">
            13dcf701 fb140713 ecfb010b 
          </CharString>
          <CharString index="142" raw="1">
            65072c75 57515175 c1ea1e0b 
          </CharString>
          <CharString index="143" raw="1">
            58fb00f8 2af700fb 8a07960b 
          </CharString>
          <CharString index="144" raw="1">
            219776f8 b07701ad f830030b 
          </CharString>
          <CharString index="145" raw="1">
            065ffb57 05e306b7 f757050b 
          </CharString>
          <CharString index="146" raw="1">
            c2750796 0a0b  
          </CharString>
          <CharString index="147" raw="1">
            0635580a 0b  
          </CharString>
          <CharString index="148" raw="1">
            92a076f7 baf706f7 aa770b 
          </CharString>
          <CharString index="149" raw="1">
            fbf95af9 a4018cf7 77030b 
          </CharString>
          <CharString index="150" raw="1">
            d7c44ed5 1beabbd4 8b1f0b 
          </CharString>
          <CharString index="151" raw="1">
            af959ca0 1e0e  
          </CharString>
        <CharString name=".notdef">
          -357 0 50 600 50 hstem
          0 50 400 50 vstem
          500 700 rmoveto
          -500 -700 500 hlineto
          -250 305 rmoveto
          170 -255 rlineto
          -340 hlineto
          -30 555 rmoveto
          170 -255 -170 -255 rlineto
          400 510 rmoveto
          -510 vlineto
          -170 255 rlineto
          140 300 rmoveto
          -170 -255 -170 255 rlineto
          endchar
        </CharString>
        <CharString name="A">
          7 21 -21 135 114 322 115 hstem
          0 591 vstem
          370 686 rmoveto
          -149 hlineto
          -221 -686 rlineto
          124 hlineto
          41 135 rlineto
          253 hlineto
          42 -135 rlineto
          131 hlineto
          -297 571 rmoveto
          0 9 -57 11 -36 vhcurveto
          69 -229 rlineto
          -183 hlineto
          70 229 rlineto
          10 32 10 61 0 vvcurveto
          endchar
        </CharString>
        <CharString name="AE">
          235 0 114 21 114 45 114 164 114 hstemhm
          -8 785 hintmask 10111000
          777 hmoveto
          114 -227 vlineto
          -44 180 rlineto
          221 114 -249 hlineto
          -40 164 rlineto
          333 114 -516 hlineto
          -263 -686 rlineto
          119 hlineto
          hintmask 11111000
          50 135 rlineto
          253 hlineto
          hintmask 10111000
          33 -135 rlineto
          -134 546 rmoveto
          4 hlineto
          hintmask 11111000
          70 -297 rlineto
          -184 hlineto
          endchar
        </CharString>
        <CharString name="AEacute">
          235 0 114 21 114 45 114 164 114 65 132 hstemhm
          -8 785 hintmask 10111100
          547 883 rmoveto
          -120 hlineto
          -86 -132 rlineto
          99 hlineto
          108 129 rlineto
          229 -880 rmoveto
          114 -227 vlineto
          -44 180 rlineto
          221 114 -249 hlineto
          -40 164 rlineto
          333 114 -516 hlineto
          -263 -686 rlineto
          119 hlineto
          hintmask 11111100
          50 135 rlineto
          253 hlineto
          hintmask 10111100
          33 -135 rlineto
          -134 546 rmoveto
          4 hlineto
          hintmask 11111100
          70 -297 rlineto
          -184 hlineto
          endchar
        </CharString>
        <CharString name="Aacute">
          7 21 -21 135 114 322 115 65 132 hstem
          0 591 vstem
          370 686 rmoveto
          -149 hlineto
          -221 -686 rlineto
          124 hlineto
          41 135 rlineto
          253 hlineto
          42 -135 rlineto
          131 hlineto
          -297 571 rmoveto
          0 9 -57 11 -36 vhcurveto
          69 -229 rlineto
          -183 hlineto
          70 229 rlineto
          10 32 10 61 0 vvcurveto
          143 312 rmoveto
          -120 hlineto
          -86 -132 rlineto
          99 hlineto
          108 129 rlineto
          endchar
        </CharString>
        <CharString name="Abreve">
          7 21 -21 135 114 322 115 90 107 hstem
          0 591 vstem
          370 686 rmoveto
          -149 hlineto
          -221 -686 rlineto
          124 hlineto
          41 135 rlineto
          253 hlineto
          42 -135 rlineto
          131 hlineto
          -297 571 rmoveto
          0 9 -57 11 -36 vhcurveto
          69 -229 rlineto
          -183 hlineto
          70 229 rlineto
          10 32 10 61 0 vvcurveto
          65 312 rmoveto
          -14 -1 -24 -19 -35 hhcurveto
          -32 -23 19 14 -3 hvcurveto
          -74 hlineto
          -50 50 -57 82 83 52 57 50 vhcurveto
          endchar
        </CharString>
        <CharString name="Acircumflex">
          7 21 -21 135 114 322 115 62 135 hstem
          0 591 vstem
          370 686 rmoveto
          -149 hlineto
          -221 -686 rlineto
          124 hlineto
          41 135 rlineto
          253 hlineto
          42 -135 rlineto
          131 hlineto
          -297 571 rmoveto
          0 9 -57 11 -36 vhcurveto
          69 -229 rlineto
          -183 hlineto
          70 229 rlineto
          10 32 10 61 0 vvcurveto
          56 312 rmoveto
          -98 hlineto
          -86 -135 rlineto
          89 hlineto
          45 69 45 -69 rlineto
          90 hlineto
          endchar
        </CharString>
        <CharString name="Adieresis">
          7 21 -21 135 114 322 115 88 109 hstem
          159 100 74 101 vstem
          370 686 rmoveto
          -149 hlineto
          -221 -686 rlineto
          124 hlineto
          41 135 rlineto
          253 hlineto
          42 -135 rlineto
          131 hlineto
          -297 571 rmoveto
          0 9 -57 11 -36 vhcurveto
          69 -229 rlineto
          -183 hlineto
          70 229 rlineto
          10 32 10 61 0 vvcurveto
          -31 312 rmoveto
          -100 -109 100 hlineto
          175 109 rmoveto
          -101 -109 101 hlineto
          endchar
        </CharString>
        <CharString name="Agrave">
          7 21 -21 135 114 322 115 65 132 hstem
          0 591 vstem
          370 686 rmoveto
          -149 hlineto
          -221 -686 rlineto
          124 hlineto
          41 135 rlineto
          253 hlineto
          42 -135 rlineto
          131 hlineto
          -297 571 rmoveto
          0 9 -57 11 -36 vhcurveto
          69 -229 rlineto
          -183 hlineto
          70 229 rlineto
          10 32 10 61 0 vvcurveto
          -11 312 rmoveto
          -120 hlineto
          -1 -3 108 -129 rlineto
          99 hlineto
          endchar
        </CharString>
        <CharString name="Amacron">
          7 21 -21 135 114 322 115 73 87 hstemhm
          0 591 -423 256 hintmask 11111000
          370 686 rmoveto
          -149 hlineto
          -221 -686 rlineto
          124 hlineto
          41 135 rlineto
          253 hlineto
          42 -135 rlineto
          131 hlineto
          -297 571 rmoveto
          0 9 -57 11 -36 vhcurveto
          69 -229 rlineto
          -183 hlineto
          70 229 rlineto
          10 32 10 61 0 vvcurveto
          hintmask 11110100
          134 275 rmoveto
          -256 -87 256 hlineto
          endchar
        </CharString>
        <CharString name="Aogonek">
          7 -190 69 -55 55 -34 -21 197 -21 135 114 322 115 hstemhm
          463 165 hintmask 00111110
          370 686 rmoveto
          -149 hlineto
          -221 -686 rlineto
          124 hlineto
          41 135 rlineto
          253 hlineto
          42 -135 rlineto
          47 hlineto
          hintmask 10011110
          -24 -25 -20 -28 -47 vvcurveto
          -69 53 -21 46 vhcurveto
          hintmask 00111110
          22 21 5 9 23 hvcurveto
          hintmask 01011110
          55 -22 vlineto
          -33 -12 25 26 28 18 28 12 14 hvcurveto
          -297 571 rmoveto
          0 9 -57 11 -36 vhcurveto
          69 -229 rlineto
          -183 hlineto
          70 229 rlineto
          10 32 10 61 0 vvcurveto
          endchar
        </CharString>
        <CharString name="Aring">
          7 21 -21 135 114 322 115 35 50 92 50 hstem
          200 50 92 50 vstem
          370 686 rmoveto
          -149 hlineto
          -221 -686 rlineto
          124 hlineto
          41 135 rlineto
          253 hlineto
          42 -135 rlineto
          131 hlineto
          -297 571 rmoveto
          0 9 -57 11 -36 vhcurveto
          69 -229 rlineto
          -183 hlineto
          70 229 rlineto
          10 32 10 61 0 vvcurveto
          6 342 rmoveto
          -53 -43 -43 -53 -54 44 -42 52 53 43 43 53 52 -42 44 -54 hvcurveto
          -50 vmoveto
          25 21 -20 -26 -26 -21 -20 -25 -26 -20 20 26 26 20 20 26 hvcurveto
          endchar
        </CharString>
        <CharString name="Aringacute">
          26 21 -21 135 114 523 49 27 109 hstemhm
          200 50 92 50 hintmask 11111100
          296 821 rmoveto
          -53 -43 -42 -51 -20 6 -19 11 -15 hvcurveto
          -217 -674 rlineto
          124 hlineto
          41 135 rlineto
          253 hlineto
          42 -135 rlineto
          131 hlineto
          -217 673 rlineto
          11 16 7 19 20 vvcurveto
          50 -42 43 -54 vhcurveto
          -2 -250 rmoveto
          0 9 -57 11 -36 vhcurveto
          69 -229 rlineto
          -183 hlineto
          70 229 rlineto
          10 32 10 61 0 vvcurveto
          6 201 rmoveto
          25 21 -19 -25 -26 -21 -19 -25 -26 -20 19 26 25 20 19 26 hvcurveto
          hintmask 11011100
          147 185 rmoveto
          -120 hlineto
          -70 -109 rlineto
          99 hlineto
          92 106 rlineto
          endchar
        </CharString>
        <CharString name="Atilde">
          7 21 -21 135 114 322 115 75 85 -48 85 hstemhm
          0 591 hintmask 11110100
          370 686 rmoveto
          -149 hlineto
          -221 -686 rlineto
          124 hlineto
          41 135 rlineto
          253 hlineto
          42 -135 rlineto
          131 hlineto
          -297 571 rmoveto
          0 9 -57 11 -36 vhcurveto
          69 -229 rlineto
          -183 hlineto
          70 229 rlineto
          10 32 10 61 0 vvcurveto
          hintmask 11101100
          108 312 rmoveto
          hintmask 11110100
          -28 -4 -14 -9 -21 hhcurveto
          hintmask 11101100
          -45 -39 37 -49 hhcurveto
          hintmask 11110100
          -70 -28 -67 -55 hvcurveto
          66 hlineto
          hintmask 11101100
          27 4 14 10 21 hhcurveto
          hintmask 11110100
          45 39 -37 48 hhcurveto
          hintmask 11101100
          71 28 67 55 hvcurveto
          endchar
        </CharString>
        <CharString name="B">
          7 0 114 181 113 164 114 hstemhm
          60 128 223 131 -115 131 hintmask 11110100
          60 hmoveto
          295 hlineto
          110 93 69 115 88 -53 63 -68 21 hvcurveto
          4 vlineto
          hintmask 11111000
          59 21 46 56 79 vvcurveto
          101 -79 69 -108 vhcurveto
          -295 hlineto
          hintmask 11110100
          268 -391 rmoveto
          67 32 -42 -53 -56 -40 -30 -53 hvcurveto
          -146 181 hlineto
          hintmask 11111000
          138 277 rmoveto
          51 34 -27 -52 -46 -30 -39 -61 hvcurveto
          -132 164 hlineto
          endchar
        </CharString>
        <CharString name="C">
          7 -12 110 490 110 hstem
          34 132 268 125 vstem
          307 698 rmoveto
          -172 -101 -113 -242 -242 101 -113 172 145 107 86 180 hvcurveto
          -125 hlineto
          -106 -49 -50 -74 -98 -47 83 137 vhcurveto
          50 vlineto
          137 46 83 95 72 49 -51 -106 vhcurveto
          131 hlineto
          186 -109 81 -143 vhcurveto
          endchar
        </CharString>
        <CharString name="CR">
          -585 endchar
        </CharString>
        <CharString name="Cacute">
          7 -12 110 490 110 53 132 hstem
          34 132 268 125 vstem
          307 698 rmoveto
          -172 -101 -113 -242 -242 101 -113 172 145 107 86 180 hvcurveto
          -125 hlineto
          -106 -49 -50 -74 -98 -47 83 137 vhcurveto
          50 vlineto
          137 46 83 95 72 49 -51 -106 vhcurveto
          131 hlineto
          186 -109 81 -143 vhcurveto
          137 185 rmoveto
          -120 hlineto
          -86 -132 rlineto
          99 hlineto
          108 129 rlineto
          endchar
        </CharString>
        <CharString name="Ccaron">
          7 -12 110 490 110 50 135 hstem
          34 132 268 125 vstem
          307 698 rmoveto
          -172 -101 -113 -242 -242 101 -113 172 145 107 86 180 hvcurveto
          -125 hlineto
          -106 -49 -50 -74 -98 -47 83 137 vhcurveto
          50 vlineto
          137 46 83 95 72 49 -51 -106 vhcurveto
          131 hlineto
          186 -109 81 -143 vhcurveto
          134 185 rmoveto
          -89 hlineto
          -45 -69 -45 69 rlineto
          -90 hlineto
          86 -135 rlineto
          98 hlineto
          endchar
        </CharString>
        <CharString name="Ccedilla">
          7 -182 57 -28 -21 97 44 43 -21 23 -21 597 110 hstemhm
          34 132 92 71 -8 86 27 125 hintmask 1000111101000000
          307 698 rmoveto
          -172 -101 -113 -242 -221 83 -113 145 -18 hvcurveto
          hintmask 1010111101000000
          -8 -68 rlineto
          hintmask 1010111011000000
          33 hlineto
          26 8 -8 -16 -19 -14 -5 -22 hvcurveto
          -71 hlineto
          hintmask 0100111101000000
          -49 vlineto
          hintmask 1010111011000000
          -5 24 32 -3 28 hhcurveto
          43 66 14 67 46 -36 19 -43 3 hvcurveto
          hintmask 1001011101000000
          2 22 rlineto
          133 9 96 86 170 vvcurveto
          -125 hlineto
          hintmask 1010111101000000
          -106 -49 -50 -74 -98 -47 83 137 vhcurveto
          50 vlineto
          137 46 83 95 72 49 -51 -106 vhcurveto
          131 hlineto
          hintmask 1000111101000000
          186 -109 81 -143 vhcurveto
          endchar
        </CharString>
        <CharString name="Ccircumflex">
          7 -12 110 490 110 50 135 hstem
          34 132 268 125 vstem
          307 698 rmoveto
          -172 -101 -113 -242 -242 101 -113 172 145 107 86 180 hvcurveto
          -125 hlineto
          -106 -49 -50 -74 -98 -47 83 137 vhcurveto
          50 vlineto
          137 46 83 95 72 49 -51 -106 vhcurveto
          131 hlineto
          186 -109 81 -143 vhcurveto
          49 185 rmoveto
          -98 hlineto
          -86 -135 rlineto
          90 hlineto
          45 69 45 -69 rlineto
          89 hlineto
          endchar
        </CharString>
        <CharString name="Cdotaccent">
          7 -12 110 490 110 70 115 hstem
          34 132 87 107 74 125 vstem
          307 698 rmoveto
          -172 -101 -113 -242 -242 101 -113 172 145 107 86 180 hvcurveto
          -125 hlineto
          -106 -49 -50 -74 -98 -47 83 137 vhcurveto
          50 vlineto
          137 46 83 95 72 49 -51 -106 vhcurveto
          131 hlineto
          186 -109 81 -143 vhcurveto
          53 185 rmoveto
          -107 -115 107 hlineto
          endchar
        </CharString>
        <CharString name="D">
          7 0 114 458 114 hstem
          60 128 238 132 vstem
          283 hmoveto
          171 104 118 235 221 -104 112 -171 hvcurveto
          -223 -686 hlineto
          211 572 rmoveto
          95 60 -65 -129 hvcurveto
          -50 vlineto
          -143 -60 -71 -95 vhcurveto
          -83 458 hlineto
          endchar
        </CharString>
        <CharString name="Dcaron">
          7 0 114 458 114 62 135 hstem
          60 128 238 132 vstem
          388 883 rmoveto
          -90 hlineto
          -44 -69 -45 69 rlineto
          -90 hlineto
          86 -135 rlineto
          98 hlineto
          -20 -748 rmoveto
          171 104 118 235 221 -104 112 -171 hvcurveto
          -223 -686 hlineto
          211 572 rmoveto
          95 60 -65 -129 hvcurveto
          -50 vlineto
          -143 -60 -71 -95 vhcurveto
          -83 458 hlineto
          endchar
        </CharString>
        <CharString name="Dcroat">
          7 0 114 198 85 175 114 hstem
          60 128 238 132 vstem
          10 312 rmoveto
          50 -312 223 hlineto
          171 104 118 235 221 -104 112 -171 hvcurveto
          -223 -289 -50 hlineto
          261 175 rmoveto
          95 60 -65 -129 hvcurveto
          -50 vlineto
          -143 -60 -71 -95 vhcurveto
          -83 198 125 85 -125 175 hlineto
          endchar
        </CharString>
        <CharString name="Delta">
          4 0 114 427 145 0 -20 hstemhm
          13 555 hintmask 10110000
          365 686 rmoveto
          -149 hlineto
          -203 -631 rlineto
          -55 555 55 vlineto
          hintmask 11010000
          -279 486 rmoveto
          131 -427 rlineto
          -266 hlineto
          131 427 rlineto
          endchar
        </CharString>
        <CharString name="E">
          -38 0 114 180 114 164 114 hstem
          60 128 vstem
          503 hmoveto
          114 -315 180 265 114 -265 164 309 114 -437 -686 vlineto
          endchar
        </CharString>
        <CharString name="Eacute">
          -38 0 114 180 114 164 114 65 132 hstem
          60 128 vstem
          411 883 rmoveto
          -120 hlineto
          -86 -132 rlineto
          99 hlineto
          108 129 rlineto
          91 -880 rmoveto
          114 -315 180 265 114 -265 164 309 114 -437 -686 vlineto
          endchar
        </CharString>
        <CharString name="Ebreve">
          -38 0 114 180 114 164 114 90 107 hstem
          60 128 vstem
          333 883 rmoveto
          -14 -2 -24 -19 -34 hhcurveto
          -33 -23 19 14 -3 hvcurveto
          -74 hlineto
          -50 51 -57 82 83 51 57 50 vhcurveto
          96 -883 rmoveto
          114 -315 180 265 114 -265 164 309 114 -437 -686 vlineto
          endchar
        </CharString>
        <CharString name="Ecaron">
          -38 0 114 180 114 164 114 62 135 hstem
          60 128 vstem
          408 883 rmoveto
          -90 hlineto
          -44 -69 -45 69 rlineto
          -90 hlineto
          86 -135 rlineto
          98 hlineto
          180 -748 rmoveto
          114 -315 180 265 114 -265 164 309 114 -437 -686 vlineto
          endchar
        </CharString>
        <CharString name="Ecircumflex">
          -38 0 114 180 114 164 114 62 135 hstem
          60 128 vstem
          323 883 rmoveto
          -98 hlineto
          -86 -135 rlineto
          90 hlineto
          45 69 44 -69 rlineto
          90 hlineto
          95 -748 rmoveto
          114 -315 180 265 114 -265 164 309 114 -437 -686 vlineto
          endchar
        </CharString>
        <CharString name="Edieresis">
          -38 0 114 180 114 164 114 88 109 hstemhm
          60 128 -52 100 75 100 hintmask 11110110
          236 883 rmoveto
          -100 -109 100 hlineto
          175 109 rmoveto
          -100 -109 100 hlineto
          92 -774 rmoveto
          114 vlineto
          hintmask 11111010
          -315 180 265 114 -265 164 309 114 -437 -686 hlineto
          endchar
        </CharString>
        <CharString name="Edotaccent">
          -38 0 114 180 114 164 114 82 115 hstem
          60 128 32 107 vstem
          327 883 rmoveto
          -107 -115 107 hlineto
          176 -768 rmoveto
          114 -315 180 265 114 -265 164 309 114 -437 -686 vlineto
          endchar
        </CharString>
        <CharString name="Egrave">
          -38 0 114 180 114 164 114 65 132 hstem
          60 128 vstem
          256 883 rmoveto
          -120 hlineto
          -1 -3 108 -129 rlineto
          99 hlineto
          161 -751 rmoveto
          114 -315 180 265 114 -265 164 309 114 -437 -686 vlineto
          endchar
        </CharString>
        <CharString name="Emacron">
          -38 0 114 180 114 164 114 73 87 hstemhm
          60 128 -42 255 hintmask 11110100
          401 846 rmoveto
          -255 -87 255 hlineto
          102 -759 rmoveto
          114 vlineto
          hintmask 11111000
          -315 180 265 114 -265 164 309 114 -437 -686 hlineto
          endchar
        </CharString>
        <CharString name="Eng">
          8 -182 101 102 -21 686 -20 hstem
          60 113 245 114 vstem
          415 hmoveto
          -33 vlineto
          -31 -16 -17 -31 vhcurveto
          -45 -89 hlineto
          -6 21 36 -6 30 hhcurveto
          96 26 71 70 hvcurveto
          727 -114 -382 vlineto
          -11 1 -46 0 vhcurveto
          -3 -3 rlineto
          0 -20 47 -11 17 vhcurveto
          -212 378 rlineto
          -113 -686 113 382 hlineto
          18 -2 39 0 vhcurveto
          4 3 rlineto
          0 23 -50 8 -14 vhcurveto
          endchar
        </CharString>
        <CharString name="Eogonek">
          -38 -190 69 -55 55 -34 -21 176 114 180 114 164 114 hstemhm
          60 128 187 165 hintmask 00111111
          497 686 rmoveto
          -437 -686 359 hlineto
          hintmask 10011111
          -24 -25 -20 -28 -47 vvcurveto
          -69 53 -21 46 vhcurveto
          hintmask 00111111
          22 21 5 9 23 hvcurveto
          hintmask 01011111
          55 -22 vlineto
          -33 -12 25 26 28 18 28 12 14 hvcurveto
          114 -315 180 265 114 -265 164 309 vlineto
          endchar
        </CharString>
        <CharString name="Eth">
          7 0 114 198 85 175 114 hstem
          60 128 238 132 vstem
          10 312 rmoveto
          50 -312 223 hlineto
          171 104 118 235 221 -104 112 -171 hvcurveto
          -223 -289 -50 hlineto
          261 175 rmoveto
          95 60 -65 -129 hvcurveto
          -50 vlineto
          -143 -60 -71 -95 vhcurveto
          -83 198 125 85 -125 175 hlineto
          endchar
        </CharString>
        <CharString name="Euro">
          -129 -12 101 138 81 70 81 138 101 -10 -20 hstemhm
          59 120 hintmask 11110100
          360 698 rmoveto
          -150 -105 -91 -148 -35 hvcurveto
          -60 -81 49 hlineto
          -1 -12 0 -11 0 -12 0 -12 0 -12 1 -11 50 flex
          -49 -81 60 hlineto
          -148 35 105 -91 150 hhcurveto
          26 24 4 7 24 hvcurveto
          99 vlineto
          -6 -20 -21 -3 -23 hhcurveto
          -87 -61 52 86 -28 hvcurveto
          180 81 -195 hlineto
          -1 11 0 12 0 12 0 12 0 11 1 12 50 flex
          195 81 -180 hlineto
          85 28 61 53 87 hhcurveto
          23 21 -3 -6 20 hvcurveto
          hintmask 11101100
          100 vlineto
          hintmask 11110100
          7 -23 -26 3 -25 hhcurveto
          endchar
        </CharString>
        <CharString name="F">
          -84 21 -21 285 114 173 114 hstem
          60 128 vstem
          188 hmoveto
          285 235 114 -235 173 275 114 -403 -686 vlineto
          endchar
        </CharString>
        <CharString name="G">
          53 -12 110 -77 -21 263 110 215 110 hstemhm
          34 132 290 131 hintmask 10111100
          325 698 rmoveto
          -185 -106 -113 -242 -244 97 -111 168 72 67 30 58 44 hvcurveto
          hintmask 01111100
          22 -76 rlineto
          83 373 -285 -110 154 hlineto
          hintmask 10111100
          -100 -56 -65 -78 -107 -49 80 140 vhcurveto
          50 vlineto
          137 48 83 107 74 61 -49 -93 vhcurveto
          131 hlineto
          164 -124 88 -138 vhcurveto
          endchar
        </CharString>
        <CharString name="Gbreve">
          53 -12 110 -77 -21 263 110 215 110 78 107 hstemhm
          34 132 290 131 hintmask 10111110
          325 698 rmoveto
          -185 -106 -113 -242 -244 97 -111 168 72 67 30 58 44 hvcurveto
          hintmask 01111110
          22 -76 rlineto
          83 373 -285 -110 154 hlineto
          hintmask 10111110
          -100 -56 -65 -78 -107 -49 80 140 vhcurveto
          50 vlineto
          137 48 83 107 74 61 -49 -93 vhcurveto
          131 hlineto
          164 -124 88 -138 vhcurveto
          54 185 rmoveto
          -14 -2 -24 -19 -34 hhcurveto
          -33 -23 19 14 -3 hvcurveto
          -74 hlineto
          -50 51 -57 82 83 51 57 50 vhcurveto
          endchar
        </CharString>
        <CharString name="Gcircumflex">
          53 -12 110 -77 -21 263 110 215 110 50 135 hstemhm
          34 132 290 131 hintmask 10111110
          325 698 rmoveto
          -185 -106 -113 -242 -244 97 -111 168 72 67 30 58 44 hvcurveto
          hintmask 01111110
          22 -76 rlineto
          83 373 -285 -110 154 hlineto
          hintmask 10111110
          -100 -56 -65 -78 -107 -49 80 140 vhcurveto
          50 vlineto
          137 48 83 107 74 61 -49 -93 vhcurveto
          131 hlineto
          164 -124 88 -138 vhcurveto
          44 185 rmoveto
          -98 hlineto
          -86 -135 rlineto
          90 hlineto
          45 69 44 -69 rlineto
          90 hlineto
          endchar
        </CharString>
        <CharString name="Gcommaaccent">
          53 -178 123 43 110 -77 -21 263 110 215 110 hstemhm
          34 132 76 123 91 131 hintmask 11011111
          325 698 rmoveto
          -185 -106 -113 -242 -244 97 -111 168 72 67 30 58 44 hvcurveto
          hintmask 10111111
          22 -76 rlineto
          83 373 -285 -110 154 hlineto
          hintmask 11011111
          -100 -56 -65 -78 -107 -49 80 140 vhcurveto
          50 vlineto
          137 48 83 107 74 61 -49 -93 vhcurveto
          131 hlineto
          164 -124 88 -138 vhcurveto
          40 -753 rmoveto
          -123 -123 49 hlineto
          -36 -85 rlineto
          65 hlineto
          45 96 rlineto
          endchar
        </CharString>
        <CharString name="Gdotaccent">
          53 -12 110 -77 -21 263 110 215 110 70 115 hstemhm
          34 132 100 107 83 131 hintmask 10111111
          325 698 rmoveto
          -185 -106 -113 -242 -244 97 -111 168 72 67 30 58 44 hvcurveto
          hintmask 01111111
          22 -76 rlineto
          83 373 -285 -110 154 hlineto
          hintmask 10111111
          -100 -56 -65 -78 -107 -49 80 140 vhcurveto
          50 vlineto
          137 48 83 107 74 61 -49 -93 vhcurveto
          131 hlineto
          164 -124 88 -138 vhcurveto
          48 185 rmoveto
          -107 -115 107 hlineto
          endchar
        </CharString>
        <CharString name="H">
          7 21 -21 294 114 278 -20 hstem
          60 128 216 128 vstem
          404 hmoveto
          128 686 -128 -278 -216 278 -128 -686 128 294 216 hlineto
          endchar
        </CharString>
        <CharString name="Hbar">
          7 21 -21 287 114 89 87 -87 196 hstemhm
          60 128 216 128 hintmask 11101100
          582 577 rmoveto
          -50 hlineto
          hintmask 11011100
          109 -128 vlineto
          hintmask 11101100
          -109 -216 vlineto
          hintmask 11011100
          109 -128 vlineto
          hintmask 11101100
          -109 -50 vlineto
          hintmask 11011100
          -87 50 -490 128 287 216 -287 128 490 50 vlineto
          -394 -89 rmoveto
          89 216 -89 vlineto
          endchar
        </CharString>
        <CharString name="Hcircumflex">
          7 21 -21 294 114 278 -20 82 135 hstem
          60 128 216 128 vstem
          346 883 rmoveto
          -98 hlineto
          -86 -135 rlineto
          89 hlineto
          45 69 45 -69 rlineto
          90 hlineto
          -27 -748 rmoveto
          128 686 -128 -278 -216 278 -128 -686 128 294 216 hlineto
          endchar
        </CharString>
        <CharString name="I">
          -357 21 -21 686 -20 hstem
          50 128 vstem
          178 686 rmoveto
          -128 -686 128 hlineto
          endchar
        </CharString>
        <CharString name="IJ">
          99 -12 110 -98 216 470 -20 hstemhm
          50 128 59 127 132 128 hintmask 10111100
          178 686 rmoveto
          -128 hlineto
          hintmask 01111100
          -686 128 vlineto
          59 216 rmoveto
          -53 vlineto
          hintmask 10111100
          -114 70 -61 124 124 69 61 114 vhcurveto
          523 -128 -513 vlineto
          -48 -22 -27 -43 -44 -23 27 48 vhcurveto
          hintmask 01111100
          43 vlineto
          endchar
        </CharString>
        <CharString name="Iacute">
          -357 21 -21 686 -20 85 132 hstem
          50 128 vstem
          178 686 rmoveto
          -128 -686 128 hlineto
          73 883 rmoveto
          -120 hlineto
          -86 -132 rlineto
          100 hlineto
          107 129 rlineto
          endchar
        </CharString>
        <CharString name="Ibreve">
          -357 21 -21 686 -20 110 107 hstem
          50 128 vstem
          178 686 rmoveto
          -128 -686 128 hlineto
          -4 883 rmoveto
          -14 -2 -24 -19 -34 hhcurveto
          -33 -23 19 14 -3 hvcurveto
          -75 hlineto
          -50 52 -57 82 83 51 57 50 vhcurveto
          endchar
        </CharString>
        <CharString name="Icircumflex">
          -357 21 -21 686 -20 82 135 hstem
          50 128 vstem
          178 686 rmoveto
          -128 -686 128 hlineto
          -14 883 rmoveto
          -98 hlineto
          -87 -135 rlineto
          91 hlineto
          45 69 44 -69 rlineto
          90 hlineto
          endchar
        </CharString>
        <CharString name="Idieresis">
          -357 21 -21 686 -20 108 109 hstemhm
          -23 100 -27 128 -26 100 hintmask 11101000
          178 686 rmoveto
          -128 -686 128 hlineto
          hintmask 11110100
          -101 883 rmoveto
          -100 -109 100 hlineto
          175 109 rmoveto
          -100 -109 100 hlineto
          endchar
        </CharString>
        <CharString name="Idotaccent">
          -357 21 -21 686 -20 102 115 hstemhm
          50 128 -117 107 hintmask 11110000
          178 686 rmoveto
          -128 -686 128 hlineto
          hintmask 11101000
          -10 883 rmoveto
          -107 -115 107 hlineto
          endchar
        </CharString>
        <CharString name="Igrave">
          -357 21 -21 686 -20 85 132 hstem
          50 128 vstem
          178 686 rmoveto
          -128 -686 128 hlineto
          -81 883 rmoveto
          -120 hlineto
          -1 -3 108 -129 rlineto
          99 hlineto
          endchar
        </CharString>
        <CharString name="Imacron">
          -357 21 -21 686 -20 93 87 hstem
          50 128 vstem
          178 686 rmoveto
          -128 -686 128 hlineto
          64 846 rmoveto
          -256 -87 256 hlineto
          endchar
        </CharString>
        <CharString name="Iogonek">
          -357 -190 69 -55 55 -34 -21 197 -21 686 -20 hstemhm
          50 128 hintmask 00111100
          178 686 rmoveto
          -128 -686 44 hlineto
          hintmask 10011100
          -24 -25 -20 -28 -47 vvcurveto
          -69 54 -21 45 vhcurveto
          hintmask 00111100
          22 21 5 9 23 hvcurveto
          hintmask 01011100
          55 -22 vlineto
          -33 -12 25 26 28 19 28 11 14 hvcurveto
          endchar
        </CharString>
        <CharString name="Itilde">
          -357 21 -21 686 -20 95 85 -48 85 hstemhm
          50 128 hintmask 11101000
          178 686 rmoveto
          -128 -686 128 hlineto
          hintmask 11011000
          38 883 rmoveto
          hintmask 11101000
          -28 -4 -13 -9 -21 hhcurveto
          hintmask 11011000
          -46 -38 37 -50 hhcurveto
          hintmask 11101000
          -70 -28 -67 -55 hvcurveto
          67 hlineto
          hintmask 11011000
          27 4 13 10 22 hhcurveto
          hintmask 11101000
          45 39 -37 48 hhcurveto
          hintmask 11011000
          70 29 67 55 hvcurveto
          endchar
        </CharString>
        <CharString name="J">
          -129 -12 110 588 -20 hstem
          9 127 132 128 vstem
          9 216 rmoveto
          -53 vlineto
          -114 70 -61 124 124 69 61 114 vhcurveto
          523 -128 -513 vlineto
          -48 -22 -27 -43 -44 -23 27 48 vhcurveto
          43 vlineto
          endchar
        </CharString>
        <CharString name="Jcircumflex">
          -129 -12 110 588 -20 82 135 hstem
          9 127 132 128 vstem
          395 883 rmoveto
          -99 hlineto
          -86 -135 rlineto
          90 hlineto
          45 69 45 -69 rlineto
          89 hlineto
          -470 -532 rmoveto
          -53 vlineto
          -114 70 -61 124 124 69 61 114 vhcurveto
          523 -128 -513 vlineto
          -48 -22 -27 -43 -44 -23 27 48 vhcurveto
          43 vlineto
          endchar
        </CharString>
        <CharString name="K">
          7 21 -21 686 -20 hstem
          60 129 vstem
          189 686 rmoveto
          -129 -686 129 175 hlineto
          107 131 149 -306 rlineto
          144 hlineto
          -209 407 203 279 rlineto
          -143 hlineto
          -251 -351 rlineto
          endchar
        </CharString>
        <CharString name="Kcommaaccent">
          7 -178 123 76 -21 686 -20 hstem
          60 129 45 124 vstem
          358 -55 rmoveto
          -124 -123 49 hlineto
          -35 -85 rlineto
          64 hlineto
          46 96 rlineto
          -169 853 rmoveto
          -129 -686 129 175 hlineto
          107 131 149 -306 rlineto
          144 hlineto
          -209 407 203 279 rlineto
          -143 hlineto
          -251 -351 rlineto
          endchar
        </CharString>
        <CharString name="L">
          -84 0 120 566 -20 hstem
          60 128 vstem
          60 hmoveto
          418 120 -290 566 -128 hlineto
          endchar
        </CharString>
        <CharString name="Lacute">
          -84 0 120 566 -20 85 132 hstem
          60 128 vstem
          264 883 rmoveto
          -120 hlineto
          -86 -132 rlineto
          99 hlineto
          108 129 rlineto
          -205 -880 rmoveto
          418 120 -290 566 -128 hlineto
          endchar
        </CharString>
        <CharString name="Lcaron">
          -84 0 120 429 137 hstem
          60 128 152 138 vstem
          478 686 rmoveto
          -138 -137 55 hlineto
          -55 -156 rlineto
          72 hlineto
          66 168 rlineto
          -418 -561 rmoveto
          418 120 -290 566 -128 hlineto
          endchar
        </CharString>
        <CharString name="Lcommaaccent">
          -84 -178 123 55 120 566 -20 hstemhm
          60 128 1 123 hintmask 11101000
          312 -55 rmoveto
          -123 -123 49 hlineto
          -36 -85 rlineto
          65 hlineto
          45 96 rlineto
          hintmask 11110000
          -252 167 rmoveto
          418 120 -290 566 -128 hlineto
          endchar
        </CharString>
        <CharString name="Ldot">
          -84 0 120 289 115 162 -20 hstem
          60 128 125 107 vstem
          420 524 rmoveto
          -107 -115 107 hlineto
          -360 -409 rmoveto
          418 120 -290 566 -128 hlineto
          endchar
        </CharString>
        <CharString name="Lslash">
          -84 0 120 566 -20 hstem
          60 128 vstem
          304 550 rmoveto
          -116 -104 rlineto
          240 -128 -354 vlineto
          -60 -53 rlineto
          -95 vlineto
          60 53 rlineto
          -237 418 120 -290 230 vlineto
          116 103 rlineto
          endchar
        </CharString>
        <CharString name="M">
          98 0 153 -132 -21 547 139 hstemhm
          53 109 350 118 hintmask 01111000
          630 hmoveto
          686 -174 vlineto
          -84 -378 rlineto
          hintmask 10111000
          -9 -40 -14 -115 0 vvcurveto
          -4 hlineto
          0 -17 110 -10 45 vhcurveto
          -85 378 rlineto
          -180 -686 109 437 hlineto
          27 -5 83 0 vhcurveto
          4 hlineto
          121 -547 rlineto
          111 hlineto
          120 547 rlineto
          4 hlineto
          0 -5 -79 -31 hvcurveto
          -437 vlineto
          endchar
        </CharString>
        <CharString name="N">
          7 21 -21 686 -20 hstem
          60 113 245 114 vstem
          532 hmoveto
          686 -114 -382 vlineto
          -11 1 -46 0 vhcurveto
          -3 -3 rlineto
          0 -20 47 -11 17 vhcurveto
          -212 378 rlineto
          -113 -686 113 382 hlineto
          18 -2 39 0 vhcurveto
          4 3 rlineto
          0 23 -50 8 -14 vhcurveto
          212 -378 rlineto
          endchar
        </CharString>
        <CharString name="NULL">
          -585 endchar
        </CharString>
        <CharString name="Nacute">
          7 21 -21 686 -20 85 132 hstem
          60 113 245 114 vstem
          433 883 rmoveto
          -120 hlineto
          -86 -132 rlineto
          99 hlineto
          108 129 rlineto
          98 -880 rmoveto
          686 -114 -382 vlineto
          -11 1 -46 0 vhcurveto
          -3 -3 rlineto
          0 -20 47 -11 17 vhcurveto
          -212 378 rlineto
          -113 -686 113 382 hlineto
          18 -2 39 0 vhcurveto
          4 3 rlineto
          0 23 -50 8 -14 vhcurveto
          212 -378 rlineto
          endchar
        </CharString>
        <CharString name="Ncaron">
          7 21 -21 686 -20 82 135 hstem
          60 113 245 114 vstem
          431 883 rmoveto
          -90 hlineto
          -45 -69 -45 69 rlineto
          -89 hlineto
          86 -135 rlineto
          98 hlineto
          186 -748 rmoveto
          686 -114 -382 vlineto
          -11 1 -46 0 vhcurveto
          -3 -3 rlineto
          0 -20 47 -11 17 vhcurveto
          -212 378 rlineto
          -113 -686 113 382 hlineto
          18 -2 39 0 vhcurveto
          4 3 rlineto
          0 23 -50 8 -14 vhcurveto
          212 -378 rlineto
          endchar
        </CharString>
        <CharString name="Ncommaaccent">
          7 -178 123 76 -21 686 -20 hstem
          60 113 61 124 60 114 vstem
          358 -55 rmoveto
          -124 -123 49 hlineto
          -35 -85 rlineto
          64 hlineto
          46 96 rlineto
          174 167 rmoveto
          686 -114 -382 vlineto
          -11 1 -46 0 vhcurveto
          -3 -3 rlineto
          0 -20 47 -11 17 vhcurveto
          -212 378 rlineto
          -113 -686 113 382 hlineto
          18 -2 39 0 vhcurveto
          4 3 rlineto
          0 23 -50 8 -14 vhcurveto
          212 -378 rlineto
          endchar
        </CharString>
        <CharString name="Ntilde">
          7 21 -21 686 -20 95 85 -48 85 hstemhm
          60 113 245 114 hintmask 11011100
          398 883 rmoveto
          hintmask 11101100
          -28 -4 -14 -9 -21 hhcurveto
          hintmask 11011100
          -45 -39 37 -49 hhcurveto
          hintmask 11101100
          -70 -28 -67 -55 hvcurveto
          66 hlineto
          hintmask 11011100
          27 4 14 10 21 hhcurveto
          hintmask 11101100
          45 39 -37 48 hhcurveto
          hintmask 11011100
          71 28 67 55 hvcurveto
          68 -883 rmoveto
          686 -114 -382 vlineto
          -11 1 -46 0 vhcurveto
          -3 -3 rlineto
          0 -20 47 -11 17 vhcurveto
          -212 378 rlineto
          -113 -686 113 382 hlineto
          18 -2 39 0 vhcurveto
          4 3 rlineto
          0 23 -50 8 -14 vhcurveto
          212 -378 rlineto
          endchar
        </CharString>
        <CharString name="O">
          53 -12 110 490 110 hstem
          34 132 306 132 vstem
          319 698 rmoveto
          -177 -108 -113 -242 -242 108 -113 177 177 108 113 242 242 -108 113 -177 hvcurveto
          -110 vmoveto
          102 51 -83 -137 hvcurveto
          -50 vlineto
          -137 -51 -83 -102 -102 -51 83 137 vhcurveto
          50 vlineto
          137 51 83 102 vhcurveto
          endchar
        </CharString>
        <CharString name="OE">
          235 -12 110 -98 114 180 114 164 114 -98 110 hstemhm
          30 132 245 129 hintmask 10101110
          30 343 rmoveto
          -242 87 -113 141 61 51 23 50 38 vhcurveto
          hintmask 01110110
          -61 384 114 -256 180 206 114 -206 164 249 114 -377 vlineto
          hintmask 01101110
          -62 vlineto
          50 -38 -51 24 -61 hhcurveto
          hintmask 10101110
          -141 -87 -113 -242 hvcurveto
          132 25 rmoveto
          157 41 63 81 82 41 -63 -157 vhcurveto
          -50 vlineto
          -157 -41 -63 -82 -81 -41 63 157 vhcurveto
          endchar
        </CharString>
        <CharString name="Oacute">
          53 -12 110 490 110 53 132 hstem
          34 132 306 132 vstem
          319 698 rmoveto
          -177 -108 -113 -242 -242 108 -113 177 177 108 113 242 242 -108 113 -177 hvcurveto
          -110 vmoveto
          102 51 -83 -137 hvcurveto
          -50 vlineto
          -137 -51 -83 -102 -102 -51 83 137 vhcurveto
          50 vlineto
          137 51 83 102 vhcurveto
          138 295 rmoveto
          -121 hlineto
          -86 -132 rlineto
          100 hlineto
          108 129 rlineto
          endchar
        </CharString>
        <CharString name="Obreve">
          53 -12 110 490 110 78 107 hstem
          34 132 306 132 vstem
          319 698 rmoveto
          -177 -108 -113 -242 -242 108 -113 177 177 108 113 242 242 -108 113 -177 hvcurveto
          -110 vmoveto
          102 51 -83 -137 hvcurveto
          -50 vlineto
          -137 -51 -83 -102 -102 -51 83 137 vhcurveto
          50 vlineto
          137 51 83 102 vhcurveto
          60 295 rmoveto
          -14 -2 -24 -19 -34 hhcurveto
          -33 -23 19 14 -3 hvcurveto
          -74 hlineto
          -50 51 -57 82 83 51 57 50 vhcurveto
          endchar
        </CharString>
        <CharString name="Ocircumflex">
          53 -12 110 490 110 50 135 hstem
          34 132 306 132 vstem
          319 698 rmoveto
          -177 -108 -113 -242 -242 108 -113 177 177 108 113 242 242 -108 113 -177 hvcurveto
          -110 vmoveto
          102 51 -83 -137 hvcurveto
          -50 vlineto
          -137 -51 -83 -102 -102 -51 83 137 vhcurveto
          50 vlineto
          137 51 83 102 vhcurveto
          50 295 rmoveto
          -98 hlineto
          -86 -135 rlineto
          90 hlineto
          45 69 44 -69 rlineto
          90 hlineto
          endchar
        </CharString>
        <CharString name="Odieresis">
          53 -12 110 490 110 76 109 hstemhm
          34 132 16 100 75 100 15 132 hintmask 11110010
          319 698 rmoveto
          -177 -108 -113 -242 -242 108 -113 177 177 108 113 242 242 -108 113 -177 hvcurveto
          -110 vmoveto
          102 51 -83 -137 hvcurveto
          -50 vlineto
          -137 -51 -83 -102 -102 -51 83 137 vhcurveto
          50 vlineto
          137 51 83 102 vhcurveto
          hintmask 11111110
          -37 295 rmoveto
          -100 -109 100 hlineto
          175 109 rmoveto
          -100 -109 100 hlineto
          endchar
        </CharString>
        <CharString name="Ograve">
          53 -12 110 490 110 53 132 hstem
          34 132 306 132 vstem
          319 698 rmoveto
          -177 -108 -113 -242 -242 108 -113 177 177 108 113 242 242 -108 113 -177 hvcurveto
          -110 vmoveto
          102 51 -83 -137 hvcurveto
          -50 vlineto
          -137 -51 -83 -102 -102 -51 83 137 vhcurveto
          50 vlineto
          137 51 83 102 vhcurveto
          -17 295 rmoveto
          -120 hlineto
          -1 -3 108 -129 rlineto
          99 hlineto
          endchar
        </CharString>
        <CharString name="Ohungarumlaut">
          53 -12 110 490 110 53 132 hstem
          34 132 306 132 vstem
          319 698 rmoveto
          -177 -108 -113 -242 -242 108 -113 177 177 108 113 242 242 -108 113 -177 hvcurveto
          -110 vmoveto
          102 51 -83 -137 hvcurveto
          -50 vlineto
          -137 -51 -83 -102 -102 -51 83 137 vhcurveto
          50 vlineto
          137 51 83 102 vhcurveto
          50 295 rmoveto
          -100 hlineto
          -62 -132 rlineto
          79 hlineto
          84 129 rlineto
          139 3 rmoveto
          -100 hlineto
          -62 -132 rlineto
          79 hlineto
          84 129 rlineto
          endchar
        </CharString>
        <CharString name="Omacron">
          53 -12 110 490 110 61 87 hstemhm
          34 132 26 255 25 132 hintmask 11110100
          319 698 rmoveto
          -177 -108 -113 -242 -242 108 -113 177 177 108 113 242 242 -108 113 -177 hvcurveto
          -110 vmoveto
          102 51 -83 -137 hvcurveto
          -50 vlineto
          -137 -51 -83 -102 -102 -51 83 137 vhcurveto
          50 vlineto
          137 51 83 102 vhcurveto
          hintmask 11111100
          128 258 rmoveto
          -255 -87 255 hlineto
          endchar
        </CharString>
        <CharString name="Omega">
          183 0 114 474 110 hstem
          98 131 307 131 vstem
          383 698 rmoveto
          -177 -108 -113 -242 -112 39 -80 60 -51 hvcurveto
          4 -30 -29 10 -15 hhcurveto
          -25 -114 247 82 hlineto
          -76 21 -40 77 116 vvcurveto
          72 vlineto
          137 52 83 102 102 51 -83 -137 vhcurveto
          -72 vlineto
          -117 -38 -78 -77 -20 vhcurveto
          -81 246 114 -24 vlineto
          -16 -30 -10 -4 -29 hvcurveto
          60 51 39 80 112 vvcurveto
          242 -107 113 -177 vhcurveto
          endchar
        </CharString>
        <CharString name="Oslash">
          53 -12 110 490 110 25 -20 hstemhm
          34 132 306 132 hintmask 10111000
          599 723 rmoveto
          -84 hlineto
          hintmask 11011000
          -41 -65 rlineto
          27 -43 -52 13 -60 hhcurveto
          -177 -108 -113 -242 -121 27 -89 49 -58 hvcurveto
          -70 -112 rlineto
          84 hlineto
          40 64 rlineto
          -26 43 52 -13 60 hhcurveto
          177 108 113 242 120 -27 89 -49 58 hvcurveto
          -75 -120 rmoveto
          13 -33 6 -42 -47 vvcurveto
          -50 vlineto
          -137 -51 -83 -102 -37 -31 11 20 -23 vhcurveto
          91 459 rmoveto
          37 31 -11 -21 23 hvcurveto
          -226 -362 rlineto
          -12 34 -6 42 48 vvcurveto
          50 vlineto
          137 51 83 102 vhcurveto
          endchar
        </CharString>
        <CharString name="Oslashacute">
          53 -12 110 490 110 25 -20 48 132 hstemhm
          34 132 306 132 hintmask 10111100
          599 723 rmoveto
          -84 hlineto
          hintmask 11011100
          -41 -65 rlineto
          27 -43 -52 13 -60 hhcurveto
          -177 -108 -113 -242 -121 27 -89 49 -58 hvcurveto
          -70 -112 rlineto
          84 hlineto
          40 64 rlineto
          -26 43 52 -13 60 hhcurveto
          177 108 113 242 120 -27 89 -49 58 hvcurveto
          -75 -120 rmoveto
          13 -33 6 -42 -47 vvcurveto
          -50 vlineto
          -137 -51 -83 -102 -37 -31 11 20 -23 vhcurveto
          91 459 rmoveto
          37 31 -11 -21 23 hvcurveto
          -226 -362 rlineto
          -12 34 -6 42 48 vvcurveto
          50 vlineto
          137 51 83 102 vhcurveto
          138 295 rmoveto
          -121 hlineto
          -86 -132 rlineto
          100 hlineto
          108 129 rlineto
          endchar
        </CharString>
        <CharString name="Otilde">
          53 -12 110 490 110 63 85 -48 85 hstemhm
          34 132 306 132 hintmask 11011100
          319 698 rmoveto
          -177 -108 -113 -242 -242 108 -113 177 177 108 113 242 242 -108 113 -177 hvcurveto
          -110 vmoveto
          102 51 -83 -137 hvcurveto
          -50 vlineto
          -137 -51 -83 -102 -102 -51 83 137 vhcurveto
          50 vlineto
          137 51 83 102 vhcurveto
          102 295 rmoveto
          hintmask 11101100
          -28 -4 -13 -9 -21 hhcurveto
          hintmask 11011100
          -46 -38 37 -49 hhcurveto
          hintmask 11101100
          -70 -29 -67 -55 hvcurveto
          67 hlineto
          hintmask 11011100
          27 4 13 10 22 hhcurveto
          hintmask 11101100
          45 39 -37 48 hhcurveto
          hintmask 11011100
          70 29 67 55 hvcurveto
          endchar
        </CharString>
        <CharString name="P">
          -38 21 -21 266 113 193 114 hstem
          60 128 200 132 vstem
          305 266 rmoveto
          129 86 85 129 119 -73 87 -142 hvcurveto
          -245 -686 128 266 hlineto
          104 306 rmoveto
          61 35 -36 -56 -63 -34 -38 -62 hvcurveto
          -104 193 hlineto
          endchar
        </CharString>
        <CharString name="Q">
          53 -12 110 490 110 hstem
          34 132 306 132 vstem
          34 343 rmoveto
          -242 108 -113 177 vhcurveto
          12 hlineto
          99 -112 rlineto
          157 hlineto
          -132 141 rlineto
          94 48 55 106 172 vvcurveto
          242 -108 113 -177 -177 -108 -113 -242 vhcurveto
          132 25 rmoveto
          137 51 83 102 102 51 -83 -137 vhcurveto
          -50 vlineto
          -137 -51 -83 -102 -102 -51 83 137 vhcurveto
          endchar
        </CharString>
        <CharString name="R">
          7 21 -21 286 113 173 114 hstem
          60 128 231 138 vstem
          321 286 rmoveto
          114 -286 rlineto
          139 hlineto
          -132 314 rlineto
          71 29 44 64 83 vvcurveto
          113 -71 83 -139 vhcurveto
          -287 -686 128 286 hlineto
          146 286 rmoveto
          59 26 -32 -50 -57 -28 -34 -62 hvcurveto
          -141 173 hlineto
          endchar
        </CharString>
        <CharString name="Racute">
          7 21 -21 286 113 173 114 65 132 hstem
          60 128 231 138 vstem
          433 883 rmoveto
          -120 hlineto
          -86 -132 rlineto
          99 hlineto
          108 129 rlineto
          -113 -594 rmoveto
          114 -286 rlineto
          139 hlineto
          -132 314 rlineto
          71 29 44 64 83 vvcurveto
          113 -71 83 -139 vhcurveto
          -287 -686 128 286 hlineto
          146 286 rmoveto
          59 26 -32 -50 -57 -28 -34 -62 hvcurveto
          -141 173 hlineto
          endchar
        </CharString>
        <CharString name="Rcaron">
          7 21 -21 286 113 173 114 62 135 hstem
          60 128 231 138 vstem
          431 883 rmoveto
          -90 hlineto
          -45 -69 -45 69 rlineto
          -89 hlineto
          86 -135 rlineto
          98 hlineto
          -25 -462 rmoveto
          114 -286 rlineto
          139 hlineto
          -132 314 rlineto
          71 29 44 64 83 vvcurveto
          113 -71 83 -139 vhcurveto
          -287 -686 128 286 hlineto
          146 286 rmoveto
          59 26 -32 -50 -57 -28 -34 -62 hvcurveto
          -141 173 hlineto
          endchar
        </CharString>
        <CharString name="Rcommaaccent">
          7 -178 123 76 -21 286 113 173 114 hstem
          60 128 46 124 61 138 vstem
          358 -55 rmoveto
          -124 -123 49 hlineto
          -35 -85 rlineto
          64 hlineto
          46 96 rlineto
          -37 453 rmoveto
          114 -286 rlineto
          139 hlineto
          -132 314 rlineto
          71 29 44 64 83 vvcurveto
          113 -71 83 -139 vhcurveto
          -287 -686 128 286 hlineto
          146 286 rmoveto
          59 26 -32 -50 -57 -28 -34 -62 hvcurveto
          -141 173 hlineto
          endchar
        </CharString>
        <CharString name="S">
          -38 -12 110 490 110 hstemhm
          30 133 -119 132 189 131 -119 132 hintmask 11011000
          273 698 rmoveto
          -121 -108 -62 -130 hvcurveto
          hintmask 11010100
          -261 333 97 -163 vvcurveto
          -40 -27 -41 -77 vhcurveto
          hintmask 11100100
          -70 -40 44 65 hvcurveto
          5 1 9 2 vvcurveto
          -133 hlineto
          -5 -1 -9 -8 vvcurveto
          -141 111 -72 126 142 100 61 157 vhcurveto
          hintmask 11010100
          252 -333 -82 139 vvcurveto
          42 34 31 62 vhcurveto
          hintmask 11011000
          58 35 -37 -58 hvcurveto
          -9 131 12 vlineto
          141 -101 61 -122 vhcurveto
          endchar
        </CharString>
        <CharString name="Sacute">
          -38 -12 110 490 110 53 132 hstemhm
          30 133 -119 132 189 131 -119 132 hintmask 11101100
          273 698 rmoveto
          -121 -108 -62 -130 hvcurveto
          hintmask 11101010
          -261 333 97 -163 vvcurveto
          -40 -27 -41 -77 vhcurveto
          hintmask 11110010
          -70 -40 44 65 hvcurveto
          5 1 9 2 vvcurveto
          -133 hlineto
          -5 -1 -9 -8 vvcurveto
          -141 111 -72 126 142 100 61 157 vhcurveto
          hintmask 11101010
          252 -333 -82 139 vvcurveto
          42 34 31 62 vhcurveto
          hintmask 11101100
          58 35 -37 -58 hvcurveto
          -9 131 12 vlineto
          141 -101 61 -122 vhcurveto
          hintmask 11101010
          138 185 rmoveto
          -120 hlineto
          -86 -132 rlineto
          99 hlineto
          108 129 rlineto
          endchar
        </CharString>
        <CharString name="Scaron">
          -38 -12 110 490 110 50 135 hstemhm
          30 133 -119 132 189 131 -119 132 hintmask 11101100
          273 698 rmoveto
          -121 -108 -62 -130 hvcurveto
          hintmask 11101010
          -261 333 97 -163 vvcurveto
          -40 -27 -41 -77 vhcurveto
          hintmask 11110010
          -70 -40 44 65 hvcurveto
          5 1 9 2 vvcurveto
          -133 hlineto
          -5 -1 -9 -8 vvcurveto
          -141 111 -72 126 142 100 61 157 vhcurveto
          hintmask 11101010
          252 -333 -82 139 vvcurveto
          42 34 31 62 vhcurveto
          hintmask 11101100
          58 35 -37 -58 hvcurveto
          -9 131 12 vlineto
          141 -101 61 -122 vhcurveto
          135 185 rmoveto
          -90 hlineto
          -44 -69 -45 69 rlineto
          -90 hlineto
          86 -135 rlineto
          98 hlineto
          endchar
        </CharString>
        <CharString name="Scedilla">
          -38 -182 57 -28 -21 97 44 43 -21 23 -21 597 110 hstemhm
          30 133 -119 132 45 71 -8 86 -5 131 -119 132 hintmask 1000110100100000
          273 698 rmoveto
          -121 -108 -62 -130 hvcurveto
          hintmask 1010110100010000
          -261 333 97 -163 vvcurveto
          -40 -27 -41 -77 vhcurveto
          hintmask 1010111000010000
          -70 -40 44 65 hvcurveto
          5 1 9 2 vvcurveto
          -133 hlineto
          -5 -1 -9 -8 vvcurveto
          hintmask 1000111000010000
          -126 87 -71 108 -13 vhcurveto
          hintmask 1010110110010000
          -8 -68 rlineto
          hintmask 1010110101000000
          33 hlineto
          26 8 -8 -16 -19 -14 -5 -22 hvcurveto
          -71 hlineto
          hintmask 0100110100010000
          -49 vlineto
          hintmask 1010110101000000
          -5 24 32 -3 28 hhcurveto
          43 66 14 67 46 -36 19 -43 3 hvcurveto
          hintmask 1001010110010000
          2 22 rlineto
          128 8 88 62 147 vvcurveto
          252 -333 -82 139 vvcurveto
          42 34 31 62 vhcurveto
          hintmask 1000110100100000
          58 35 -37 -58 hvcurveto
          -9 131 12 vlineto
          141 -101 61 -122 vhcurveto
          endchar
        </CharString>
        <CharString name="Scircumflex">
          -38 -12 110 490 110 50 135 hstemhm
          30 133 -119 132 189 131 -119 132 hintmask 11101100
          273 698 rmoveto
          -121 -108 -62 -130 hvcurveto
          hintmask 11101010
          -261 333 97 -163 vvcurveto
          -40 -27 -41 -77 vhcurveto
          hintmask 11110010
          -70 -40 44 65 hvcurveto
          5 1 9 2 vvcurveto
          -133 hlineto
          -5 -1 -9 -8 vvcurveto
          -141 111 -72 126 142 100 61 157 vhcurveto
          hintmask 11101010
          252 -333 -82 139 vvcurveto
          42 34 31 62 vhcurveto
          hintmask 11101100
          58 35 -37 -58 hvcurveto
          -9 131 12 vlineto
          141 -101 61 -122 vhcurveto
          hintmask 11101010
          50 185 rmoveto
          -98 hlineto
          -86 -135 rlineto
          90 hlineto
          45 69 44 -69 rlineto
          90 hlineto
          endchar
        </CharString>
        <CharString name="T">
          -84 21 -21 572 114 hstem
          187 128 vstem
          485 686 rmoveto
          -468 -114 170 -572 128 572 170 hlineto
          endchar
        </CharString>
        <CharString name="Tbar">
          -84 21 -21 306 87 179 114 hstem
          187 128 vstem
          427 393 rmoveto
          -112 179 170 114 -468 -114 170 -179 -113 -87 113 -306 128 306 112 hlineto
          endchar
        </CharString>
        <CharString name="Tcaron">
          -84 21 -21 572 114 62 135 hstem
          187 128 vstem
          485 686 rmoveto
          -468 -114 170 -572 128 572 170 hlineto
          -100 311 rmoveto
          -90 hlineto
          -44 -69 -45 69 rlineto
          -90 hlineto
          86 -135 rlineto
          98 hlineto
          endchar
        </CharString>
        <CharString name="Tcommaaccent">
          -84 -178 123 76 -21 572 114 hstem
          187 128 vstem
          485 686 rmoveto
          -468 -114 170 -572 128 572 170 hlineto
          -173 -627 rmoveto
          -123 -123 49 hlineto
          -36 -85 rlineto
          65 hlineto
          45 96 rlineto
          endchar
        </CharString>
        <CharString name="Thorn">
          -38 21 -21 144 113 193 114 122 -20 hstem
          60 128 200 132 vstem
          305 144 rmoveto
          129 86 85 129 119 -73 87 -142 hvcurveto
          -117 122 -128 -686 128 144 hlineto
          104 306 rmoveto
          61 35 -36 -56 -63 -34 -38 -62 hvcurveto
          -104 193 hlineto
          endchar
        </CharString>
        <CharString name="U">
          7 -12 110 588 -20 hstem
          61 128 215 128 vstem
          61 215 rmoveto
          -149 88 -78 147 147 89 78 149 vhcurveto
          471 -128 -467 vlineto
          -79 -40 -42 -68 -68 -39 42 79 vhcurveto
          467 -128 vlineto
          endchar
        </CharString>
        <CharString name="Uacute">
          7 -12 110 588 -20 85 132 hstem
          61 128 215 128 vstem
          433 883 rmoveto
          -120 hlineto
          -86 -132 rlineto
          99 hlineto
          108 129 rlineto
          -373 -665 rmoveto
          -149 88 -78 147 147 89 78 149 vhcurveto
          471 -128 -467 vlineto
          -79 -40 -42 -68 -68 -39 42 79 vhcurveto
          467 -128 vlineto
          endchar
        </CharString>
        <CharString name="Ubreve">
          7 -12 110 588 -20 110 107 hstem
          61 128 215 128 vstem
          355 883 rmoveto
          -14 -1 -24 -19 -35 hhcurveto
          -32 -23 19 14 -3 hvcurveto
          -74 hlineto
          -50 50 -57 82 83 52 57 50 vhcurveto
          -369 -668 rmoveto
          -149 88 -78 147 147 89 78 149 vhcurveto
          471 -128 -467 vlineto
          -79 -40 -42 -68 -68 -39 42 79 vhcurveto
          467 -128 vlineto
          endchar
        </CharString>
        <CharString name="Ucircumflex">
          7 -12 110 588 -20 82 135 hstem
          61 128 215 128 vstem
          346 883 rmoveto
          -98 hlineto
          -86 -135 rlineto
          89 hlineto
          45 69 45 -69 rlineto
          90 hlineto
          -370 -533 rmoveto
          -149 88 -78 147 147 89 78 149 vhcurveto
          471 -128 -467 vlineto
          -79 -40 -42 -68 -68 -39 42 79 vhcurveto
          467 -128 vlineto
          endchar
        </CharString>
        <CharString name="Udieresis">
          7 -12 110 588 -20 108 109 hstemhm
          61 128 -30 100 74 101 -30 128 hintmask 11101100
          259 883 rmoveto
          -100 -109 100 hlineto
          175 109 rmoveto
          -101 -109 101 hlineto
          hintmask 11110010
          -373 -559 rmoveto
          -149 88 -78 147 147 89 78 149 vhcurveto
          471 -128 -467 vlineto
          -79 -40 -42 -68 -68 -39 42 79 vhcurveto
          467 -128 vlineto
          endchar
        </CharString>
        <CharString name="Ugrave">
          7 -12 110 588 -20 85 132 hstem
          61 128 215 128 vstem
          279 883 rmoveto
          -120 hlineto
          -1 -3 108 -129 rlineto
          99 hlineto
          -304 -536 rmoveto
          -149 88 -78 147 147 89 78 149 vhcurveto
          471 -128 -467 vlineto
          -79 -40 -42 -68 -68 -39 42 79 vhcurveto
          467 -128 vlineto
          endchar
        </CharString>
        <CharString name="Uhungarumlaut">
          7 -12 110 588 -20 85 132 hstem
          61 128 215 128 vstem
          345 883 rmoveto
          -100 hlineto
          -62 -132 rlineto
          79 hlineto
          84 129 rlineto
          139 3 rmoveto
          -100 hlineto
          -62 -132 rlineto
          79 hlineto
          84 129 rlineto
          -425 -665 rmoveto
          -149 88 -78 147 147 89 78 149 vhcurveto
          471 -128 -467 vlineto
          -79 -40 -42 -68 -68 -39 42 79 vhcurveto
          467 -128 vlineto
          endchar
        </CharString>
        <CharString name="Umacron">
          7 -12 110 588 -20 93 87 hstem
          61 128 215 128 vstem
          424 846 rmoveto
          -256 -87 256 hlineto
          -363 -544 rmoveto
          -149 88 -78 147 147 89 78 149 vhcurveto
          471 -128 -467 vlineto
          -79 -40 -42 -68 -68 -39 42 79 vhcurveto
          467 -128 vlineto
          endchar
        </CharString>
        <CharString name="Uogonek">
          7 -185 69 104 110 588 -20 hstemhm
          61 128 88 165 -38 128 hintmask 11110100
          532 686 rmoveto
          -128 -459 hlineto
          -84 -40 -45 -68 -68 -39 45 84 vhcurveto
          459 -128 -463 vlineto
          -154 88 -81 147 vhcurveto
          10 hlineto
          hintmask 11111000
          -17 -21 -12 -26 -36 vvcurveto
          -69 53 -21 46 22 21 5 9 23 vhcurveto
          55 -22 vlineto
          -33 -12 25 26 28 18 28 12 14 hvcurveto
          hintmask 11110100
          81 31 46 74 113 vvcurveto
          endchar
        </CharString>
        <CharString name="Uring">
          7 -12 110 588 -20 55 50 92 50 hstemhm
          61 128 11 50 92 50 12 128 hintmask 11111111
          296 913 rmoveto
          -53 -43 -43 -53 -54 44 -42 52 53 43 43 53 52 -42 44 -54 hvcurveto
          -50 vmoveto
          25 21 -20 -26 -26 -21 -20 -25 -26 -20 20 26 26 20 20 26 hvcurveto
          hintmask 11111001
          -235 -648 rmoveto
          -149 88 -78 147 147 89 78 149 vhcurveto
          471 -128 -467 vlineto
          -79 -40 -42 -68 -68 -39 42 79 vhcurveto
          467 -128 vlineto
          endchar
        </CharString>
        <CharString name="Utilde">
          7 -12 110 588 -20 95 85 -48 85 hstemhm
          61 128 215 128 hintmask 11011100
          398 883 rmoveto
          hintmask 11101100
          -28 -4 -14 -9 -21 hhcurveto
          hintmask 11011100
          -45 -39 37 -49 hhcurveto
          hintmask 11101100
          -70 -28 -67 -55 hvcurveto
          66 hlineto
          hintmask 11011100
          27 4 14 10 21 hhcurveto
          hintmask 11101100
          45 39 -37 48 hhcurveto
          hintmask 11011100
          71 28 67 55 hvcurveto
          -403 -668 rmoveto
          -149 88 -78 147 147 89 78 149 vhcurveto
          471 -128 -467 vlineto
          -79 -40 -42 -68 -68 -39 42 79 vhcurveto
          467 -128 vlineto
          endchar
        </CharString>
        <CharString name="V">
          -38 21 -21 686 -20 hstem
          0 547 vstem
          547 686 rmoveto
          -125 hlineto
          -142 -491 rlineto
          -4 hlineto
          -144 491 rlineto
          -132 hlineto
          209 -686 rlineto
          129 hlineto
          endchar
        </CharString>
        <CharString name="W">
          189 0 168 -147 -21 534 152 0 -20 hstemhm
          0 773 hintmask 01011000
          773 686 rmoveto
          -110 hlineto
          hintmask 10011000
          -84 -422 rlineto
          -7 -34 -6 -62 0 vvcurveto
          -4 hlineto
          0 -8 69 -5 27 vhcurveto
          -82 422 rlineto
          -145 hlineto
          -83 -422 rlineto
          -6 -29 -7 -67 0 vvcurveto
          -4 hlineto
          0 -7 66 -6 30 vhcurveto
          -82 422 rlineto
          -127 hlineto
          149 -686 rlineto
          129 hlineto
          hintmask 01101000
          92 437 rlineto
          6 29 8 68 0 vvcurveto
          4 hlineto
          0 6 -62 8 -35 vhcurveto
          93 -437 rlineto
          129 hlineto
          endchar
        </CharString>
        <CharString name="Wacute">
          189 0 168 -147 -21 534 152 0 -20 85 132 hstemhm
          0 773 hintmask 01011100
          773 686 rmoveto
          -110 hlineto
          hintmask 10011100
          -84 -422 rlineto
          -7 -34 -6 -62 0 vvcurveto
          -4 hlineto
          0 -8 69 -5 27 vhcurveto
          -82 422 rlineto
          -145 hlineto
          -83 -422 rlineto
          -6 -29 -7 -67 0 vvcurveto
          -4 hlineto
          0 -7 66 -6 30 vhcurveto
          -82 422 rlineto
          -127 hlineto
          149 -686 rlineto
          129 hlineto
          hintmask 01101100
          92 437 rlineto
          6 29 8 68 0 vvcurveto
          4 hlineto
          0 6 -62 8 -35 vhcurveto
          93 -437 rlineto
          129 hlineto
          -100 883 rmoveto
          -120 hlineto
          -86 -132 rlineto
          99 hlineto
          108 129 rlineto
          endchar
        </CharString>
        <CharString name="Wcircumflex">
          189 0 168 -147 -21 534 152 0 -20 82 135 hstemhm
          0 773 hintmask 01011100
          773 686 rmoveto
          -110 hlineto
          hintmask 10011100
          -84 -422 rlineto
          -7 -34 -6 -62 0 vvcurveto
          -4 hlineto
          0 -8 69 -5 27 vhcurveto
          -82 422 rlineto
          -145 hlineto
          -83 -422 rlineto
          -6 -29 -7 -67 0 vvcurveto
          -4 hlineto
          0 -7 66 -6 30 vhcurveto
          -82 422 rlineto
          -127 hlineto
          149 -686 rlineto
          129 hlineto
          hintmask 01101100
          92 437 rlineto
          6 29 8 68 0 vvcurveto
          4 hlineto
          0 6 -62 8 -35 vhcurveto
          93 -437 rlineto
          129 hlineto
          -187 883 rmoveto
          -98 hlineto
          -86 -135 rlineto
          90 hlineto
          45 69 44 -69 rlineto
          90 hlineto
          endchar
        </CharString>
        <CharString name="Wdieresis">
          189 0 168 -147 -21 534 152 0 -20 108 109 hstemhm
          250 100 75 100 hintmask 01011110
          773 686 rmoveto
          -110 hlineto
          hintmask 10011110
          -84 -422 rlineto
          -7 -34 -6 -62 0 vvcurveto
          -4 hlineto
          0 -8 69 -5 27 vhcurveto
          -82 422 rlineto
          -145 hlineto
          -83 -422 rlineto
          -6 -29 -7 -67 0 vvcurveto
          -4 hlineto
          0 -7 66 -6 30 vhcurveto
          -82 422 rlineto
          -127 hlineto
          149 -686 rlineto
          129 hlineto
          hintmask 01101110
          92 437 rlineto
          6 29 8 68 0 vvcurveto
          4 hlineto
          0 6 -62 8 -35 vhcurveto
          93 -437 rlineto
          129 hlineto
          -274 883 rmoveto
          -100 -109 100 hlineto
          175 109 rmoveto
          -100 -109 100 hlineto
          endchar
        </CharString>
        <CharString name="Wgrave">
          189 0 168 -147 -21 534 152 0 -20 85 132 hstemhm
          0 773 hintmask 01011100
          773 686 rmoveto
          -110 hlineto
          hintmask 10011100
          -84 -422 rlineto
          -7 -34 -6 -62 0 vvcurveto
          -4 hlineto
          0 -8 69 -5 27 vhcurveto
          -82 422 rlineto
          -145 hlineto
          -83 -422 rlineto
          -6 -29 -7 -67 0 vvcurveto
          -4 hlineto
          0 -7 66 -6 30 vhcurveto
          -82 422 rlineto
          -127 hlineto
          149 -686 rlineto
          129 hlineto
          hintmask 01101100
          92 437 rlineto
          6 29 8 68 0 vvcurveto
          4 hlineto
          0 6 -62 8 -35 vhcurveto
          93 -437 rlineto
          129 hlineto
          -254 883 rmoveto
          -120 hlineto
          -1 -3 108 -129 rlineto
          99 hlineto
          endchar
        </CharString>
        <CharString name="X">
          -38 21 -21 686 -20 hstem
          0 546 vstem
          528 686 rmoveto
          -133 hlineto
          -115 -224 rlineto
          -4 hlineto
          -115 224 rlineto
          -143 hlineto
          176 -326 -194 -360 rlineto
          133 hlineto
          133 259 rlineto
          4 hlineto
          134 -259 rlineto
          142 hlineto
          -195 362 rlineto
          endchar
        </CharString>
        <CharString name="Y">
          -38 21 -21 686 -20 hstem
          210 128 vstem
          547 686 rmoveto
          -129 hlineto
          -139 -301 rlineto
          -4 hlineto
          -140 301 rlineto
          -135 hlineto
          210 -427 rlineto
          -259 128 259 vlineto
          endchar
        </CharString>
        <CharString name="Yacute">
          -38 21 -21 686 -20 85 132 hstem
          210 128 vstem
          547 686 rmoveto
          -129 hlineto
          -139 -301 rlineto
          -4 hlineto
          -140 301 rlineto
          -135 hlineto
          210 -427 rlineto
          -259 128 259 vlineto
          73 624 rmoveto
          -120 hlineto
          -86 -132 rlineto
          99 hlineto
          108 129 rlineto
          endchar
        </CharString>
        <CharString name="Ycircumflex">
          -38 21 -21 686 -20 82 135 hstem
          210 128 vstem
          547 686 rmoveto
          -129 hlineto
          -139 -301 rlineto
          -4 hlineto
          -140 301 rlineto
          -135 hlineto
          210 -427 rlineto
          -259 128 259 vlineto
          -15 624 rmoveto
          -98 hlineto
          -86 -135 rlineto
          90 hlineto
          45 69 44 -69 rlineto
          90 hlineto
          endchar
        </CharString>
        <CharString name="Ydieresis">
          -38 21 -21 686 -20 108 109 hstemhm
          136 100 -26 128 -27 100 hintmask 11101000
          547 686 rmoveto
          -129 hlineto
          -139 -301 rlineto
          -4 hlineto
          -140 301 rlineto
          -135 hlineto
          210 -427 rlineto
          -259 128 259 vlineto
          hintmask 11110100
          -102 624 rmoveto
          -100 -109 100 hlineto
          175 109 rmoveto
          -100 -109 100 hlineto
          endchar
        </CharString>
        <CharString name="Ygrave">
          -38 21 -21 686 -20 85 132 hstem
          210 128 vstem
          547 686 rmoveto
          -129 hlineto
          -139 -301 rlineto
          -4 hlineto
          -140 301 rlineto
          -135 hlineto
          210 -427 rlineto
          -259 128 259 vlineto
          -82 624 rmoveto
          -120 hlineto
          -1 -3 108 -129 rlineto
          99 hlineto
          endchar
        </CharString>
        <CharString name="Z">
          -84 0 114 458 114 hstem
          16 464 vstem
          473 686 rmoveto
          -436 -114 261 hlineto
          -282 -523 rlineto
          -49 464 114 -289 vlineto
          282 522 rlineto
          endchar
        </CharString>
        <CharString name="Zacute">
          -84 0 114 458 114 65 132 hstem
          16 464 vstem
          473 686 rmoveto
          -436 -114 261 hlineto
          -282 -523 rlineto
          -49 464 114 -289 vlineto
          282 522 rlineto
          -85 247 rmoveto
          -120 hlineto
          -86 -132 rlineto
          99 hlineto
          108 129 rlineto
          endchar
        </CharString>
        <CharString name="Zcaron">
          -84 0 114 458 114 62 135 hstem
          16 464 vstem
          473 686 rmoveto
          -436 -114 261 hlineto
          -282 -523 rlineto
          -49 464 114 -289 vlineto
          282 522 rlineto
          -88 247 rmoveto
          -90 hlineto
          -44 -69 -45 69 rlineto
          -90 hlineto
          86 -135 rlineto
          98 hlineto
          endchar
        </CharString>
        <CharString name="Zdotaccent">
          -84 0 114 458 114 82 115 hstem
          197 107 vstem
          473 686 rmoveto
          -436 -114 261 hlineto
          -282 -523 rlineto
          -49 464 114 -289 vlineto
          282 522 rlineto
          -169 247 rmoveto
          -107 -115 107 hlineto
          endchar
        </CharString>
        <CharString name="a">
          -129 -12 100 145 87 120 98 hstemhm
          14 123 -98 118 118 121 hintmask 11110100
          217 538 rmoveto
          hintmask 11101100
          -108 -70 -58 -88 -9 0 -7 1 -6 hvcurveto
          117 15 hlineto
          25 14 30 49 46 9 -29 -36 vhcurveto
          -55 vlineto
          hintmask 11110100
          -153 -108 -42 -142 -122 83 -26 49 70 33 27 42 30 hvcurveto
          5 hlineto
          -41 12 33 -28 48 hhcurveto
          36 22 9 7 13 hvcurveto
          85 -24 vlineto
          -14 -14 10 25 hvcurveto
          259 vlineto
          98 -57 57 -122 vhcurveto
          58 -335 rmoveto
          -62 -22 -53 -57 -41 -18 23 36 68 68 18 70 vhcurveto
          endchar
        </CharString>
        <CharString name="aacute">
          -129 -12 100 145 87 120 98 53 132 hstemhm
          14 123 -98 118 118 121 hintmask 11111010
          217 538 rmoveto
          hintmask 11110110
          -108 -70 -58 -88 -9 0 -7 1 -6 hvcurveto
          117 15 hlineto
          25 14 30 49 46 9 -29 -36 vhcurveto
          -55 vlineto
          hintmask 11111010
          -153 -108 -42 -142 -122 83 -26 49 70 33 27 42 30 hvcurveto
          5 hlineto
          -41 12 33 -28 48 hhcurveto
          36 22 9 7 13 hvcurveto
          85 -24 vlineto
          -14 -14 10 25 hvcurveto
          259 vlineto
          98 -57 57 -122 vhcurveto
          58 -335 rmoveto
          -62 -22 -53 -57 -41 -18 23 36 68 68 18 70 vhcurveto
          79 490 rmoveto
          -120 hlineto
          -86 -132 rlineto
          99 hlineto
          108 129 rlineto
          endchar
        </CharString>
        <CharString name="abreve">
          -129 -12 100 145 87 120 98 78 74 -74 107 hstemhm
          14 123 -98 118 118 121 hintmask 11101101
          217 538 rmoveto
          hintmask 11101011
          -108 -70 -58 -88 -9 0 -7 1 -6 hvcurveto
          117 15 hlineto
          25 14 30 49 46 9 -29 -36 vhcurveto
          -55 vlineto
          hintmask 11101101
          -153 -108 -42 -142 -122 83 -26 49 70 33 27 42 30 hvcurveto
          5 hlineto
          -41 12 33 -28 48 hhcurveto
          36 22 9 7 13 hvcurveto
          85 -24 vlineto
          -14 -14 10 25 hvcurveto
          259 vlineto
          98 -57 57 -122 vhcurveto
          58 -335 rmoveto
          -62 -22 -53 -57 -41 -18 23 36 68 68 18 70 vhcurveto
          1 490 rmoveto
          hintmask 11110101
          -14 -2 -24 -19 -34 hhcurveto
          -16 -14 5 6 -10 hvcurveto
          hintmask 11101101
          -10 7 -6 8 -2 7 rrcurveto
          -75 hlineto
          -50 51 -57 82 83 52 57 50 vhcurveto
          endchar
        </CharString>
        <CharString name="acircumflex">
          -129 -12 100 145 87 120 98 50 135 -66 66 hstemhm
          14 123 -98 118 118 121 hintmask 11110101
          217 538 rmoveto
          hintmask 11110011
          -108 -70 -58 -88 -9 0 -7 1 -6 hvcurveto
          117 15 hlineto
          25 14 30 49 46 9 -29 -36 vhcurveto
          -55 vlineto
          hintmask 11110101
          -153 -108 -42 -142 -122 83 -26 49 70 33 27 42 30 hvcurveto
          5 hlineto
          -41 12 33 -28 48 hhcurveto
          36 22 9 7 13 hvcurveto
          85 -24 vlineto
          -14 -14 10 25 hvcurveto
          259 vlineto
          98 -57 57 -122 vhcurveto
          58 -335 rmoveto
          -62 -22 -53 -57 -41 -18 23 36 68 68 18 70 vhcurveto
          -8 490 rmoveto
          -99 hlineto
          -85 -135 rlineto
          89 hlineto
          hintmask 11101101
          45 69 rlineto
          hintmask 11110101
          45 -69 rlineto
          90 hlineto
          endchar
        </CharString>
        <CharString name="acute">
          -312 591 132 hstem
          48 207 vstem
          254 723 rmoveto
          -120 hlineto
          -86 -132 rlineto
          99 hlineto
          108 129 rlineto
          endchar
        </CharString>
        <CharString name="adieresis">
          -129 -12 100 145 87 120 98 76 109 hstemhm
          14 123 -98 118 -77 100 74 100 -79 121 hintmask 1111001010000000
          217 538 rmoveto
          hintmask 1111010010000000
          -108 -70 -58 -88 -9 0 -7 1 -6 hvcurveto
          117 15 hlineto
          25 14 30 49 46 9 -29 -36 vhcurveto
          -55 vlineto
          hintmask 1111100010000000
          -153 -108 -42 -142 -122 83 -26 49 70 33 27 42 30 hvcurveto
          5 hlineto
          -41 12 33 -28 48 hhcurveto
          36 22 9 7 13 hvcurveto
          85 -24 vlineto
          -14 -14 10 25 hvcurveto
          259 vlineto
          hintmask 1111001010000000
          98 -57 57 -122 vhcurveto
          58 -335 rmoveto
          -62 -22 -53 -57 vhcurveto
          hintmask 1111100010000000
          -41 -18 23 36 68 68 18 70 hvcurveto
          hintmask 1111001100000000
          -95 490 rmoveto
          -100 -109 100 hlineto
          174 109 rmoveto
          -100 -109 100 hlineto
          endchar
        </CharString>
        <CharString name="ae">
          144 -12 98 147 87 120 98 hstemhm
          37 123 -98 118 118 125 141 126 hintmask 11110110
          500 538 rmoveto
          -51 -42 -16 -34 -32 hvcurveto
          32 -30 -45 18 -60 hhcurveto
          hintmask 11101110
          -108 -70 -58 -88 -9 0 -7 1 -6 hvcurveto
          117 15 hlineto
          25 14 30 49 46 9 -29 -36 vhcurveto
          -55 vlineto
          hintmask 11110110
          -153 -108 -42 -142 -122 95 -26 57 73 47 29 42 38 hvcurveto
          -48 34 53 -23 70 hhcurveto
          107 79 63 135 hvcurveto
          -119 hlineto
          -63 -26 -37 -41 -59 -21 53 94 -1 vhcurveto
          267 30 hlineto
          189 -63 86 -127 vhcurveto
          -202 -335 rmoveto
          -62 -22 -53 -57 -41 -18 23 36 68 68 18 70 vhcurveto
          202 207 rmoveto
          44 20 -44 -76 hvcurveto
          -140 hlineto
          76 4 21 44 51 hhcurveto
          endchar
        </CharString>
        <CharString name="aeacute">
          144 -12 98 147 87 120 98 53 132 hstemhm
          37 123 -98 118 118 125 141 126 hintmask 11111011
          500 538 rmoveto
          -51 -42 -16 -34 -32 hvcurveto
          32 -30 -45 18 -60 hhcurveto
          hintmask 11110111
          -108 -70 -58 -88 -9 0 -7 1 -6 hvcurveto
          117 15 hlineto
          25 14 30 49 46 9 -29 -36 vhcurveto
          -55 vlineto
          hintmask 11111011
          -153 -108 -42 -142 -122 95 -26 57 73 47 29 42 38 hvcurveto
          -48 34 53 -23 70 hhcurveto
          107 79 63 135 hvcurveto
          -119 hlineto
          -63 -26 -37 -41 -59 -21 53 94 -1 vhcurveto
          267 30 hlineto
          189 -63 86 -127 vhcurveto
          -202 -335 rmoveto
          -62 -22 -53 -57 -41 -18 23 36 68 68 18 70 vhcurveto
          202 207 rmoveto
          44 20 -44 -76 hvcurveto
          -140 hlineto
          76 4 21 44 51 hhcurveto
          2 283 rmoveto
          -120 hlineto
          -86 -132 rlineto
          99 hlineto
          108 129 rlineto
          endchar
        </CharString>
        <CharString name="afii00208">
          235 223 95 hstem
          102 613 vstem
          715 318 rmoveto
          -613 -95 613 hlineto
          endchar
        </CharString>
        <CharString name="afii61248">
          205 -13 71 246 71 -65 71 246 71 hstemhm
          39 88 95 84 122 88 120 88 hintmask 11011111
          618 698 rmoveto
          -76 hlineto
          -416 -710 rlineto
          77 hlineto
          -26 710 rmoveto
          -92 -46 -61 -133 hvcurveto
          hintmask 10111111
          -133 44 -61 96 78 49 44 104 vhcurveto
          -84 hlineto
          -51 -12 -26 -31 -38 -14 38 72 vhcurveto
          26 vlineto
          72 14 38 36 28 15 -25 -52 vhcurveto
          86 hlineto
          hintmask 11011111
          104 -50 44 -79 vhcurveto
          399 -323 rmoveto
          -99 -49 -61 -133 -133 49 -61 99 99 49 61 133 133 -49 61 -99 hvcurveto
          -71 vmoveto
          44 16 -38 -72 hvcurveto
          -26 vlineto
          -72 -16 -38 -44 -44 -16 38 72 vhcurveto
          26 vlineto
          72 16 38 44 vhcurveto
          endchar
        </CharString>
        <CharString name="afii61289">
          -95 -12 99 564 84 hstem
          108 120 102 89 vstem
          275 735 rmoveto
          -86 -81 -56 -171 hvcurveto
          -245 vlineto
          -19 -16 -18 -14 -16 -12 rrcurveto
          -89 vlineto
          18 12 17 13 18 13 rrcurveto
          -101 53 -81 131 44 34 9 17 34 vhcurveto
          103 vlineto
          -18 -28 -32 -12 -39 hhcurveto
          -42 -35 30 81 hvcurveto
          74 vlineto
          109 104 82 115 91 vvcurveto
          100 -54 53 -90 vhcurveto
          13 -84 rmoveto
          29 13 -25 -43 -63 -45 -73 -57 -66 hvcurveto
          127 vlineto
          107 31 36 29 vhcurveto
          endchar
        </CharString>
        <CharString name="afii61352">
          329 21 -21 180 84 40 80 234 80 -12 -20 hstemhm
          60 113 245 114 57 92 -75 247 -76 92 hintmask 1111011101000000
          777 488 rmoveto
          -67 -15 -37 -33 -32 -16 37 67 vhcurveto
          26 vlineto
          67 16 37 32 33 15 -37 -67 vhcurveto
          92 -13 rmoveto
          136 -49 61 -91 -91 -49 -61 -136 -136 49 -61 91 91 49 61 136 vhcurveto
          hintmask 1110111010000000
          -263 -321 rmoveto
          247 84 -247 hlineto
          -74 -264 rmoveto
          686 -114 -382 vlineto
          -11 1 -46 0 vhcurveto
          -3 -3 rlineto
          0 -20 47 -11 17 vhcurveto
          -212 378 rlineto
          -113 -686 113 382 hlineto
          18 -2 39 0 vhcurveto
          4 3 rlineto
          0 23 -50 8 -14 vhcurveto
          212 -378 rlineto
          endchar
        </CharString>
        <CharString name="agrave">
          -129 -12 100 145 87 120 98 53 132 hstemhm
          14 123 -98 118 118 121 hintmask 11111010
          217 538 rmoveto
          hintmask 11110110
          -108 -70 -58 -88 -9 0 -7 1 -6 hvcurveto
          117 15 hlineto
          25 14 30 49 46 9 -29 -36 vhcurveto
          -55 vlineto
          hintmask 11111010
          -153 -108 -42 -142 -122 83 -26 49 70 33 27 42 30 hvcurveto
          5 hlineto
          -41 12 33 -28 48 hhcurveto
          36 22 9 7 13 hvcurveto
          85 -24 vlineto
          -14 -14 10 25 hvcurveto
          259 vlineto
          98 -57 57 -122 vhcurveto
          58 -335 rmoveto
          -62 -22 -53 -57 -41 -18 23 36 68 68 18 70 vhcurveto
          -75 490 rmoveto
          -120 hlineto
          -1 -3 108 -129 rlineto
          99 hlineto
          endchar
        </CharString>
        <CharString name="amacron">
          -129 -12 100 145 87 120 98 61 87 hstemhm
          14 123 -98 118 -68 256 -70 121 hintmask 11111001
          217 538 rmoveto
          hintmask 11110101
          -108 -70 -58 -88 -9 0 -7 1 -6 hvcurveto
          117 15 hlineto
          25 14 30 49 46 9 -29 -36 vhcurveto
          -55 vlineto
          hintmask 11111001
          -153 -108 -42 -142 -122 83 -26 49 70 33 27 42 30 hvcurveto
          5 hlineto
          -41 12 33 -28 48 hhcurveto
          36 22 9 7 13 hvcurveto
          85 -24 vlineto
          -14 -14 10 25 hvcurveto
          259 vlineto
          98 -57 57 -122 vhcurveto
          58 -335 rmoveto
          -62 -22 -53 -57 -41 -18 23 36 68 68 18 70 vhcurveto
          hintmask 11110010
          70 453 rmoveto
          -256 -87 256 hlineto
          endchar
        </CharString>
        <CharString name="ampersand">
          7 -12 101 209 101 198 101 hstemhm
          36 125 -111 125 -22 161 64 120 hintmask 11110010
          279 698 rmoveto
          hintmask 11101010
          -137 -92 -66 -122 -81 44 -44 59 -29 hvcurveto
          -4 vlineto
          hintmask 11110010
          -67 -22 -50 -55 -91 vvcurveto
          -122 97 -74 136 149 80 81 125 vhcurveto
          104 79 101 -199 -208 vlineto
          -65 -35 -37 -72 -67 -43 32 69 86 54 22 61 vhcurveto
          hintmask 11100110
          38 101 hlineto
          hintmask 11101010
          -41 hlineto
          -57 -41 40 66 57 38 35 64 66 35 -32 -64 hvcurveto
          -19 120 28 vlineto
          hintmask 11110010
          114 -90 74 -129 vhcurveto
          endchar
        </CharString>
        <CharString name="aogonek">
          -129 -186 69 -55 55 -34 -21 160 100 -76 -21 242 87 120 98 hstemhm
          14 123 -98 118 118 121 -76 165 hintmask 0010111101000000
          217 538 rmoveto
          hintmask 0010111011000000
          -108 -70 -58 -88 -9 0 -7 1 -6 hvcurveto
          117 15 hlineto
          25 14 30 49 46 9 -29 -36 vhcurveto
          -55 vlineto
          hintmask 0011011100100000
          -153 -108 -42 -142 -122 83 -26 49 70 33 27 42 30 hvcurveto
          5 hlineto
          hintmask 1000111100100000
          10 -34 23 -24 35 -8 rrcurveto
          -18 -22 -14 -26 -39 vvcurveto
          -69 54 -21 45 vhcurveto
          hintmask 0010111100100000
          22 21 5 9 23 hvcurveto
          hintmask 0100111100100000
          55 -22 vlineto
          -33 -12 25 26 28 19 28 11 14 hvcurveto
          85 vlineto
          hintmask 0010111101000000
          -24 hlineto
          -14 -14 10 25 hvcurveto
          259 vlineto
          98 -57 57 -122 vhcurveto
          58 -335 rmoveto
          hintmask 0011011101000000
          -62 -22 -53 -57 -41 -18 23 36 68 68 18 70 vhcurveto
          endchar
        </CharString>
        <CharString name="approxequal">
          -36 26 120 -59 120 30 120 -59 120 hstemhm
          27 493 hintmask 01101000
          520 430 rmoveto
          0 -59 -73 -84 -38 -33 15 16 -33 vhcurveto
          hintmask 01011000
          15 -33 -33 15 -37 hhcurveto
          -95 -48 -73 0 hvcurveto
          -120 vlineto
          0 59 73 84 38 33 -15 -15 33 vhcurveto
          hintmask 10101000
          -16 33 33 -15 37 hhcurveto
          95 48 73 0 hvcurveto
          -91 vmoveto
          0 -59 -73 -84 -38 -33 15 16 -33 vhcurveto
          hintmask 01011000
          15 -33 -33 15 -37 hhcurveto
          -95 -48 -73 0 hvcurveto
          -120 vlineto
          0 59 73 84 38 33 -15 -15 33 vhcurveto
          hintmask 10011000
          -16 33 33 -15 37 hhcurveto
          95 48 73 0 hvcurveto
          endchar
        </CharString>
        <CharString name="aring">
          -129 -12 100 145 87 120 98 23 50 92 50 hstemhm
          14 123 -98 118 -36 50 92 50 -38 121 hintmask 1110100101000000
          217 538 rmoveto
          hintmask 1110101001000000
          -108 -70 -58 -88 -9 0 -7 1 -6 hvcurveto
          117 15 hlineto
          25 14 30 49 46 9 -29 -36 vhcurveto
          -55 vlineto
          hintmask 1110110001000000
          -153 -108 -42 -142 -122 83 -26 49 70 33 27 42 30 hvcurveto
          5 hlineto
          -41 12 33 -28 48 hhcurveto
          36 22 9 7 13 hvcurveto
          85 -24 vlineto
          -14 -14 10 25 hvcurveto
          259 vlineto
          hintmask 1110100101000000
          98 -57 57 -122 vhcurveto
          58 -335 rmoveto
          -62 -22 -53 -57 vhcurveto
          hintmask 1110110001000000
          -41 -18 23 36 68 68 18 70 hvcurveto
          hintmask 1111100110000000
          -58 520 rmoveto
          -53 -43 -43 -53 -54 44 -42 52 53 43 43 53 52 -42 44 -54 hvcurveto
          -50 vmoveto
          25 21 -20 -26 -26 -21 -20 -25 -26 -20 20 26 26 20 20 26 hvcurveto
          endchar
        </CharString>
        <CharString name="aringacute">
          -85 -12 100 145 87 120 98 23 48 89 49 21 115 hstemhm
          14 123 -98 118 -36 50 92 50 -38 121 hintmask 1110010010100000
          217 538 rmoveto
          hintmask 1110010100100000
          -108 -70 -58 -88 -9 0 -7 1 -6 hvcurveto
          117 15 hlineto
          25 14 30 49 46 9 -29 -36 vhcurveto
          -55 vlineto
          hintmask 1110011000100000
          -153 -108 -42 -142 -122 83 -26 49 70 33 27 42 30 hvcurveto
          5 hlineto
          -41 12 33 -28 48 hhcurveto
          36 22 9 7 13 hvcurveto
          85 -24 vlineto
          -14 -14 10 25 hvcurveto
          259 vlineto
          hintmask 1110010010100000
          98 -57 57 -122 vhcurveto
          58 -335 rmoveto
          -62 -22 -53 -57 vhcurveto
          hintmask 1110011000100000
          -41 -18 23 36 68 68 18 70 hvcurveto
          hintmask 1111110011000000
          -58 514 rmoveto
          -53 -43 -42 -51 -52 44 -41 52 53 43 42 51 50 -42 43 -54 hvcurveto
          -49 vmoveto
          25 21 -19 -25 -26 -21 -19 -25 -26 -20 19 26 25 20 19 26 hvcurveto
          hintmask 1110010010100000
          152 185 rmoveto
          -120 hlineto
          -75 -115 rlineto
          99 hlineto
          97 112 rlineto
          endchar
        </CharString>
        <CharString name="arrowboth">
          415 198 109 hstem
          42 918 vstem
          763 436 rmoveto
          -52 hlineto
          53 -129 rlineto
          -526 hlineto
          53 129 rlineto
          -52 hlineto
          -197 -173 rlineto
          -21 vlineto
          197 -173 rlineto
          52 hlineto
          -53 129 rlineto
          526 hlineto
          -53 -129 rlineto
          52 hlineto
          197 173 rlineto
          21 vlineto
          endchar
        </CharString>
        <CharString name="arrowdown">
          -85 -207 918 hstem
          198 108 vstem
          306 711 rmoveto
          -108 -722 hlineto
          -130 53 rlineto
          -52 vlineto
          173 -197 rlineto
          21 hlineto
          174 197 rlineto
          52 vlineto
          -130 -53 rlineto
          endchar
        </CharString>
        <CharString name="arrowleft">
          415 198 108 hstem
          42 918 vstem
          291 436 rmoveto
          -52 hlineto
          -197 -173 rlineto
          -21 vlineto
          197 -174 rlineto
          52 hlineto
          -53 130 rlineto
          722 108 -722 hlineto
          endchar
        </CharString>
        <CharString name="arrowright">
          415 198 108 hstem
          42 918 vstem
          763 436 rmoveto
          -52 hlineto
          53 -130 rlineto
          -722 -108 722 hlineto
          -53 -130 rlineto
          52 hlineto
          197 173 rlineto
          21 vlineto
          endchar
        </CharString>
        <CharString name="arrowup">
          -85 -207 918 hstem
          197 109 vstem
          262 711 rmoveto
          -21 hlineto
          -173 -197 rlineto
          -52 vlineto
          129 53 rlineto
          -722 109 722 vlineto
          129 -53 rlineto
          52 vlineto
          endchar
        </CharString>
        <CharString name="arrowupdn">
          -85 -207 918 hstem
          195 108 vstem
          260 711 rmoveto
          -21 hlineto
          -174 -197 rlineto
          -52 vlineto
          130 53 rlineto
          -526 vlineto
          -130 53 rlineto
          -52 vlineto
          174 -197 rlineto
          21 hlineto
          173 197 rlineto
          52 vlineto
          -130 -53 rlineto
          526 vlineto
          130 -53 rlineto
          52 vlineto
          endchar
        </CharString>
        <CharString name="arrowupdnbse">
          -85 -233 86 hstem
          195 108 vstem
          260 711 rmoveto
          -21 hlineto
          -174 -197 rlineto
          -52 vlineto
          130 53 rlineto
          -419 vlineto
          -130 53 rlineto
          -52 vlineto
          174 -197 rlineto
          21 hlineto
          173 197 rlineto
          52 vlineto
          -130 -53 rlineto
          419 vlineto
          130 -53 rlineto
          52 vlineto
          -661 vmoveto
          -367 -86 367 hlineto
          endchar
        </CharString>
        <CharString name="asciicircum">
          -106 564 122 0 -20 hstemhm
          32 420 hintmask 01100000
          295 686 rmoveto
          -107 hlineto
          -156 -392 rlineto
          110 hlineto
          hintmask 10100000
          99 270 101 -270 rlineto
          110 hlineto
          endchar
        </CharString>
        <CharString name="asciitilde">
          -106 209 120 -59 120 hstemhm
          27 425 hintmask 10100000
          452 402 rmoveto
          0 -51 -73 -72 vhcurveto
          hintmask 01100000
          -66 -49 61 -64 hhcurveto
          -82 -41 -73 0 hvcurveto
          -120 vlineto
          0 51 73 72 vhcurveto
          hintmask 10100000
          66 49 -61 64 hhcurveto
          82 41 73 0 hvcurveto
          endchar
        </CharString>
        <CharString name="asterisk">
          -266 533 -20 173 -20 hstem
          126 68 vstem
          199 686 rmoveto
          -78 hlineto
          10 -102 -84 59 -39 -66 93 -44 -93 -42 39 -68 84 60 -10 -102 rlineto
          78 hlineto
          -10 102 84 -60 39 68 -93 42 93 44 -39 66 -84 -58 rlineto
          endchar
        </CharString>
        <CharString name="at">
          215 -153 69 106 92 -29 28 131 79 109 89 108 69 hstemhm
          25 73 130 112 -89 107 107 110 128 73 hintmask 1101111101100000
          412 698 rmoveto
          -209 -178 -117 -319 -289 136 -126 219 42 77 11 16 41 hvcurveto
          74 vlineto
          -18 -35 -80 -14 -45 hhcurveto
          -193 -89 116 229 248 120 120 193 172 120 -90 -217 -157 -52 -51 -46 -19 -11 11 27 hvcurveto
          228 vlineto
          89 -52 52 -111 vhcurveto
          hintmask 1101111011100000
          -98 -63 -53 -79 -9 0 -6 1 -5 hvcurveto
          106 13 hlineto
          23 12 27 45 42 8 -26 -33 vhcurveto
          -50 vlineto
          hintmask 1101111101100000
          -139 -98 -38 -129 -110 75 -24 45 hvcurveto
          hintmask 1011111101100000
          63 30 24 39 27 hvcurveto
          5 hlineto
          hintmask 1101111101100000
          -37 15 23 -26 66 hhcurveto
          83 116 72 227 268 -155 109 -209 hvcurveto
          53 -481 rmoveto
          -56 -20 -48 -52 -37 -16 21 32 62 61 16 64 vhcurveto
          endchar
        </CharString>
        <CharString name="atilde">
          -129 -12 100 145 87 120 98 63 85 -48 85 hstemhm
          14 123 -98 118 118 121 hintmask 11110101
          217 538 rmoveto
          hintmask 11110011
          -108 -70 -58 -88 -9 0 -7 1 -6 hvcurveto
          117 15 hlineto
          25 14 30 49 46 9 -29 -36 vhcurveto
          -55 vlineto
          hintmask 11110101
          -153 -108 -42 -142 -122 83 -26 49 70 33 27 42 30 hvcurveto
          5 hlineto
          -41 12 33 -28 48 hhcurveto
          36 22 9 7 13 hvcurveto
          85 -24 vlineto
          -14 -14 10 25 hvcurveto
          259 vlineto
          98 -57 57 -122 vhcurveto
          58 -335 rmoveto
          -62 -22 -53 -57 -41 -18 23 36 68 68 18 70 vhcurveto
          hintmask 11101101
          44 490 rmoveto
          hintmask 11110101
          -28 -4 -14 -9 -21 hhcurveto
          -22 -21 9 10 -22 hvcurveto
          hintmask 11101101
          9 -21 -22 9 -25 hhcurveto
          -35 -24 -17 -23 -16 hvcurveto
          hintmask 11110101
          -16 -24 -7 -30 -28 vvcurveto
          66 hlineto
          hintmask 11101101
          27 4 14 10 21 hhcurveto
          hintmask 11110101
          45 39 -37 48 hhcurveto
          hintmask 11101101
          71 28 67 55 hvcurveto
          endchar
        </CharString>
        <CharString name="b">
          -84 -12 109 -97 97 -32 32 332 109 185 -20 hstemhm
          55 120 160 125 hintmask 00111110
          172 65 rmoveto
          hintmask 10011110
          -51 26 43 -26 50 hhcurveto
          104 65 85 191 191 -70 83 -93 -53 -45 -24 -42 -19 hvcurveto
          -5 251 -120 hlineto
          hintmask 01011110
          -723 100 vlineto
          hintmask 00111110
          12 65 rlineto
          hintmask 10011110
          8 215 rmoveto
          95 22 54 58 58 22 -52 -95 vhcurveto
          -38 vlineto
          -95 -22 -52 -58 -58 -22 52 95 vhcurveto
          endchar
        </CharString>
        <CharString name="backslash">
          -357 -49 784 hstem
          1 227 vstem
          86 735 rmoveto
          -85 hlineto
          141 -784 rlineto
          86 hlineto
          endchar
        </CharString>
        <CharString name="bar">
          -355 -152 -21 896 -20 hstem
          70 90 vstem
          160 723 rmoveto
          -90 -896 90 hlineto
          endchar
        </CharString>
        <CharString name="braceleft">
          -266 -159 77 324 41 10 41 324 77 hstemhm
          24 80 -3 118 hintmask 10110100
          298 735 rmoveto
          -103 -94 -22 -126 hvcurveto
          -193 vlineto
          -45 -41 -15 -36 vhcurveto
          hintmask 11111000
          -92 vlineto
          hintmask 11110100
          36 41 -15 -45 hvcurveto
          -193 vlineto
          -126 94 -22 103 vhcurveto
          77 vlineto
          -36 -43 10 51 66 -5 63 -2 67 hvcurveto
          hintmask 11111000
          68 -3 -27 40 -78 hhcurveto
          10 vlineto
          hintmask 10110100
          78 28 40 68 2 hvcurveto
          2 67 5 63 66 vvcurveto
          51 44 10 35 vhcurveto
          endchar
        </CharString>
        <CharString name="braceright">
          -266 -159 77 324 41 10 41 324 77 hstemhm
          100 118 -3 80 hintmask 10111000
          21 658 rmoveto
          35 44 -10 -51 -66 5 -63 2 -67 hvcurveto
          -68 2 28 -40 78 hhcurveto
          -10 vlineto
          hintmask 11111000
          -78 -27 -40 -68 -3 hvcurveto
          -2 -67 -5 -63 -66 vvcurveto
          -51 -43 -10 -36 vhcurveto
          -77 vlineto
          103 94 22 126 hvcurveto
          193 vlineto
          45 41 15 36 vhcurveto
          hintmask 10110100
          92 vlineto
          hintmask 10111000
          -36 -41 15 45 hvcurveto
          193 vlineto
          126 -94 22 -103 vhcurveto
          endchar
        </CharString>
        <CharString name="bracketleft">
          -312 -161 95 706 95 hstem
          49 116 vstem
          248 735 rmoveto
          -199 -896 199 95 -83 706 83 hlineto
          endchar
        </CharString>
        <CharString name="bracketright">
          -312 -161 95 706 95 hstem
          108 116 vstem
          224 735 rmoveto
          -199 -95 83 -706 -83 -95 199 hlineto
          endchar
        </CharString>
        <CharString name="breve">
          -312 616 74 -74 107 hstemhm
          1 267 hintmask 01100000
          194 723 rmoveto
          hintmask 10100000
          -14 -2 -24 -19 -34 hhcurveto
          -16 -14 5 6 -11 hvcurveto
          hintmask 01100000
          -10 7 -6 8 -2 7 rrcurveto
          -74 hlineto
          -50 51 -57 82 83 51 57 50 vhcurveto
          endchar
        </CharString>
        <CharString name="brokenbar">
          -355 -152 -21 896 -20 hstem
          70 90 vstem
          160 723 rmoveto
          -90 -372 90 hlineto
          -152 vmoveto
          -90 -372 90 hlineto
          endchar
        </CharString>
        <CharString name="bullet">
          -298 220 247 hstem
          23 241 vstem
          143 467 rmoveto
          -67 -53 -56 -67 -67 53 -57 67 67 54 57 67 67 -54 56 -67 hvcurveto
          endchar
        </CharString>
        <CharString name="c">
          -129 -12 101 348 101 hstem
          41 125 135 119 vstem
          236 538 rmoveto
          -130 -65 -86 -189 -189 62 -86 137 110 70 63 147 hvcurveto
          -119 hlineto
          -72 -18 -37 -43 -54 -20 54 101 vhcurveto
          38 vlineto
          101 19 54 51 41 20 -35 -74 vhcurveto
          123 hlineto
          147 -72 63 -112 vhcurveto
          endchar
        </CharString>
        <CharString name="cacute">
          -129 -12 101 348 101 53 132 hstem
          41 125 135 119 vstem
          236 538 rmoveto
          -130 -65 -86 -189 -189 62 -86 137 110 70 63 147 hvcurveto
          -119 hlineto
          -72 -18 -37 -43 -54 -20 54 101 vhcurveto
          38 vlineto
          101 19 54 51 41 20 -35 -74 vhcurveto
          123 hlineto
          147 -72 63 -112 vhcurveto
          139 185 rmoveto
          -121 hlineto
          -86 -132 rlineto
          100 hlineto
          107 129 rlineto
          endchar
        </CharString>
        <CharString name="caron">
          -312 588 135 hstem
          0 269 vstem
          269 723 rmoveto
          -90 hlineto
          -44 -69 -45 69 rlineto
          -90 hlineto
          86 -135 rlineto
          98 hlineto
          endchar
        </CharString>
        <CharString name="ccaron">
          -129 -12 101 348 101 50 135 hstem
          41 125 135 119 vstem
          236 538 rmoveto
          -130 -65 -86 -189 -189 62 -86 137 110 70 63 147 hvcurveto
          -119 hlineto
          -72 -18 -37 -43 -54 -20 54 101 vhcurveto
          38 vlineto
          101 19 54 51 41 20 -35 -74 vhcurveto
          123 hlineto
          147 -72 63 -112 vhcurveto
          136 185 rmoveto
          -90 hlineto
          -44 -69 -45 69 rlineto
          -90 hlineto
          86 -135 rlineto
          98 hlineto
          endchar
        </CharString>
        <CharString name="ccedilla">
          -129 -182 57 -28 -21 97 44 43 -21 24 -21 445 101 hstemhm
          41 125 25 70 -8 86 -42 123 hintmask 1000111001000000
          236 538 rmoveto
          -130 -65 -86 -189 -167 48 -87 106 -17 hvcurveto
          hintmask 1010111101000000
          -8 -69 rlineto
          hintmask 1010111010000000
          32 hlineto
          26 8 -8 -16 -19 -14 -5 -22 hvcurveto
          -71 hlineto
          hintmask 0100111001000000
          -49 vlineto
          hintmask 1010111010000000
          -5 24 32 -3 28 hhcurveto
          43 66 14 67 46 -36 19 -43 3 hvcurveto
          hintmask 1001011101000000
          2 22 rlineto
          97 9 61 63 137 vvcurveto
          -119 hlineto
          hintmask 1010111001000000
          -72 -18 -37 -43 -54 -20 54 101 vhcurveto
          38 vlineto
          101 19 54 51 41 20 -35 -74 vhcurveto
          123 hlineto
          hintmask 1000111001000000
          147 -72 63 -112 vhcurveto
          endchar
        </CharString>
        <CharString name="ccircumflex">
          -129 -12 101 348 101 50 135 -66 66 hstemhm
          41 125 135 119 hintmask 11101100
          236 538 rmoveto
          -130 -65 -86 -189 -189 62 -86 137 110 70 63 147 hvcurveto
          -119 hlineto
          -72 -18 -37 -43 -54 -20 54 101 vhcurveto
          38 vlineto
          101 19 54 51 41 20 -35 -74 vhcurveto
          123 hlineto
          147 -72 63 -112 vhcurveto
          51 185 rmoveto
          -98 hlineto
          -86 -135 rlineto
          90 hlineto
          hintmask 11011100
          45 69 rlineto
          hintmask 11101100
          44 -69 rlineto
          90 hlineto
          endchar
        </CharString>
        <CharString name="cdotaccent">
          -129 -12 101 348 101 70 115 hstemhm
          41 125 18 107 10 119 hintmask 11111100
          236 538 rmoveto
          -130 -65 -86 -189 -189 62 -86 137 110 70 63 147 hvcurveto
          -119 hlineto
          -72 -18 -37 -43 -54 -20 54 101 vhcurveto
          38 vlineto
          101 19 54 51 41 20 -35 -74 vhcurveto
          123 hlineto
          147 -72 63 -112 vhcurveto
          hintmask 11101000
          55 185 rmoveto
          -107 -115 107 hlineto
          endchar
        </CharString>
        <CharString name="cedilla">
          -312 -182 57 -28 -21 97 88 hstemhm
          81.5 71 -9.5 86 hintmask 10110000
          155 11 rmoveto
          -68 hlineto
          -11 -88 rlineto
          hintmask 10101000
          33 hlineto
          26 8 -8 -16 -19 -14 -5 -22 hvcurveto
          -71 hlineto
          hintmask 01101000
          -49 vlineto
          hintmask 10101000
          -5 24 32 -3 28 hhcurveto
          43 66 14 67 46 -36 19 -43 3 hvcurveto
          endchar
        </CharString>
        <CharString name="cent">
          -129 723 -20 hstem
          41 113 53 55 51 107 vstem
          262 723 rmoveto
          -55 -107 hlineto
          -111 -12 -55 -87 -174 vvcurveto
          -173 52 -87 114 -13 vhcurveto
          -119 55 118 vlineto
          97 8 61 64 137 vvcurveto
          -107 hlineto
          -63 -16 -37 -35 -10 vhcurveto
          348 vlineto
          31 -11 16 -36 -61 vvcurveto
          111 hlineto
          135 -61 64 -97 10 vhcurveto
          -55 -445 rmoveto
          -37 17 -16 52 83 vvcurveto
          38 vlineto
          84 15 53 38 16 vhcurveto
          endchar
        </CharString>
        <CharString name="circumflex">
          -312 588 135 -66 66 hstemhm
          0 269 hintmask 10100000
          184 723 rmoveto
          -98 hlineto
          -86 -135 rlineto
          90 hlineto
          hintmask 01100000
          45 69 rlineto
          hintmask 10100000
          44 -69 rlineto
          90 hlineto
          endchar
        </CharString>
        <CharString name="colon">
          -312 0 137 252 137 hstem
          55 138 vstem
          193 137 rmoveto
          -138 -137 138 hlineto
          526 vmoveto
          -138 -137 138 hlineto
          endchar
        </CharString>
        <CharString name="comma">
          -357 0 137 hstem
          45 138 vstem
          183 137 rmoveto
          -138 -137 55 hlineto
          -55 -156 rlineto
          72 hlineto
          66 168 rlineto
          endchar
        </CharString>
        <CharString name="commaaccent">
          -312 -178 123 hstem
          73 124 vstem
          197 -55 rmoveto
          -124 -123 49 hlineto
          -36 -85 rlineto
          65 hlineto
          46 96 rlineto
          endchar
        </CharString>
        <CharString name="copyright">
          19 -12 55 91 75 269 75 90 55 hstem
          16 56 71 88 138 84 79 56 vstem
          302 698 rmoveto
          -178 -108 -139 -216 -216 108 -139 178 178 108 139 216 216 -108 139 -178 hvcurveto
          2 -145 rmoveto
          -101 -60 -67 -143 -143 60 -66 101 86 63 51 106 hvcurveto
          -84 hlineto
          -56 -25 -26 -37 -51 -25 45 75 vhcurveto
          29 vlineto
          75 24 45 49 37 25 -27 -56 vhcurveto
          87 hlineto
          110 -64 48 -85 vhcurveto
          -2 90 rmoveto
          143 87 -117 -183 -183 -87 -117 -143 -143 -87 117 183 183 87 117 143 hvcurveto
          endchar
        </CharString>
        <CharString name="currency">
          -129 108 90 289 90 hstem
          22 84 243 85 vstem
          228 577 rmoveto
          -48 -43 -19 -30 -35 hvcurveto
          -42 42 -60 -62 49 -50 rlineto
          -18 -35 -9 -39 -42 vvcurveto
          -43 10 -41 18 -34 vhcurveto
          -50 -50 61 -61 42 42 rlineto
          -29 35 43 -18 47 hhcurveto
          46 43 18 29 35 hvcurveto
          42 -42 61 61 -50 49 rlineto
          18 35 11 40 44 vvcurveto
          43 -10 39 -18 35 vhcurveto
          49 49 -60 62 -42 -42 rlineto
          30 -35 -44 19 -46 hhcurveto
          -90 vmoveto
          66 55 -64 -81 -80 -55 -64 -66 -67 -55 64 80 81 55 64 67 hvcurveto
          endchar
        </CharString>
        <CharString name="d">
          -84 -12 109 -97 97 332 43 -43 109 185 -20 hstemhm
          41 125 160 120 hintmask 10011110
          446 723 rmoveto
          -120 hlineto
          hintmask 10101110
          -251 -5 vlineto
          hintmask 10011110
          42 -19 -45 24 -53 hhcurveto
          -93 -70 -83 -191 -191 65 -85 104 50 43 26 51 26 hvcurveto
          5 hlineto
          hintmask 01011110
          12 -65 rlineto
          100 hlineto
          -200 429 rmoveto
          58 22 -54 -95 hvcurveto
          -36 vlineto
          hintmask 10011110
          -95 -22 -52 -58 -58 -22 52 95 vhcurveto
          38 vlineto
          hintmask 01011110
          95 22 52 58 vhcurveto
          endchar
        </CharString>
        <CharString name="dagger">
          -129 -152 -21 859 -20 hstem
          180 94 vstem
          281 686 rmoveto
          -108 hlineto
          17 -183 -165 17 rlineto
          -113 vlineto
          165 18 -20 -598 rlineto
          114 hlineto
          -20 598 166 -18 rlineto
          113 vlineto
          -166 -17 rlineto
          endchar
        </CharString>
        <CharString name="daggerdbl">
          -129 -152 -21 190 -21 690 -20 hstem
          25 405 vstem
          281 686 rmoveto
          -108 hlineto
          17 -183 -165 17 rlineto
          -113 vlineto
          165 18 -20 -165 20 -169 -165 18 rlineto
          -113 vlineto
          165 17 -17 -186 rlineto
          108 hlineto
          -17 186 166 -17 rlineto
          113 vlineto
          -166 -18 20 169 -20 165 166 -18 rlineto
          113 vlineto
          -166 -17 rlineto
          endchar
        </CharString>
        <CharString name="dcaron">
          4 -12 109 -97 97 332 43 -43 109 11 137 -137 174 hstemhm
          41 125 160 120 31 138 hintmask 1010011110000000
          446 723 rmoveto
          -120 -251 -5 hlineto
          hintmask 1001101110000000
          42 -19 -45 24 -53 hhcurveto
          -93 -70 -83 -191 -191 65 -85 104 50 43 26 51 26 hvcurveto
          5 hlineto
          hintmask 0101101110000000
          12 -65 rlineto
          100 hlineto
          -200 429 rmoveto
          58 22 -54 -95 hvcurveto
          -36 vlineto
          hintmask 1010101110000000
          -95 -22 -52 -58 -58 -22 52 95 vhcurveto
          38 vlineto
          hintmask 0101101110000000
          95 22 52 58 vhcurveto
          hintmask 1010101110000000
          369 257 rmoveto
          -138 -137 55 hlineto
          -55 -156 rlineto
          72 hlineto
          66 168 rlineto
          endchar
        </CharString>
        <CharString name="dcroat">
          -81 -12 109 -97 97 332 43 -43 109 45 87 -87 140 hstemhm
          41 125 160 120 hintmask 10011011
          500 670 rmoveto
          -54 hlineto
          hintmask 10010111
          53 -120 vlineto
          hintmask 10011011
          -53 -132 vlineto
          hintmask 10100111
          -87 132 -111 -5 vlineto
          hintmask 10010111
          42 -19 -45 24 -53 hhcurveto
          -93 -70 -83 -191 -191 65 -85 104 50 43 26 51 26 hvcurveto
          5 hlineto
          hintmask 01010111
          12 -65 rlineto
          100 583 54 hlineto
          -254 -154 rmoveto
          58 22 -54 -95 hvcurveto
          -36 vlineto
          hintmask 10010111
          -95 -22 -52 -58 -58 -22 52 95 vhcurveto
          38 vlineto
          hintmask 01010111
          95 22 52 58 vhcurveto
          endchar
        </CharString>
        <CharString name="degree">
          -185 414 68 147 69 hstem
          56 68 147 69 vstem
          198 698 rmoveto
          -79 -63 -63 -79 -79 63 -63 79 79 63 63 79 79 -63 63 -79 hvcurveto
          -69 vmoveto
          41 32 -32 -41 -41 -32 -33 -41 -41 -33 33 41 41 33 32 41 hvcurveto
          endchar
        </CharString>
        <CharString name="dieresis">
          -312 614 109 hstem
          -1 100 75 100 vstem
          274 723 rmoveto
          -100 -109 100 hlineto
          -175 109 rmoveto
          -100 -109 100 hlineto
          endchar
        </CharString>
        <CharString name="divide">
          -36 41 110 52 104 52 111 hstem
          222 104 vstem
          515 307 rmoveto
          -482 -104 482 hlineto
          -189 -52 rmoveto
          -104 -110 104 hlineto
          429 vmoveto
          -104 -111 104 hlineto
          endchar
        </CharString>
        <CharString name="dollar">
          -129 452 165 106 -20 hstemhm
          33 111 -103 110 47 55 43 111 -97 110 hintmask 11011000
          253 723 rmoveto
          -55 -107 hlineto
          -90 -9 -67 -53 -96 vvcurveto
          -108 83 -25 74 -21 vhcurveto
          -143 vlineto
          hintmask 11101010
          -29 9 -25 24 46 vvcurveto
          7 -110 vlineto
          0 -1 -7 -5 -93 60 -64 105 -9 hvcurveto
          -118 55 118 vlineto
          97 7 70 45 117 vvcurveto
          115 -91 24 -76 20 vhcurveto
          129 vlineto
          hintmask 11011100
          26 -10 17 -24 -40 vvcurveto
          110 hlineto
          1 1 11 11 vvcurveto
          82 -66 52 -88 8 vhcurveto
          -331 vmoveto
          hintmask 11011010
          33 -13 24 -17 -33 vvcurveto
          -38 -28 -19 -29 -7 vhcurveto
          -55 255 rmoveto
          -28 11 -19 15 28 vvcurveto
          28 19 21 28 9 vhcurveto
          endchar
        </CharString>
        <CharString name="dotaccent">
          -312 608 115 hstem
          83 107 vstem
          190 723 rmoveto
          -107 -115 107 hlineto
          endchar
        </CharString>
        <CharString name="dotlessi">
          -357 21 -21 526 -20 hstem
          54 120 vstem
          174 526 rmoveto
          -120 -526 120 hlineto
          endchar
        </CharString>
        <CharString name="e">
          -129 -12 98 147 87 120 98 hstem
          31 125 141 126 vstem
          233 538 rmoveto
          -130 -72 -86 -189 -189 71 -86 135 107 79 63 135 hvcurveto
          -119 hlineto
          -63 -26 -37 -41 -59 -21 53 94 -1 vhcurveto
          267 30 hlineto
          189 -63 86 -127 vhcurveto
          -98 vmoveto
          44 20 -44 -76 hvcurveto
          -140 hlineto
          76 4 21 44 51 hhcurveto
          endchar
        </CharString>
        <CharString name="eacute">
          -129 -12 98 147 87 120 98 53 132 hstem
          31 125 141 126 vstem
          233 538 rmoveto
          -130 -72 -86 -189 -189 71 -86 135 107 79 63 135 hvcurveto
          -119 hlineto
          -63 -26 -37 -41 -59 -21 53 94 -1 vhcurveto
          267 30 hlineto
          189 -63 86 -127 vhcurveto
          -98 vmoveto
          44 20 -44 -76 hvcurveto
          -140 hlineto
          76 4 21 44 51 hhcurveto
          132 283 rmoveto
          -120 hlineto
          -86 -132 rlineto
          99 hlineto
          108 129 rlineto
          endchar
        </CharString>
        <CharString name="ebreve">
          -129 -12 98 147 87 120 98 78 74 -74 107 hstemhm
          31 125 141 126 hintmask 11101110
          233 538 rmoveto
          -130 -72 -86 -189 -189 71 -86 135 107 79 63 135 hvcurveto
          -119 hlineto
          -63 -26 -37 -41 -59 -21 53 94 -1 vhcurveto
          267 30 hlineto
          189 -63 86 -127 vhcurveto
          -98 vmoveto
          44 20 -44 -76 hvcurveto
          -140 hlineto
          76 4 21 44 51 hhcurveto
          55 283 rmoveto
          hintmask 11110110
          -14 -2 -24 -19 -34 hhcurveto
          -16 -14 5 6 -11 hvcurveto
          hintmask 11101110
          -10 7 -6 8 -2 7 rrcurveto
          -74 hlineto
          -50 51 -57 82 83 51 57 50 vhcurveto
          endchar
        </CharString>
        <CharString name="ecaron">
          -129 -12 98 147 87 120 98 50 135 hstem
          31 125 141 126 vstem
          233 538 rmoveto
          -130 -72 -86 -189 -189 71 -86 135 107 79 63 135 hvcurveto
          -119 hlineto
          -63 -26 -37 -41 -59 -21 53 94 -1 vhcurveto
          267 30 hlineto
          189 -63 86 -127 vhcurveto
          -98 vmoveto
          44 20 -44 -76 hvcurveto
          -140 hlineto
          76 4 21 44 51 hhcurveto
          130 283 rmoveto
          -90 hlineto
          -44 -69 -45 69 rlineto
          -90 hlineto
          86 -135 rlineto
          98 hlineto
          endchar
        </CharString>
        <CharString name="ecircumflex">
          -129 -12 98 147 87 120 98 50 135 -66 66 hstemhm
          31 125 141 126 hintmask 11110110
          233 538 rmoveto
          -130 -72 -86 -189 -189 71 -86 135 107 79 63 135 hvcurveto
          -119 hlineto
          -63 -26 -37 -41 -59 -21 53 94 -1 vhcurveto
          267 30 hlineto
          189 -63 86 -127 vhcurveto
          -98 vmoveto
          44 20 -44 -76 hvcurveto
          -140 hlineto
          76 4 21 44 51 hhcurveto
          45 283 rmoveto
          -98 hlineto
          -86 -135 rlineto
          90 hlineto
          hintmask 11101110
          45 69 rlineto
          hintmask 11110110
          44 -69 rlineto
          90 hlineto
          endchar
        </CharString>
        <CharString name="edieresis">
          -129 -12 98 147 87 120 98 76 109 hstemhm
          31 125 -65 100 75 100 -69 126 hintmask 11111001
          233 538 rmoveto
          -130 -72 -86 -189 -189 71 -86 135 107 79 63 135 hvcurveto
          -119 hlineto
          -63 -26 -37 -41 -59 -21 53 94 -1 vhcurveto
          267 30 hlineto
          189 -63 86 -127 vhcurveto
          -98 vmoveto
          44 20 -44 -76 hvcurveto
          -140 hlineto
          76 4 21 44 51 hhcurveto
          hintmask 11110110
          -42 283 rmoveto
          -100 -109 100 hlineto
          175 109 rmoveto
          -100 -109 100 hlineto
          endchar
        </CharString>
        <CharString name="edotaccent">
          -129 -12 98 147 87 120 98 70 115 hstemhm
          31 125 19 107 15 126 hintmask 11111110
          233 538 rmoveto
          -130 -72 -86 -189 -189 71 -86 135 107 79 63 135 hvcurveto
          -119 hlineto
          -63 -26 -37 -41 -59 -21 53 94 -1 vhcurveto
          267 30 hlineto
          189 -63 86 -127 vhcurveto
          -98 vmoveto
          44 20 -44 -76 hvcurveto
          -140 hlineto
          76 4 21 44 51 hhcurveto
          hintmask 11110100
          49 283 rmoveto
          -107 -115 107 hlineto
          endchar
        </CharString>
        <CharString name="egrave">
          -129 -12 98 147 87 120 98 53 132 hstem
          31 125 141 126 vstem
          233 538 rmoveto
          -130 -72 -86 -189 -189 71 -86 135 107 79 63 135 hvcurveto
          -119 hlineto
          -63 -26 -37 -41 -59 -21 53 94 -1 vhcurveto
          267 30 hlineto
          189 -63 86 -127 vhcurveto
          -98 vmoveto
          44 20 -44 -76 hvcurveto
          -140 hlineto
          76 4 21 44 51 hhcurveto
          -22 283 rmoveto
          -120 hlineto
          -1 -3 108 -129 rlineto
          99 hlineto
          endchar
        </CharString>
        <CharString name="eight">
          -129 -12 100 213 99 198 100 hstemhm
          30 124 -110 122 125 121 -110 124 hintmask 11101100
          228 698 rmoveto
          -122 -62 -86 -105 -65 24 -57 50 -33 hvcurveto
          hintmask 11110010
          -62 -31 -26 -59 -74 vvcurveto
          -110 58 -90 140 140 58 90 110 74 -26 59 -63 31 vhcurveto
          hintmask 11110100
          50 33 25 57 65 vvcurveto
          hintmask 11101100
          105 -62 86 -122 vhcurveto
          hintmask 11110010
          -397 vmoveto
          48 26 -38 -69 -69 -26 -37 -48 -48 -26 37 69 69 26 38 48 hvcurveto
          hintmask 11101100
          297 vmoveto
          40 23 -34 -65 -65 -23 -34 -40 -40 -22 34 65 65 22 34 40 hvcurveto
          endchar
        </CharString>
        <CharString name="ellipsis">
          235 0 137 hstem
          68 138 135 138 135 138 vstem
          752 137 rmoveto
          -138 -137 138 hlineto
          -546 137 rmoveto
          -138 -137 138 hlineto
          273 137 rmoveto
          -138 -137 138 hlineto
          endchar
        </CharString>
        <CharString name="emacron">
          -129 -12 98 147 87 120 98 61 87 hstemhm
          31 125 -55 255 -59 126 hintmask 11111010
          233 538 rmoveto
          -130 -72 -86 -189 -189 71 -86 135 107 79 63 135 hvcurveto
          -119 hlineto
          -63 -26 -37 -41 -59 -21 53 94 -1 vhcurveto
          267 30 hlineto
          189 -63 86 -127 vhcurveto
          -98 vmoveto
          44 20 -44 -76 hvcurveto
          -140 hlineto
          76 4 21 44 51 hhcurveto
          hintmask 11110100
          123 246 rmoveto
          -255 -87 255 hlineto
          endchar
        </CharString>
        <CharString name="emdash">
          235 221 98 hstem
          0 820 vstem
          820 319 rmoveto
          -820 -98 820 hlineto
          endchar
        </CharString>
        <CharString name="endash">
          -129 221 98 hstem
          0 456 vstem
          456 319 rmoveto
          -456 -98 456 hlineto
          endchar
        </CharString>
        <CharString name="eng">
          -84 -182 101 102 -21 429 109 -12 -20 hstemhm
          55 120 151 120 hintmask 11101100
          306 538 rmoveto
          -63 -43 -36 -41 -27 hvcurveto
          -6 hlineto
          hintmask 11011100
          -12 65 rlineto
          -100 -526 120 324 hlineto
          hintmask 11101100
          59 35 46 47 43 26 -25 -68 vhcurveto
          -369 vlineto
          -31 -16 -17 -31 vhcurveto
          -44 -89 hlineto
          -6 21 38 -6 30 hhcurveto
          96 26 71 70 hvcurveto
          410 vlineto
          124 -59 45 -81 vhcurveto
          endchar
        </CharString>
        <CharString name="eogonek">
          -129 -185 69 104 98 147 87 120 98 hstemhm
          31 125 40 165 -64 126 -119 119 hintmask 11111010
          233 538 rmoveto
          -130 -72 -86 -189 -184 67 -86 127 -5 hvcurveto
          hintmask 11111100
          -17 -21 -12 -25 -37 vvcurveto
          -69 54 -21 45 22 21 5 9 23 vhcurveto
          55 -22 vlineto
          -33 -12 25 26 28 18 28 12 14 hvcurveto
          hintmask 11111001
          60 27 39 59 95 vvcurveto
          -119 hlineto
          -63 -26 -37 -41 -59 -21 53 94 -1 vhcurveto
          hintmask 11111010
          267 30 hlineto
          189 -63 86 -127 vhcurveto
          -98 vmoveto
          44 20 -44 -76 hvcurveto
          -140 hlineto
          76 4 21 44 51 hhcurveto
          endchar
        </CharString>
        <CharString name="equal">
          -106 96 103 109 104 hstem
          33 412 vstem
          445 412 rmoveto
          -412 -104 412 hlineto
          -109 vmoveto
          -412 -103 412 hlineto
          endchar
        </CharString>
        <CharString name="equivalence">
          -107 17 103 109 104 109 104 hstem
          33 412 vstem
          445 546 rmoveto
          -412 -104 412 hlineto
          -322 vmoveto
          -412 -103 412 hlineto
          316 vmoveto
          -412 -104 412 hlineto
          endchar
        </CharString>
        <CharString name="estimated">
          15 -12 42 218 42 206 42 hstem
          45 108 298 108 vstem
          302 538 rmoveto
          -160 -97 -116 -159 -159 97 -116 160 104 78 50 80 42 hvcurveto
          -34 21 rlineto
          -67 -34 -68 -42 -88 hhcurveto
          -62 -50 19 34 -37 hvcurveto
          165 406 5 vlineto
          165 -98 120 -159 vhcurveto
          -42 vmoveto
          61 50 -20 -35 38 hvcurveto
          -151 -298 152 vlineto
          34 37 50 20 62 hhcurveto
          endchar
        </CharString>
        <CharString name="eth">
          -84 -12 101 348 101 -4 -20 75.5 71 -71 133.5 -112.5 76.5 -23 59 hstemhm
          41 125 170 125 hintmask 1100100110000000
          132 723 rmoveto
          -2 -4 rlineto
          hintmask 1100001110000000
          13 -13 20 -19 20 -23 rrcurveto
          hintmask 1101000110000000
          -75 -7 rlineto
          hintmask 1010100110000000
          -73 vlineto
          129 11 14 -20 14 -22 10 -19 rlinecurve
          -3 -4 rlineto
          hintmask 1100010110000000
          5 -15 -19 3 -15 hhcurveto
          -112 -70 -94 -181 -189 70 -86 140 140 70 86 189 158 -46 110 -52 76 hvcurveto
          75 7 rlineto
          73 vlineto
          -130 -12 rlineto
          hintmask 1100100110000000
          -19 20 -17 16 -14 12 rrcurveto
          -7 -286 rmoveto
          62 23 -54 -101 hvcurveto
          -38 vlineto
          -101 -23 -54 -62 -62 -23 54 101 vhcurveto
          38 vlineto
          101 23 54 62 vhcurveto
          endchar
        </CharString>
        <CharString name="exclam">
          -312 0 137 549 -20 hstem
          68 138 vstem
          213 686 rmoveto
          -153 hlineto
          35 -489 rlineto
          82 hlineto
          29 -60 rmoveto
          -138 -137 138 hlineto
          endchar
        </CharString>
        <CharString name="exclamdbl">
          -39 0 137 549 -20 hstem
          68 138 135 138 vstem
          486 686 rmoveto
          -153 hlineto
          35 -489 rlineto
          82 hlineto
          -244 -60 rmoveto
          -138 -137 138 hlineto
          273 137 rmoveto
          -138 -137 138 hlineto
          -266 686 rmoveto
          -153 hlineto
          35 -489 rlineto
          82 hlineto
          endchar
        </CharString>
        <CharString name="exclamdown">
          -312 389 137 hstem
          68 138 vstem
          177 329 rmoveto
          -82 hlineto
          -35 -489 rlineto
          153 hlineto
          -7 686 rmoveto
          -138 -137 138 hlineto
          endchar
        </CharString>
        <CharString name="f">
          -312 21 -21 425 101 104 101 hstem
          62 120 vstem
          186 731 rmoveto
          -96 -28 -71 -70 hvcurveto
          -64 -53 -101 53 -425 120 425 91 101 -91 61 vlineto
          28 15 15 27 vhcurveto
          49 89 hlineto
          6 -20 -39 6 -28 hhcurveto
          endchar
        </CharString>
        <CharString name="five">
          -129 -12 100 260 98 128 112 hstemhm
          30 125 -94.5 112.5 136 124 hintmask 11101100
          404 686 rmoveto
          -332 hlineto
          -23 -380 116 -16 rlineto
          33 15 22 25 37 hhcurveto
          40 30 -44 -80 -90 -31 -46 -46 hvcurveto
          hintmask 11110100
          -49 -28 49 76 hvcurveto
          -125 hlineto
          -140 80 -85 122 124 77 85 151 151 -74 71 -93 vhcurveto
          hintmask 11101100
          -48 -30 -18 -16 -20 hvcurveto
          10 162 rlineto
          226 hlineto
          endchar
        </CharString>
        <CharString name="fiveeighths">
          99 -13 68 114 67 36 67 2 68 72 65 -17 -20 102 75 12 -20 hstemhm
          25 83 -64.5 74.5 69 83 147 82 -74 81 62 81 -74 82 hintmask 1110011001110010
          537 169 rmoveto
          25 13 -20 -37 -38 -13 -19 -25 -24 -14 19 38 37 14 20 24 hvcurveto
          hintmask 1101011001101100
          240 vmoveto
          -74 -38 -52 -64 -34 15 -35 24 -21 hvcurveto
          hintmask 1110011001110010
          -32 -20 -15 -34 -41 vvcurveto
          -67 35 -54 85 85 35 54 67 41 -15 35 -32 20 vhcurveto
          hintmask 1110011001110100
          25 20 14 33 36 vvcurveto
          hintmask 1101011001101100
          64 -38 52 -74 vhcurveto
          -68 vmoveto
          21 10 -17 -36 hvcurveto
          hintmask 1110011001101100
          -34 -10 -18 -21 -21 -10 18 34 vhcurveto
          hintmask 1101011001101100
          36 10 17 21 vhcurveto
          hintmask 1110010101110100
          41 357 rmoveto
          -66 hlineto
          -396 -710 rlineto
          67 hlineto
          hintmask 1110101001110010
          69 698 rmoveto
          -202 hlineto
          -13 -229 75 -12 rlineto
          21 8 12 15 20 hhcurveto
          20 15 -25 -43 -49 -16 -25 -23 hvcurveto
          hintmask 1110101010110010
          -26 -14 25 38 hvcurveto
          -83 hlineto
          -81 49 -49 74 74 48 51 90 90 -46 43 -57 vhcurveto
          hintmask 1110011001110010
          -21 -20 -10 -7 -10 hvcurveto
          4 82 rlineto
          132 hlineto
          endchar
        </CharString>
        <CharString name="florin">
          -129 -182 101 467 101 143 101 hstem
          19 428 vstem
          362 731 rmoveto
          -96 -39 -71 -70 -10 hvcurveto
          -14 -103 rlineto
          -73 hlineto
          -14 -101 rlineto
          73 hlineto
          -60 -424 rlineto
          -28 -4 -17 -15 -27 hhcurveto
          -49 hlineto
          -13 -89 rlineto
          -6 19 38 -6 28 hhcurveto
          96 39 71 70 10 hvcurveto
          60 427 rlineto
          91 hlineto
          14 101 rlineto
          -91 hlineto
          14 100 rlineto
          28 4 17 15 27 hhcurveto
          49 hlineto
          13 89 rlineto
          6 -19 -38 6 -28 hhcurveto
          endchar
        </CharString>
        <CharString name="four">
          -129 21 -21 155 101 442 -20 hstem
          255 120 vstem
          181 698 rmoveto
          -40 -152 -61 -168 -72 -127 rrcurveto
          -96 247 -155 120 155 70 101 -70 340 -53 vlineto
          -13 -53 -28 -81 -26 -52 rrcurveto
          -154 -143 vlineto
          38 54 113 210 38 178 rrcurveto
          endchar
        </CharString>
        <CharString name="fraction">
          -448 9 -21 710 -20 hstem
          -166 462 vstem
          296 698 rmoveto
          -66 hlineto
          -396 -710 rlineto
          67 hlineto
          endchar
        </CharString>
        <CharString name="franc">
          -81 21 -21 285 114 -34 112 4 8 83 114 hstemhm
          40 128 100 120 hintmask 11011110
          499 481 rmoveto
          0 -11 8 -19 -47 -22 -45 -44 -12 vhcurveto
          -6 hlineto
          hintmask 10101110
          -14 77 rlineto
          -100 hlineto
          hintmask 11011110
          -78 -100 173 225 114 -353 -686 128 285 100 -285 120 244 vlineto
          hintmask 10101110
          93 46 28 52 vhcurveto
          13 hlineto
          endchar
        </CharString>
        <CharString name="g">
          -84 -182 91 97 111 63 89 180 89 hstemhm
          16 121 -96 121 -108 120 149 120 -69 121 -108 99 hintmask 1111001001000000
          387 614 rmoveto
          -19 -11 -43 -40 -29 vhcurveto
          10 -25 -30 5 -33 hhcurveto
          -126 -68 -71 -108 -62 22 -49 42 -31 hvcurveto
          hintmask 1111010100000000
          -42 -15 -35 -31 -46 vvcurveto
          -36 16 -27 26 -16 vhcurveto
          hintmask 1111100010000000
          -38 -21 -29 -34 -52 vvcurveto
          -72 52 -49 64 vhcurveto
          193 hlineto
          94 76 64 98 84 -54 53 -66 hvcurveto
          hintmask 1111010100000000
          -182 hlineto
          -18 -13 13 18 18 15 14 21 hvcurveto
          50 hlineto
          127 68 71 108 49 -15 42 -27 30 hvcurveto
          hintmask 1111001001000000
          53 16 32 43 75 vvcurveto
          hintmask 1111100010000000
          -161 -608 rmoveto
          27 22 -18 -30 -30 -24 -19 -30 hvcurveto
          -135 hlineto
          -27 -21 19 30 26 21 22 27 hvcurveto
          hintmask 1111001100000000
          63 443 rmoveto
          50 25 -34 -56 -56 -25 -34 -50 -49 -25 34 56 56 25 34 49 hvcurveto
          endchar
        </CharString>
        <CharString name="gbreve">
          -84 -182 91 97 111 63 89 180 89 78 74 -74 107 hstemhm
          16 121 -96 121 -108 120 149 120 -69 121 -108 99 hintmask 1111010010010000
          387 614 rmoveto
          -19 -11 -43 -40 -29 vhcurveto
          10 -25 -30 5 -33 hhcurveto
          -126 -68 -71 -108 -62 22 -49 42 -31 hvcurveto
          hintmask 1111010101000000
          -42 -15 -35 -31 -46 vvcurveto
          -36 16 -27 26 -16 vhcurveto
          hintmask 1111011000100000
          -38 -21 -29 -34 -52 vvcurveto
          -72 52 -49 64 vhcurveto
          193 hlineto
          94 76 64 98 84 -54 53 -66 hvcurveto
          hintmask 1111010101000000
          -182 hlineto
          -18 -13 13 18 18 15 14 21 hvcurveto
          50 hlineto
          127 68 71 108 49 -15 42 -27 30 hvcurveto
          hintmask 1111010010010000
          53 16 32 43 75 vvcurveto
          hintmask 1111011000100000
          -161 -608 rmoveto
          27 22 -18 -30 -30 -24 -19 -30 hvcurveto
          -135 hlineto
          -27 -21 19 30 26 21 22 27 hvcurveto
          hintmask 1111010011000000
          63 443 rmoveto
          50 25 -34 -56 -56 -25 -34 -50 -49 -25 34 56 56 25 34 49 hvcurveto
          62 274 rmoveto
          hintmask 1111100011000000
          -14 -2 -24 -19 -34 hhcurveto
          -16 -14 5 6 -11 hvcurveto
          hintmask 1111010011000000
          -10 7 -6 8 -2 7 rrcurveto
          -74 hlineto
          -50 51 -57 82 83 51 57 50 vhcurveto
          endchar
        </CharString>
        <CharString name="gcircumflex">
          -84 -182 91 97 111 63 89 180 74 -74 89 50 26 -26 135 -66 66 hstemhm
          16 121 -96 121 -108 120 149 120 -69 121 -87 78 hintmask 1111010000100100
          408 614 rmoveto
          -19 2 -69 -74 -3 vhcurveto
          hintmask 1110101000110000
          10 -25 -30 5 -33 hhcurveto
          -126 -68 -71 -108 -62 22 -49 42 -31 hvcurveto
          hintmask 1110101001010000
          -42 -15 -35 -31 -46 vvcurveto
          -36 16 -27 26 -16 vhcurveto
          hintmask 1110101010001000
          -38 -21 -29 -34 -52 vvcurveto
          -72 52 -49 64 vhcurveto
          193 hlineto
          94 76 64 98 84 -54 53 -66 hvcurveto
          hintmask 1110101001010000
          -182 hlineto
          -18 -13 13 18 18 15 14 21 hvcurveto
          50 hlineto
          127 68 71 108 49 -15 42 -27 30 hvcurveto
          hintmask 1110110000100100
          53 16 32 43 75 vvcurveto
          hintmask 1110101010001000
          -161 -608 rmoveto
          27 22 -18 -30 -30 -24 -19 -30 hvcurveto
          -135 hlineto
          -27 -21 19 30 26 21 22 27 hvcurveto
          hintmask 1110101000110000
          63 443 rmoveto
          50 25 -34 -56 -56 -25 -34 -50 -49 -25 34 56 56 25 34 49 hvcurveto
          52 274 rmoveto
          -98 hlineto
          -86 -135 rlineto
          90 hlineto
          hintmask 1110100100110000
          45 69 rlineto
          hintmask 1110101000110000
          44 -69 rlineto
          90 hlineto
          endchar
        </CharString>
        <CharString name="gcommaaccent">
          -84 -182 91 97 111 63 89 180 89 52 123 hstemhm
          16 121 -96 121 -108 120 3 124 22 120 -69 121 -108 99 hintmask 1111100100010000
          387 614 rmoveto
          -19 -11 -43 -40 -29 vhcurveto
          10 -25 -30 5 -33 hhcurveto
          -126 -68 -71 -108 -62 22 -49 42 -31 hvcurveto
          hintmask 1111101001000000
          -42 -15 -35 -31 -46 vvcurveto
          -36 16 -27 26 -16 vhcurveto
          hintmask 1111110000100000
          -38 -21 -29 -34 -52 vvcurveto
          -72 52 -49 64 vhcurveto
          193 hlineto
          94 76 64 98 84 -54 53 -66 hvcurveto
          hintmask 1111101001000000
          -182 hlineto
          -18 -13 13 18 18 15 14 21 hvcurveto
          50 hlineto
          127 68 71 108 49 -15 42 -27 30 hvcurveto
          hintmask 1111100100010000
          53 16 32 43 75 vvcurveto
          hintmask 1111110000100000
          -161 -608 rmoveto
          27 22 -18 -30 -30 -24 -19 -30 hvcurveto
          -135 hlineto
          -27 -21 19 30 26 21 22 27 hvcurveto
          hintmask 1111100101000000
          63 443 rmoveto
          50 25 -34 -56 -56 -25 -34 -50 -49 -25 34 56 56 25 34 49 hvcurveto
          40 349 rmoveto
          hintmask 1111100011000000
          -65 hlineto
          -46 -96 rlineto
          -112 124 123 -49 vlineto
          endchar
        </CharString>
        <CharString name="gdotaccent">
          -84 -182 91 97 111 63 89 180 89 70 115 hstemhm
          16 121 -96 121 -108 120 23 107 19 120 -69 121 -108 99 hintmask 1111100100010000
          387 614 rmoveto
          -19 -11 -43 -40 -29 vhcurveto
          10 -25 -30 5 -33 hhcurveto
          -126 -68 -71 -108 -62 22 -49 42 -31 hvcurveto
          hintmask 1111101001000000
          -42 -15 -35 -31 -46 vvcurveto
          -36 16 -27 26 -16 vhcurveto
          hintmask 1111110000100000
          -38 -21 -29 -34 -52 vvcurveto
          -72 52 -49 64 vhcurveto
          193 hlineto
          94 76 64 98 84 -54 53 -66 hvcurveto
          hintmask 1111101001000000
          -182 hlineto
          -18 -13 13 18 18 15 14 21 hvcurveto
          50 hlineto
          127 68 71 108 49 -15 42 -27 30 hvcurveto
          hintmask 1111100100010000
          53 16 32 43 75 vvcurveto
          hintmask 1111110000100000
          -161 -608 rmoveto
          27 22 -18 -30 -30 -24 -19 -30 hvcurveto
          -135 hlineto
          -27 -21 19 30 26 21 22 27 hvcurveto
          hintmask 1111100101000000
          63 443 rmoveto
          50 25 -34 -56 -56 -25 -34 -50 -49 -25 34 56 56 25 34 49 hvcurveto
          hintmask 1111100111000000
          56 274 rmoveto
          -107 -115 107 hlineto
          endchar
        </CharString>
        <CharString name="germandbls">
          -84 0 102 222 113 197 101 hstemhm
          40 120 48 149 -26 121 -100 121 hintmask 11110100
          254 735 rmoveto
          -120 -94 -62 -153 hvcurveto
          -520 120 528 vlineto
          68 36 38 53 54 28 -37 -52 -59 -33 -49 -41 vhcurveto
          hintmask 11111000
          -49 -113 hlineto
          hintmask 11110010
          52 hlineto
          51 41 -49 -60 -61 -41 -52 -51 hvcurveto
          -52 -102 65 hlineto
          112 88 85 129 77 -48 75 -68 25 hvcurveto
          4 vlineto
          hintmask 11110100
          56 22 39 65 66 vvcurveto
          117 -84 70 -114 vhcurveto
          endchar
        </CharString>
        <CharString name="grave">
          -312 591 132 hstem
          21 207 vstem
          142 723 rmoveto
          -120 hlineto
          -1 -3 108 -129 rlineto
          99 hlineto
          endchar
        </CharString>
        <CharString name="greater">
          -106 12 -21 540 -20 hstem
          34 412 vstem
          34 531 rmoveto
          -118 vlineto
          311 -152 -311 -152 rlineto
          -118 vlineto
          412 206 rlineto
          127 vlineto
          endchar
        </CharString>
        <CharString name="greaterequal">
          -36 0 103 hstem
          69 412 vstem
          69 684 rmoveto
          -118 vlineto
          311 -152 -311 -152 rlineto
          -118 vlineto
          412 206 rlineto
          127 vlineto
          -374 vmoveto
          -412 -103 412 hlineto
          endchar
        </CharString>
        <CharString name="guillemotleft">
          -129 526 -20 hstem
          19 410 vstem
          429 526 rmoveto
          -91 hlineto
          -136 -200 136 -200 rlineto
          91 hlineto
          -108 200 rlineto
          -75 200 rmoveto
          -91 hlineto
          -136 -200 136 -200 rlineto
          91 hlineto
          -108 200 rlineto
          endchar
        </CharString>
        <CharString name="guillemotright">
          -129 526 -20 hstem
          27 410 vstem
          301 526 rmoveto
          -91 hlineto
          108 -200 -108 -200 rlineto
          91 hlineto
          136 200 rlineto
          -319 200 rmoveto
          -91 hlineto
          108 -200 -108 -200 rlineto
          91 hlineto
          136 200 rlineto
          endchar
        </CharString>
        <CharString name="guilsinglleft">
          -312 526 -20 hstem
          19 227 vstem
          246 526 rmoveto
          -91 hlineto
          -136 -200 136 -200 rlineto
          91 hlineto
          -108 200 rlineto
          endchar
        </CharString>
        <CharString name="guilsinglright">
          -312 526 -20 hstem
          27 227 vstem
          118 526 rmoveto
          -91 hlineto
          108 -200 -108 -200 rlineto
          91 hlineto
          136 200 rlineto
          endchar
        </CharString>
        <CharString name="h">
          -84 21 -21 429 109 185 -20 hstem
          55 120 151 120 vstem
          175 723 rmoveto
          -120 -723 120 324 hlineto
          59 35 46 47 43 26 -25 -68 vhcurveto
          -336 120 369 vlineto
          124 -59 45 -81 -62 -42 -35 -33 -23 vhcurveto
          -4 hlineto
          endchar
        </CharString>
        <CharString name="hbar">
          -84 21 -21 429 109 45 87 -87 140 hstemhm
          55 120 151 120 hintmask 11101100
          306 670 rmoveto
          -131 hlineto
          hintmask 11011100
          53 -120 vlineto
          hintmask 11101100
          -53 -55 vlineto
          hintmask 11011100
          -87 55 -583 120 324 vlineto
          59 35 46 47 43 26 -25 -68 vhcurveto
          -336 120 369 vlineto
          124 -59 45 -81 -62 -42 -35 -33 -23 vhcurveto
          -4 113 131 hlineto
          endchar
        </CharString>
        <CharString name="hcircumflex">
          -84 21 -21 429 109 185 -20 45 135 hstemhm
          55 120 151 120 hintmask 11101100
          175 723 rmoveto
          -120 -723 120 324 hlineto
          59 35 46 47 43 26 -25 -68 vhcurveto
          -336 120 369 vlineto
          124 -59 45 -81 -62 -42 -35 -33 -23 vhcurveto
          -4 hlineto
          hintmask 11111100
          -13 413 rmoveto
          -98 hlineto
          -86 -135 rlineto
          90 hlineto
          45 69 44 -69 rlineto
          90 hlineto
          endchar
        </CharString>
        <CharString name="house">
          15 0 89 hstem
          75 92 266 92 vstem
          300 563 rmoveto
          -225 -253 rlineto
          -310 450 310 vlineto
          -225 118 rmoveto
          133 -151 rlineto
          -188 -266 188 vlineto
          endchar
        </CharString>
        <CharString name="hungarumlaut">
          -312 591 132 hstem
          4 303 vstem
          306 723 rmoveto
          -100 hlineto
          -62 -132 rlineto
          79 hlineto
          84 129 rlineto
          -141 3 rmoveto
          -100 hlineto
          -62 -132 rlineto
          79 hlineto
          84 129 rlineto
          endchar
        </CharString>
        <CharString name="hyphen">
          -312 211 118 hstem
          16 241 vstem
          257 329 rmoveto
          -241 -118 241 hlineto
          endchar
        </CharString>
        <CharString name="i">
          -357 21 -21 526 -20 108 109 hstem
          54 120 vstem
          174 526 rmoveto
          -120 -526 120 hlineto
          723 vmoveto
          -120 -109 120 hlineto
          endchar
        </CharString>
        <CharString name="iacute">
          -357 21 -21 526 -20 85 132 hstem
          54 120 vstem
          174 526 rmoveto
          -120 -526 120 hlineto
          77 723 rmoveto
          -120 hlineto
          -86 -132 rlineto
          100 hlineto
          107 129 rlineto
          endchar
        </CharString>
        <CharString name="ibreve">
          -357 21 -21 526 -20 110 74 -74 107 hstemhm
          54 120 hintmask 11011000
          174 526 rmoveto
          -120 -526 120 hlineto
          723 vmoveto
          hintmask 11101000
          -14 -2 -24 -19 -34 hhcurveto
          -16 -14 5 6 -11 hvcurveto
          hintmask 11011000
          -10 7 -6 8 -2 7 rrcurveto
          -75 hlineto
          -50 52 -57 82 83 51 57 50 vhcurveto
          endchar
        </CharString>
        <CharString name="icircumflex">
          -357 21 -21 526 -20 82 135 -66 66 hstemhm
          54 120 hintmask 11101000
          174 526 rmoveto
          -120 -526 120 hlineto
          -10 723 rmoveto
          -98 hlineto
          -87 -135 rlineto
          91 hlineto
          hintmask 11011000
          45 69 rlineto
          hintmask 11101000
          44 -69 rlineto
          90 hlineto
          endchar
        </CharString>
        <CharString name="idieresis">
          -357 21 -21 526 -20 108 109 hstemhm
          -23 100 -23 120 -22 100 hintmask 11101000
          174 526 rmoveto
          -120 -526 120 hlineto
          hintmask 11110100
          -97 723 rmoveto
          -100 -109 100 hlineto
          175 109 rmoveto
          -100 -109 100 hlineto
          endchar
        </CharString>
        <CharString name="igrave">
          -357 21 -21 526 -20 85 132 hstem
          54 120 vstem
          174 526 rmoveto
          -120 -526 120 hlineto
          -77 723 rmoveto
          -120 hlineto
          -1 -3 108 -129 rlineto
          99 hlineto
          endchar
        </CharString>
        <CharString name="ij">
          -129 -182 101 102 -21 526 -20 108 109 hstem
          54 120 108 120 vstem
          402 526 rmoveto
          -120 -559 hlineto
          -31 -16 -17 -31 vhcurveto
          -44 -89 hlineto
          -6 21 38 -6 30 hhcurveto
          96 26 71 70 hvcurveto
          -228 567 rmoveto
          -120 -526 120 hlineto
          723 vmoveto
          -120 -109 120 hlineto
          228 109 rmoveto
          -120 -109 120 hlineto
          endchar
        </CharString>
        <CharString name="imacron">
          -357 21 -21 526 -20 93 87 hstem
          54 120 vstem
          174 526 rmoveto
          -120 -526 120 hlineto
          68 686 rmoveto
          -256 -87 256 hlineto
          endchar
        </CharString>
        <CharString name="infinity">
          128 138 83 154 82 hstem
          47 94 429 94 vstem
          512 457 rmoveto
          -78 -42 -58 -32 -30 hvcurveto
          59 -43 -48 31 -67 hhcurveto
          -89 -68 -65 -96 -97 71 -61 78 68 45 38 56 45 hvcurveto
          -83 58 59 -11 41 hhcurveto
          78 74 60 104 97 -70 58 -82 hvcurveto
          -306 -82 rmoveto
          48 22 -32 -45 30 hvcurveto
          3 -5 rlineto
          -35 -24 -34 -37 -42 hhcurveto
          -39 -29 35 41 51 30 27 35 hvcurveto
          297 hmoveto
          41 26 -34 -45 -32 -22 -43 -40 -33 -25 12 65 -47 hvcurveto
          3 4 rlineto
          38 30 27 35 40 hhcurveto
          endchar
        </CharString>
        <CharString name="integral">
          -311 -141 70 79 -21 803 69 hstem
          71 139 vstem
          259 859 rmoveto
          -101 -87 -18 -94 -150 27 -610 0 hvcurveto
          -44 -32 -14 -43 vhcurveto
          -70 vlineto
          101 86 17 95 149 -28 613 0 hvcurveto
          43 34 14 43 vhcurveto
          endchar
        </CharString>
        <CharString name="integralbt">
          19 -250 69 hstem
          254 111 vstem
          237 859 rmoveto
          8 -471 9 -512 0 vvcurveto
          -43 -34 -14 -43 vhcurveto
          -69 vlineto
          101 87 18 94 80 -7 477 -7 440 hvcurveto
          endchar
        </CharString>
        <CharString name="integraltp">
          19 790 69 hstem
          239 111 vstem
          427 859 rmoveto
          -101 -87 -18 -94 -80 7 -477 7 -440 hvcurveto
          114 hlineto
          -8 471 -9 512 0 vvcurveto
          43 34 14 43 vhcurveto
          endchar
        </CharString>
        <CharString name="intersection">
          137 21 -21 579 107 hstem
          79 120 322 119 vstem
          359 686 rmoveto
          -155 -125 -118 -158 hvcurveto
          -410 120 410 vlineto
          100 72 69 89 89 72 -69 -100 vhcurveto
          -410 120 vlineto
          -2 410 rlineto
          158 -1 -123 118 -156 hhcurveto
          endchar
        </CharString>
        <CharString name="iogonek">
          -357 -190 69 -55 55 -34 -21 197 -21 526 -20 102 115 hstemhm
          46 165 -157 120 -113 107 hintmask 0011110100000000
          174 526 rmoveto
          -120 -526 hlineto
          hintmask 1001111000000000
          36 hlineto
          -24 -25 -20 -28 -47 vvcurveto
          -69 53 -21 46 vhcurveto
          hintmask 0011111000000000
          22 21 5 9 23 hvcurveto
          hintmask 0101111000000000
          55 vlineto
          hintmask 0101110100000000
          -22 hlineto
          -33 -12 25 26 28 18 28 12 14 hvcurveto
          hintmask 0011110010000000
          -6 723 rmoveto
          -107 -115 107 hlineto
          endchar
        </CharString>
        <CharString name="itilde">
          -357 21 -21 526 -20 95 85 -48 85 hstemhm
          54 120 hintmask 11101000
          174 526 rmoveto
          -120 -526 120 hlineto
          hintmask 11011000
          42 723 rmoveto
          hintmask 11101000
          -28 -4 -13 -9 -21 hhcurveto
          -23 -21 9 10 -21 hvcurveto
          hintmask 11011000
          9 -22 -22 9 -25 hhcurveto
          -35 -24 -17 -23 -16 hvcurveto
          hintmask 11101000
          -16 -24 -7 -30 -28 vvcurveto
          67 hlineto
          hintmask 11011000
          27 4 13 10 22 hhcurveto
          hintmask 11101000
          45 39 -37 48 hhcurveto
          hintmask 11011000
          70 29 67 55 hvcurveto
          endchar
        </CharString>
        <CharString name="j">
          -357 -182 101 607 -20 108 109 hstem
          54 120 vstem
          174 526 rmoveto
          -120 -559 hlineto
          -31 -16 -17 -31 vhcurveto
          -44 -89 hlineto
          -6 21 38 -6 30 hhcurveto
          96 26 71 70 hvcurveto
          764 vmoveto
          -120 -109 120 hlineto
          endchar
        </CharString>
        <CharString name="jcircumflex">
          -357 -182 101 607 -20 82 135 -66 66 hstemhm
          54 120 hintmask 11101000
          174 526 rmoveto
          -120 -559 hlineto
          -31 -16 -17 -31 vhcurveto
          -44 -89 hlineto
          -6 21 38 -6 30 hhcurveto
          96 26 71 70 hvcurveto
          -8 764 rmoveto
          -99 hlineto
          -86 -135 rlineto
          90 hlineto
          hintmask 11011000
          45 69 rlineto
          hintmask 11101000
          45 -69 rlineto
          89 hlineto
          endchar
        </CharString>
        <CharString name="k">
          -129 21 -21 526 -20 217 -20 hstem
          54 120 vstem
          174 723 rmoveto
          -120 -723 120 164 hlineto
          44 54 106 -218 rlineto
          133 hlineto
          -164 312 156 214 rlineto
          -128 hlineto
          -147 -209 rlineto
          endchar
        </CharString>
        <CharString name="kcommaaccent">
          -129 -178 123 76 -21 526 -20 217 -20 hstemhm
          54 120 -7 123 hintmask 11111000
          174 723 rmoveto
          -120 -723 120 164 hlineto
          44 54 106 -218 rlineto
          133 hlineto
          -164 312 156 214 rlineto
          -128 hlineto
          -147 -209 rlineto
          hintmask 11110100
          116 -372 rmoveto
          -123 -123 48 hlineto
          -35 -85 rlineto
          65 hlineto
          45 96 rlineto
          endchar
        </CharString>
        <CharString name="kgreenlandic">
          -128 21 -21 526 -20 hstem
          54 120 vstem
          449 526 rmoveto
          -128 hlineto
          -147 -209 rlineto
          209 -120 -526 120 164 vlineto
          44 54 106 -218 rlineto
          133 hlineto
          -164 312 rlineto
          endchar
        </CharString>
        <CharString name="l">
          -357 21 -21 723 -20 hstem
          54 120 vstem
          174 723 rmoveto
          -120 -723 120 hlineto
          endchar
        </CharString>
        <CharString name="lacute">
          -357 21 -21 723 -20 48 132 hstemhm
          54 120 hintmask 11010000
          174 723 rmoveto
          -120 -723 120 hlineto
          hintmask 11110000
          77 883 rmoveto
          -120 hlineto
          -86 -132 rlineto
          100 hlineto
          107 129 rlineto
          endchar
        </CharString>
        <CharString name="lcaron">
          -269 21 -21 549 137 -137 174 hstemhm
          54 120 52 138 hintmask 10111000
          174 723 rmoveto
          -120 -723 120 hlineto
          hintmask 11011000
          190 686 rmoveto
          -138 -137 55 hlineto
          -55 -156 rlineto
          72 hlineto
          66 168 rlineto
          endchar
        </CharString>
        <CharString name="lcommaaccent">
          -357 -178 123 76 -21 723 -20 hstem
          54 120 vstem
          174 723 rmoveto
          -120 -723 120 hlineto
          2 -55 rmoveto
          -123 -123 49 hlineto
          -36 -85 rlineto
          65 hlineto
          45 96 rlineto
          endchar
        </CharString>
        <CharString name="ldot">
          -251 21 -21 278 131 314 -20 hstem
          54 120 39 121 vstem
          174 723 rmoveto
          -120 -723 120 hlineto
          160 409 rmoveto
          -121 -131 121 hlineto
          endchar
        </CharString>
        <CharString name="less">
          -106 12 -21 540 -20 hstem
          34 412 vstem
          446 531 rmoveto
          -412 -207 rlineto
          -127 vlineto
          412 -206 rlineto
          118 vlineto
          -311 152 311 152 rlineto
          endchar
        </CharString>
        <CharString name="lessequal">
          -36 0 103 hstem
          69 412 vstem
          481 684 rmoveto
          -412 -207 rlineto
          -127 vlineto
          412 -206 rlineto
          118 vlineto
          -311 152 311 152 rlineto
          -463 vmoveto
          -412 -103 412 hlineto
          endchar
        </CharString>
        <CharString name="lira">
          -129 0 108 115 85 41 85 163 101 hstem
          71 121 122 119 vstem
          252 698 rmoveto
          -113 -68 -66 -133 hvcurveto
          -65 -62 -85 62 -41 -62 -85 62 -115 -51 -108 406 108 -246 vlineto
          11 115 rlineto
          115 85 -114 41 114 85 -114 91 hlineto
          48 23 24 37 38 24 -27 -53 vhcurveto
          -18 119 5 vlineto
          129 -71 65 -110 vhcurveto
          endchar
        </CharString>
        <CharString name="logicalnot">
          -106 350 113 hstem
          341 104 vstem
          445 463 rmoveto
          -416 -113 312 -163 104 hlineto
          endchar
        </CharString>
        <CharString name="longs">
          -357 21 -21 425 101 104 101 hstem
          62 120 vstem
          186 731 rmoveto
          -96 -28 -71 -70 hvcurveto
          -64 -53 -101 53 -425 120 587 vlineto
          28 15 15 27 vhcurveto
          49 89 hlineto
          6 -20 -39 6 -28 hhcurveto
          endchar
        </CharString>
        <CharString name="lslash">
          -357 21 -21 723 -20 hstem
          54 120 vstem
          174 723 rmoveto
          -120 -396 hlineto
          -68 -60 rlineto
          -96 vlineto
          68 60 rlineto
          -231 120 338 vlineto
          79 70 rlineto
          97 vlineto
          -79 -71 rlineto
          endchar
        </CharString>
        <CharString name="m">
          144 21 -21 429 109 -12 -20 hstemhm
          55 120 132 118 132 120 cntrmask 00011100
          hintmask 11011100
          547 538 rmoveto
          -63 -46 -36 -41 -27 hvcurveto
          55 -21 -40 22 -52 hhcurveto
          -58 -42 -36 -41 -25 hvcurveto
          -6 hlineto
          hintmask 10111100
          -12 65 rlineto
          -100 -526 120 324 hlineto
          hintmask 11011100
          62 31 43 41 40 20 -25 -68 vhcurveto
          -336 118 332 vlineto
          58 34 39 39 40 19 -25 -68 vhcurveto
          -336 120 369 vlineto
          127 -55 42 -75 vhcurveto
          endchar
        </CharString>
        <CharString name="macron">
          -312 599 87 hstem
          9 255 vstem
          264 686 rmoveto
          -255 -87 255 hlineto
          endchar
        </CharString>
        <CharString name="minus">
          -106 203 104 hstem
          33 412 vstem
          445 307 rmoveto
          -412 -104 412 hlineto
          endchar
        </CharString>
        <CharString name="minute">
          -390 506 180 hstem
          23 136 vstem
          158 686 rmoveto
          -110 hlineto
          -25 -180 rlineto
          89 hlineto
          47 177 rlineto
          endchar
        </CharString>
        <CharString name="mu">
          -84 -152 -21 161 109 -80 -21 25 -21 526 -20 hstemhm
          55 120 151 120 hintmask 10011110
          446 526 rmoveto
          -120 -326 hlineto
          hintmask 11001110
          -59 -35 -44 -47 -45 -24 25 68 vhcurveto
          336 -120 -699 120 vlineto
          hintmask 10101110
          169 vlineto
          hintmask 11001110
          -5 12 14 -3 14 hhcurveto
          53 37 36 41 23 hvcurveto
          6 hlineto
          hintmask 10011110
          12 -65 rlineto
          100 hlineto
          endchar
        </CharString>
        <CharString name="multiply">
          -106 39 435 hstem
          29 435 vstem
          392 474 rmoveto
          -146 -146 -145 146 -72 -72 146 -146 -146 -145 72 -72 145 146 146 -146 72 72 -146 145 146 146 rlineto
          endchar
        </CharString>
        <CharString name="n">
          -84 21 -21 429 109 -12 -20 hstemhm
          55 120 151 120 hintmask 11011000
          306 538 rmoveto
          -63 -43 -36 -41 -27 hvcurveto
          -6 hlineto
          hintmask 10111000
          -12 65 rlineto
          -100 -526 120 324 hlineto
          hintmask 11011000
          59 35 46 47 43 26 -25 -68 vhcurveto
          -336 120 369 vlineto
          124 -59 45 -81 vhcurveto
          endchar
        </CharString>
        <CharString name="nacute">
          -84 21 -21 429 109 -12 -20 85 132 hstemhm
          55 120 151 120 hintmask 11011100
          306 538 rmoveto
          -63 -43 -36 -41 -27 hvcurveto
          -6 hlineto
          hintmask 10111100
          -12 65 rlineto
          -100 -526 120 324 hlineto
          hintmask 11011100
          59 35 46 47 43 26 -25 -68 vhcurveto
          -336 120 369 vlineto
          124 -59 45 -81 vhcurveto
          hintmask 10111100
          82 185 rmoveto
          -120 hlineto
          -86 -132 rlineto
          99 hlineto
          108 129 rlineto
          endchar
        </CharString>
        <CharString name="napostrophe">
          91 21 -21 429 109 -59 47 37 123 hstemhm
          67 124 39 120 151 120 hintmask 11011110
          481 538 rmoveto
          -63 -43 -36 -41 -27 hvcurveto
          -6 hlineto
          hintmask 10111110
          -12 65 rlineto
          -100 -526 120 324 hlineto
          hintmask 11011110
          59 35 46 47 43 26 -25 -68 vhcurveto
          -336 120 369 vlineto
          124 -59 45 -81 vhcurveto
          hintmask 10111110
          -290 148 rmoveto
          -124 -123 49 hlineto
          -35 -84 rlineto
          65 hlineto
          45 95 rlineto
          endchar
        </CharString>
        <CharString name="ncaron">
          -84 21 -21 429 109 -12 -20 82 135 hstemhm
          55 120 151 120 hintmask 11011100
          306 538 rmoveto
          -63 -43 -36 -41 -27 hvcurveto
          -6 hlineto
          hintmask 10111100
          -12 65 rlineto
          -100 -526 120 324 hlineto
          hintmask 11011100
          59 35 46 47 43 26 -25 -68 vhcurveto
          -336 120 369 vlineto
          124 -59 45 -81 vhcurveto
          hintmask 10111100
          79 185 rmoveto
          -90 hlineto
          -44 -69 -45 69 rlineto
          -90 hlineto
          86 -135 rlineto
          98 hlineto
          endchar
        </CharString>
        <CharString name="ncommaaccent">
          -84 -178 123 76 -21 429 109 -12 -20 hstemhm
          55 120 14 123 14 120 hintmask 11101010
          306 538 rmoveto
          -63 -43 -36 -41 -27 hvcurveto
          -6 hlineto
          hintmask 11011010
          -12 65 rlineto
          -100 -526 120 324 hlineto
          hintmask 11101010
          59 35 46 47 43 26 -25 -68 vhcurveto
          -336 120 369 vlineto
          124 -59 45 -81 vhcurveto
          hintmask 11011110
          6 -593 rmoveto
          -123 -123 49 hlineto
          -36 -85 rlineto
          65 hlineto
          45 96 rlineto
          endchar
        </CharString>
        <CharString name="nine">
          -129 -12 101 166 98 244 101 hstemhm
          30 124 -106 123 131 124 hintmask 11110100
          219 698 rmoveto
          -109 -80 -85 -137 -127 55 -94 111 44 39 20 34 23 hvcurveto
          -134 -2 -6 -86 -62 hhcurveto
          hintmask 11101100
          -46 -15 45 77 hvcurveto
          -123 hlineto
          -127 53 -96 127 124 74 89 286 vhcurveto
          hintmask 11110100
          254 -78 81 -129 vhcurveto
          5 -101 rmoveto
          48 23 -52 -69 -73 -23 -50 -48 -48 -22 50 73 69 22 52 48 hvcurveto
          endchar
        </CharString>
        <CharString name="notequal">
          -36 96 103 109 104 hstem
          72 412 vstem
          435 484 rmoveto
          -81 hlineto
          -37 -72 rlineto
          -245 -104 193 hlineto
          -56 -109 rlineto
          -137 -103 85 hlineto
          -36 -71 rlineto
          81 hlineto
          36 71 rlineto
          246 103 -194 hlineto
          56 109 rlineto
          138 104 -86 hlineto
          endchar
        </CharString>
        <CharString name="ntilde">
          -84 21 -21 429 109 -12 -20 95 85 -48 85 hstemhm
          55 120 151 120 hintmask 11010110
          306 538 rmoveto
          -63 -43 -36 -41 -27 hvcurveto
          -6 hlineto
          hintmask 10110110
          -12 65 rlineto
          -100 -526 120 324 hlineto
          hintmask 11010110
          59 35 46 47 43 26 -25 -68 vhcurveto
          -336 120 369 vlineto
          124 -59 45 -81 vhcurveto
          hintmask 10101110
          47 185 rmoveto
          hintmask 10110110
          -28 -4 -14 -9 -21 hhcurveto
          -22 -21 9 10 -22 hvcurveto
          hintmask 10101110
          9 -21 -22 9 -25 hhcurveto
          -35 -24 -17 -23 -16 hvcurveto
          hintmask 10110110
          -16 -24 -7 -30 -28 vvcurveto
          66 hlineto
          hintmask 10101110
          27 4 14 10 21 hhcurveto
          hintmask 10110110
          45 39 -37 48 hhcurveto
          hintmask 10101110
          71 28 67 55 hvcurveto
          endchar
        </CharString>
        <CharString name="numbersign">
          -129 21 -21 195 84 141 84 194 -20 hstem
          5 445 vstem
          432 698 rmoveto
          -88 hlineto
          -44 -194 rlineto
          -75 hlineto
          44 194 rlineto
          -88 hlineto
          -44 -194 rlineto
          -93 -84 74 hlineto
          -31 -141 rlineto
          -82 -84 63 hlineto
          -44 -195 rlineto
          88 hlineto
          44 195 rlineto
          75 hlineto
          -44 -195 rlineto
          88 hlineto
          44 195 rlineto
          92 84 -73 hlineto
          31 141 rlineto
          81 84 -62 hlineto
          -107 -84 rmoveto
          -31 -141 rlineto
          -75 hlineto
          31 141 rlineto
          endchar
        </CharString>
        <CharString name="o">
          -84 -12 101 348 101 hstem
          41 125 170 125 vstem
          251 538 rmoveto
          -140 -70 -86 -189 -189 70 -86 140 140 70 86 189 189 -70 86 -140 hvcurveto
          -101 vmoveto
          62 23 -54 -101 hvcurveto
          -38 vlineto
          -101 -23 -54 -62 -62 -23 54 101 vhcurveto
          38 vlineto
          101 23 54 62 vhcurveto
          endchar
        </CharString>
        <CharString name="oacute">
          -84 -12 101 348 101 53 132 hstem
          41 125 170 125 vstem
          251 538 rmoveto
          -140 -70 -86 -189 -189 70 -86 140 140 70 86 189 189 -70 86 -140 hvcurveto
          -101 vmoveto
          62 23 -54 -101 hvcurveto
          -38 vlineto
          -101 -23 -54 -62 -62 -23 54 101 vhcurveto
          38 vlineto
          101 23 54 62 vhcurveto
          137 286 rmoveto
          -120 hlineto
          -86 -132 rlineto
          99 hlineto
          108 129 rlineto
          endchar
        </CharString>
        <CharString name="obreve">
          -84 -12 101 348 101 78 74 -74 107 hstemhm
          41 125 170 125 hintmask 11011100
          251 538 rmoveto
          -140 -70 -86 -189 -189 70 -86 140 140 70 86 189 189 -70 86 -140 hvcurveto
          -101 vmoveto
          62 23 -54 -101 hvcurveto
          -38 vlineto
          -101 -23 -54 -62 -62 -23 54 101 vhcurveto
          38 vlineto
          101 23 54 62 vhcurveto
          59 286 rmoveto
          hintmask 11101100
          -14 -2 -24 -19 -34 hhcurveto
          -16 -14 5 6 -11 hvcurveto
          hintmask 11011100
          -10 7 -6 8 -2 7 rrcurveto
          -74 hlineto
          -50 51 -57 82 83 51 57 50 vhcurveto
          endchar
        </CharString>
        <CharString name="ocircumflex">
          -84 -12 101 348 101 50 135 -66 66 hstemhm
          41 125 170 125 hintmask 11101100
          251 538 rmoveto
          -140 -70 -86 -189 -189 70 -86 140 140 70 86 189 189 -70 86 -140 hvcurveto
          -101 vmoveto
          62 23 -54 -101 hvcurveto
          -38 vlineto
          -101 -23 -54 -62 -62 -23 54 101 vhcurveto
          38 vlineto
          101 23 54 62 vhcurveto
          49 286 rmoveto
          -98 hlineto
          -86 -135 rlineto
          90 hlineto
          hintmask 11011100
          45 69 rlineto
          hintmask 11101100
          44 -69 rlineto
          90 hlineto
          endchar
        </CharString>
        <CharString name="odieresis">
          -84 -12 101 348 101 76 109 hstemhm
          41 125 -53 100 75 100 -52 125 hintmask 11110010
          251 538 rmoveto
          -140 -70 -86 -189 -189 70 -86 140 140 70 86 189 189 -70 86 -140 hvcurveto
          -101 vmoveto
          62 23 -54 -101 hvcurveto
          -38 vlineto
          -101 -23 -54 -62 -62 -23 54 101 vhcurveto
          38 vlineto
          101 23 54 62 vhcurveto
          hintmask 11101100
          -38 286 rmoveto
          -100 -109 100 hlineto
          175 109 rmoveto
          -100 -109 100 hlineto
          endchar
        </CharString>
        <CharString name="oe">
          189 -12 98 -98 101 144 87 117 101 -98 98 hstemhm
          41 125 170 126 141 126 hintmask 01110111
          539 538 rmoveto
          -60 -47 -21 -45 -34 hvcurveto
          45 -34 -49 21 -64 hhcurveto
          -140 -70 -86 -189 -189 70 -86 140 64 49 21 44 35 hvcurveto
          -44 34 48 -21 62 hhcurveto
          107 79 63 135 hvcurveto
          hintmask 10110111
          -119 hlineto
          -63 -26 -37 -41 -59 -21 53 94 -1 vhcurveto
          267 30 hlineto
          hintmask 01110111
          189 -63 86 -127 vhcurveto
          -288 -101 rmoveto
          62 23 -54 -101 hvcurveto
          -38 vlineto
          -101 -23 -54 -62 -62 -23 54 101 vhcurveto
          38 vlineto
          101 23 54 62 vhcurveto
          hintmask 01101111
          288 3 rmoveto
          44 20 -44 -76 hvcurveto
          -140 hlineto
          76 4 21 44 51 hhcurveto
          endchar
        </CharString>
        <CharString name="ogonek">
          -312 -182 69 hstem
          62 165 vstem
          188 12 rmoveto
          -78 hlineto
          -25 -26 -23 -29 -49 vvcurveto
          -69 53 -21 46 22 21 5 9 23 vhcurveto
          55 -22 vlineto
          -33 -12 25 26 28 18 28 12 14 hvcurveto
          endchar
        </CharString>
        <CharString name="ograve">
          -84 -12 101 348 101 53 132 hstem
          41 125 170 125 vstem
          251 538 rmoveto
          -140 -70 -86 -189 -189 70 -86 140 140 70 86 189 189 -70 86 -140 hvcurveto
          -101 vmoveto
          62 23 -54 -101 hvcurveto
          -38 vlineto
          -101 -23 -54 -62 -62 -23 54 101 vhcurveto
          38 vlineto
          101 23 54 62 vhcurveto
          -18 286 rmoveto
          -120 hlineto
          -1 -3 108 -129 rlineto
          99 hlineto
          endchar
        </CharString>
        <CharString name="ohungarumlaut">
          -84 -12 101 348 101 53 132 hstem
          41 125 170 125 vstem
          251 538 rmoveto
          -140 -70 -86 -189 -189 70 -86 140 140 70 86 189 189 -70 86 -140 hvcurveto
          -101 vmoveto
          62 23 -54 -101 hvcurveto
          -38 vlineto
          -101 -23 -54 -62 -62 -23 54 101 vhcurveto
          38 vlineto
          101 23 54 62 vhcurveto
          49 286 rmoveto
          -100 hlineto
          -62 -132 rlineto
          79 hlineto
          84 129 rlineto
          139 3 rmoveto
          -100 hlineto
          -62 -132 rlineto
          79 hlineto
          84 129 rlineto
          endchar
        </CharString>
        <CharString name="omacron">
          -84 -12 101 348 101 61 87 hstemhm
          41 125 -43 255 -42 125 hintmask 11110100
          251 538 rmoveto
          -140 -70 -86 -189 -189 70 -86 140 140 70 86 189 189 -70 86 -140 hvcurveto
          -101 vmoveto
          62 23 -54 -101 hvcurveto
          -38 vlineto
          -101 -23 -54 -62 -62 -23 54 101 vhcurveto
          38 vlineto
          101 23 54 62 vhcurveto
          hintmask 11101000
          127 249 rmoveto
          -255 -87 255 hlineto
          endchar
        </CharString>
        <CharString name="one">
          -129 0 101 428 80 77 -20 hstem
          194 120 vstem
          314 686 rmoveto
          -59 hlineto
          -64 -40 -96 -31 -56 -6 rrcurveto
          -80 155 -428 -154 -101 415 101 -141 vlineto
          endchar
        </CharString>
        <CharString name="oneeighth">
          99 -13 68 114 67 47 69 -11 68 176 56 -56 101 12 -20 hstemhm
          107 80 230 82 -74 81 62 81 -74 82 hintmask 1110101110010000
          537 169 rmoveto
          25 13 -20 -37 -38 -13 -19 -25 -24 -14 19 38 37 14 20 24 hvcurveto
          hintmask 1101101101100000
          240 vmoveto
          -74 -38 -52 -64 -34 15 -35 24 -21 hvcurveto
          hintmask 1110101110010000
          -32 -20 -15 -34 -41 vvcurveto
          -67 35 -54 85 85 35 54 67 41 -15 35 -32 20 vhcurveto
          hintmask 1110101110100000
          25 20 14 33 36 vvcurveto
          hintmask 1101101101100000
          64 -38 52 -74 vhcurveto
          -68 vmoveto
          21 10 -17 -36 hvcurveto
          hintmask 1110101101100000
          -34 -10 -18 -21 -21 -10 18 34 vhcurveto
          hintmask 1101101101100000
          36 10 17 21 vhcurveto
          hintmask 1110101110100000
          47 357 rmoveto
          -66 hlineto
          -396 -710 rlineto
          67 hlineto
          hintmask 1110010110010000
          -2 698 rmoveto
          -40 hlineto
          hintmask 1110101110010000
          -33 -22 -52 -19 -30 -4 rrcurveto
          hintmask 1110010110010000
          -56 75 -233 -74 -69 220 69 -66 vlineto
          endchar
        </CharString>
        <CharString name="onehalf">
          99 0 74 -65 -21 295 69 -8 70 171 56 -56 101 12 -20 hstemhm
          107 80 242 82 67 83 hintmask 1010101111000000
          587 698 rmoveto
          -66 hlineto
          hintmask 0110010111000000
          -396 -710 rlineto
          67 hlineto
          -5 698 rmoveto
          -40 hlineto
          hintmask 1010101111000000
          -33 -22 -52 -19 -30 -4 rrcurveto
          hintmask 1010010111000000
          -56 75 -233 -74 -69 220 69 -66 vlineto
          hintmask 1001101111000000
          362 62 rmoveto
          -64 -56 -36 -90 -14 3 -13 0 hvcurveto
          79 28 hlineto
          30 11 25 24 25 7 -20 -17 -51 -35 -40 -42 -47 vhcurveto
          -37 -43 -39 -44 -64 vvcurveto
          -18 238 74 -138 vlineto
          50 76 86 59 97 vvcurveto
          77 -50 31 -62 vhcurveto
          endchar
        </CharString>
        <CharString name="onequarter">
          99 0 158 -149 -21 101 69 125 69 233 56 -56 101 12 -20 hstemhm
          107 80 353 79 hintmask 1001101110000000
          592 698 rmoveto
          -66 hlineto
          hintmask 0101010110000000
          -396 -710 rlineto
          67 hlineto
          -10 698 rmoveto
          -40 hlineto
          hintmask 1001101110000000
          -33 -22 -52 -19 -30 -4 rrcurveto
          hintmask 0011010110000000
          -56 75 -233 -74 -69 220 69 -66 vlineto
          312 62 rmoveto
          -25 -91 -36 -100 -41 -73 rrcurveto
          -61 143 vlineto
          hintmask 1001101110000000
          -89 79 vlineto
          hintmask 0011101110000000
          89 42 vlineto
          hintmask 1001101110000000
          69 -42 168 -27 vlineto
          -9 -33 -27 -68 -16 -30 rrcurveto
          -37 -68 vlineto
          26 39 58 115 22 102 rrcurveto
          endchar
        </CharString>
        <CharString name="onesuperior">
          -312 320 69 233 56 -56 101 hstemhm
          107 80 hintmask 10110000
          187 723 rmoveto
          -40 hlineto
          hintmask 11010000
          -33 -22 -52 -19 -30 -4 rrcurveto
          hintmask 10110000
          -56 75 -233 -74 -69 220 69 -66 vlineto
          endchar
        </CharString>
        <CharString name="ordfeminine">
          -282 363 71 94 59 77 70 hstemhm
          14 87 -70 84 71 86 hintmask 11110100
          151 734 rmoveto
          hintmask 11101100
          -73 -47 -39 -60 -6 0 -4 1 -4 hvcurveto
          83 10 hlineto
          15 8 18 30 28 5 -18 -22 vhcurveto
          -37 vlineto
          hintmask 11110100
          -101 -71 -29 -95 -83 56 -17 33 47 23 18 28 20 hvcurveto
          4 hlineto
          -27 8 22 -19 32 hhcurveto
          24 15 6 4 9 hvcurveto
          62 -16 vlineto
          -10 -9 7 17 hvcurveto
          170 vlineto
          67 -39 38 -82 vhcurveto
          35 -226 rmoveto
          -40 -14 -34 -35 -25 -11 14 22 46 42 12 43 vhcurveto
          endchar
        </CharString>
        <CharString name="ordmasculine">
          -286 362 73 226 73 hstem
          10 89 106 89 vstem
          152 734 rmoveto
          -95 -47 -58 -128 -128 47 -58 95 95 47 58 128 128 -47 58 -95 hvcurveto
          -73 vmoveto
          39 14 -35 -65 hvcurveto
          -26 vlineto
          -65 -14 -35 -39 -39 -14 35 65 vhcurveto
          26 vlineto
          65 14 35 39 vhcurveto
          endchar
        </CharString>
        <CharString name="orthogonal">
          394 0 110 hstem
          157 118 vstem
          275 625 rmoveto
          -118 -625 645 110 -527 hlineto
          endchar
        </CharString>
        <CharString name="oslash">
          -84 -12 101 348 101 hstem
          41 125 170 125 vstem
          448 558 rmoveto
          -75 hlineto
          -22 -41 rlineto
          14 -28 -33 7 -39 hhcurveto
          -140 -70 -86 -189 -98 19 -70 37 -45 hvcurveto
          -45 -82 rlineto
          75 hlineto
          22 41 rlineto
          -14 29 33 -7 40 hhcurveto
          140 70 86 189 98 -19 71 -38 45 hvcurveto
          -72 -132 rmoveto
          2 -19 2 -21 -23 vvcurveto
          -38 vlineto
          -101 -23 -54 -62 -20 -16 6 11 -13 vhcurveto
          49 331 rmoveto
          19 16 -6 -10 12 hvcurveto
          -129 -238 rlineto
          -2 18 -1 20 23 vvcurveto
          38 vlineto
          101 23 54 62 vhcurveto
          endchar
        </CharString>
        <CharString name="oslashacute">
          -84 -12 101 348 101 53 132 hstem
          41 125 170 125 vstem
          448 558 rmoveto
          -75 hlineto
          -22 -41 rlineto
          14 -28 -33 7 -39 hhcurveto
          -140 -70 -86 -189 -98 19 -70 37 -45 hvcurveto
          -45 -82 rlineto
          75 hlineto
          22 41 rlineto
          -14 29 33 -7 40 hhcurveto
          140 70 86 189 98 -19 71 -38 45 hvcurveto
          -72 -132 rmoveto
          2 -19 2 -21 -23 vvcurveto
          -38 vlineto
          -101 -23 -54 -62 -20 -16 6 11 -13 vhcurveto
          49 331 rmoveto
          19 16 -6 -10 12 hvcurveto
          -129 -238 rlineto
          -2 18 -1 20 23 vvcurveto
          38 vlineto
          101 23 54 62 vhcurveto
          137 286 rmoveto
          -120 hlineto
          -86 -132 rlineto
          99 hlineto
          108 129 rlineto
          endchar
        </CharString>
        <CharString name="otilde">
          -84 -12 101 348 101 63 85 -48 85 hstemhm
          41 125 170 125 hintmask 11101100
          251 538 rmoveto
          -140 -70 -86 -189 -189 70 -86 140 140 70 86 189 189 -70 86 -140 hvcurveto
          -101 vmoveto
          62 23 -54 -101 hvcurveto
          -38 vlineto
          -101 -23 -54 -62 -62 -23 54 101 vhcurveto
          38 vlineto
          101 23 54 62 vhcurveto
          hintmask 11011100
          102 286 rmoveto
          hintmask 11101100
          -28 -4 -14 -9 -21 hhcurveto
          -22 -21 9 10 -22 hvcurveto
          hintmask 11011100
          9 -21 -22 9 -25 hhcurveto
          -35 -24 -17 -23 -16 hvcurveto
          hintmask 11101100
          -16 -24 -7 -30 -28 vvcurveto
          66 hlineto
          hintmask 11011100
          27 4 14 10 21 hhcurveto
          hintmask 11101100
          45 39 -37 48 hhcurveto
          hintmask 11011100
          71 28 67 55 hvcurveto
          endchar
        </CharString>
        <CharString name="p">
          -84 -152 -21 161 109 -43 43 332 97 -97 109 hstemhm
          55 120 160 125 hintmask 11001110
          291 538 rmoveto
          -50 -43 -26 -51 -26 hvcurveto
          -5 hlineto
          hintmask 10110110
          -12 65 rlineto
          -100 -699 120 227 5 hlineto
          hintmask 11001110
          -42 19 45 -24 53 hhcurveto
          93 70 83 191 191 -65 85 -104 hvcurveto
          -36 -109 rmoveto
          58 22 -52 -95 hvcurveto
          -38 vlineto
          -95 -22 -52 -58 -58 -22 54 95 vhcurveto
          36 vlineto
          95 22 52 58 vhcurveto
          endchar
        </CharString>
        <CharString name="paragraph">
          -129 -152 -21 783 76 hstem
          187 80 53 81 vstem
          449 686 rmoveto
          -239 hlineto
          -107 -85 -98 -121 -113 73 -91 96 -13 hvcurveto
          -423 80 783 53 -783 81 783 48 vlineto
          endchar
        </CharString>
        <CharString name="parenleft">
          -312 -157 892 hstem
          30 110 vstem
          179 735 rmoveto
          -96 -123 -53 -160 -164 vvcurveto
          -164 53 -158 96 -123 vhcurveto
          79 hlineto
          -66 122 -52 169 156 vvcurveto
          156 52 167 66 122 vhcurveto
          endchar
        </CharString>
        <CharString name="parenright">
          -312 -157 892 hstem
          133 110 vstem
          15 735 rmoveto
          66 -122 52 -167 -156 vvcurveto
          -156 -52 -169 -66 -122 vhcurveto
          79 hlineto
          96 123 53 158 164 vvcurveto
          164 -53 160 -96 123 vhcurveto
          endchar
        </CharString>
        <CharString name="partialdiff">
          -91 -12 102 262 97 187 99 hstem
          36 125 176 119 vstem
          222 735 rmoveto
          -56 -41 -13 -16 -31 hvcurveto
          -104 vlineto
          18 25 35 16 48 hhcurveto
          77 58 -96 -122 -9 0 -19 -1 -6 hvcurveto
          -4 hlineto
          24 -12 -37 41 -58 hhcurveto
          -98 -91 -93 -152 -116 61 -100 120 153 86 148 247 250 -116 102 -118 hvcurveto
          26 -383 rmoveto
          44 28 -40 -33 9 hvcurveto
          -97 -7 -39 -92 -59 hhcurveto
          -40 -23 45 66 82 38 69 49 hvcurveto
          endchar
        </CharString>
        <CharString name="percent">
          144 -12 73 -40 -21 276 73 -12 73 215 73 -12 -20 hstemhm
          35 89 98 89 108 89 98 89 hintmask 1001101111000000
          173 698 rmoveto
          -86 -52 -42 -139 -138 52 -42 86 86 52 41 139 139 -52 42 -86 hvcurveto
          -73 vmoveto
          40 9 -41 -59 hvcurveto
          -15 vlineto
          -59 -9 -41 -40 -40 -9 41 59 vhcurveto
          15 vlineto
          59 9 41 40 vhcurveto
          hintmask 1010011111000000
          384 -276 rmoveto
          -86 -52 -42 -139 -138 52 -42 86 86 52 41 139 139 -52 42 -86 hvcurveto
          -73 vmoveto
          40 9 -41 -59 hvcurveto
          -15 vlineto
          -59 -9 -41 -40 -40 -9 41 59 vhcurveto
          15 vlineto
          59 9 41 40 vhcurveto
          61 410 rmoveto
          -86 hlineto
          hintmask 0101101111000000
          -418 -686 rlineto
          85 hlineto
          endchar
        </CharString>
        <CharString name="period">
          -357 0 137 hstem
          45 138 vstem
          183 137 rmoveto
          -138 -137 138 hlineto
          endchar
        </CharString>
        <CharString name="periodcentered">
          -357 278 131 hstem
          53 121 vstem
          174 409 rmoveto
          -121 -131 121 hlineto
          endchar
        </CharString>
        <CharString name="perthousand">
          235 -12 73 -40 -21 276 73 -12 73 215 73 -12 -20 hstemhm
          2 89 68 89 56 89 68 89 24 89 68 89 hintmask 1010101111010000
          427 349 rmoveto
          -77 -46 -42 -139 -138 46 -42 77 77 46 41 139 139 -46 42 -77 hvcurveto
          -73 vmoveto
          28 6 -28 -72 hvcurveto
          -15 vlineto
          -72 -6 -28 -28 -28 -6 28 72 vhcurveto
          15 vlineto
          72 6 28 28 vhcurveto
          -302 422 rmoveto
          -77 -46 -42 -139 hvcurveto
          hintmask 0001001100000000
          -138 46 -42 77 77 46 41 139 vhcurveto
          hintmask 1010101111010000
          139 -46 42 -77 vhcurveto
          -73 vmoveto
          28 6 -28 -72 hvcurveto
          hintmask 0001101100000000
          -15 vlineto
          -72 -6 -28 -28 -28 -6 28 72 vhcurveto
          15 vlineto
          hintmask 1010101111010000
          72 6 28 28 vhcurveto
          572 -276 rmoveto
          hintmask 1010000000110000
          -77 -46 -42 -139 -138 46 -42 77 77 46 41 139 hvcurveto
          hintmask 1010101111010000
          139 -46 42 -77 vhcurveto
          hintmask 1010010000110000
          -73 vmoveto
          28 6 -28 -72 hvcurveto
          -15 vlineto
          -72 -6 -28 -28 -28 -6 28 72 vhcurveto
          15 vlineto
          72 6 28 28 vhcurveto
          -276 410 rmoveto
          -70 hlineto
          hintmask 0100000010000000
          -222 -686 rlineto
          69 hlineto
          endchar
        </CharString>
        <CharString name="peseta">
          375 -12 98 -98 101 -101 178 -145 -21 266 113 -7 166 -113 101 -86 98 34 114 hstemhm
          50 128 258 116 42 118 -111 117 87 117 -107 118 hintmask 1000101011101010
          50 686 rmoveto
          hintmask 0001101011101010
          -686 128 266 28 vlineto
          109 79 61 98 21 hvcurveto
          21 -296 hlineto
          hintmask 1000100111101010
          -70 28 -71 96 22 30 6 6 16 vhcurveto
          43 vlineto
          -36 30 48 -19 63 hhcurveto
          104 60 57 111 hvcurveto
          177 -215 -40 103 vvcurveto
          20 12 24 33 vhcurveto
          hintmask 1000100111101100
          27 14 -22 -33 1 hvcurveto
          hintmask 1000010011101100
          -13 116 vlineto
          0 1 20 9 hvcurveto
          hintmask 1000100111101100
          62 -50 75 -105 -13 -13 -1 -2 -12 vhcurveto
          hintmask 1000101011101010
          -12 -2 -11 -3 -10 -4 rrcurveto
          -144 148 -87 hlineto
          -29 -148 rlineto
          -19 hlineto
          94 -17 -71 66 -123 hhcurveto
          -13 -114 rmoveto
          61 35 -36 -56 -63 -34 -38 -62 hvcurveto
          -15 193 hlineto
          428 -147 rmoveto
          -3 -13 -2 -14 -13 vvcurveto
          -191 214 52 -111 vvcurveto
          -30 -20 -19 -30 vhcurveto
          hintmask 1000101011110010
          -34 -19 27 37 hvcurveto
          hintmask 0010101011110010
          16 -116 vlineto
          hintmask 0100101011110010
          0 -2 -8 -12 -21 3 -19 5 -17 hvcurveto
          -8 hlineto
          -27 -15 15 28 hvcurveto
          293 vlineto
          endchar
        </CharString>
        <CharString name="pi">
          43 21 -21 425 101 hstem
          140 120 110 120 vstem
          581 526 rmoveto
          -401 hlineto
          -86 -48 -11 -19 -26 hvcurveto
          12 -84 rlineto
          9 23 23 4 62 hhcurveto
          -3 -120 -28 -205 -33 -100 rrcurveto
          119 hlineto
          32 83 26 222 7 120 rrcurveto
          110 -278 hlineto
          -80 6 -51 9 -16 vhcurveto
          118 hlineto
          -8 30 -5 44 82 vvcurveto
          269 83 vlineto
          endchar
        </CharString>
        <CharString name="plus">
          -106 21 -21 203 104 hstem
          187 103 vstem
          290 511 rmoveto
          -103 -204 -154 -104 154 -203 103 203 155 104 -155 hlineto
          endchar
        </CharString>
        <CharString name="plusminus">
          -36 0 103 214 104 hstem
          222 103 vstem
          325 595 rmoveto
          -103 -174 -154 -104 154 -173 103 173 155 104 -155 hlineto
          155 -318 rmoveto
          -412 -103 412 hlineto
          endchar
        </CharString>
        <CharString name="product">
          238 621 102 hstem
          178 121 224 121 vstem
          727 723 rmoveto
          -631 -102 82 -749 121 749 224 -749 121 749 83 hlineto
          endchar
        </CharString>
</ttFont>
